<svg width="1920" height="2011" viewBox="0 0 1920 2011" fill="none" xmlns="http://www.w3.org/2000/svg">
<g clip-path="url(#clip0_269:6)">
<rect width="1920" height="2011" fill="#F4F4F4"/>
<g filter="url(#filter0_i_269:6)">
<path d="M1692.08 -20C1692.08 -20 1497.9 86.8093 1500.14 260C1501.7 380.503 1648.07 396.599 1607.23 514C1581.22 588.796 1512.14 619.142 1500.14 695.5C1482.15 809.989 1632.48 797.388 1631.52 912.5C1630.7 1009.83 1497.22 1089.38 1479.62 1186C1458.47 1302.19 1668.27 1491.59 1631.52 1606.05C1604.43 1690.4 1461.81 1702.76 1443.78 1788.18C1424.34 1880.31 1570.41 2011 1570.41 2011H1920V-20H1692.08Z" fill="#00B19F"/>
</g>
<g filter="url(#filter1_i_269:6)">
<path d="M227.924 -20C227.924 -20 422.099 86.8093 419.857 260C418.297 380.503 271.927 396.599 312.766 514C338.785 588.796 407.858 619.142 419.857 695.5C437.849 809.989 287.518 797.388 288.483 912.5C289.3 1009.83 422.785 1089.38 440.375 1186C461.529 1302.19 251.732 1491.59 288.483 1606.05C315.569 1690.4 458.189 1702.76 476.218 1788.18C495.662 1880.31 349.593 2011 349.593 2011H-1.72608e-05V-20H227.924Z" fill="#00B19F"/>
</g>
</g>
<defs>
<filter id="filter0_i_269:6" x="1442" y="-20" width="494" height="2035" filterUnits="userSpaceOnUse" color-interpolation-filters="sRGB">
<feFlood flood-opacity="0" result="BackgroundImageFix"/>
<feBlend mode="normal" in="SourceGraphic" in2="BackgroundImageFix" result="shape"/>
<feColorMatrix in="SourceAlpha" type="matrix" values="0 0 0 0 0 0 0 0 0 0 0 0 0 0 0 0 0 0 127 0" result="hardAlpha"/>
<feOffset dx="16" dy="4"/>
<feGaussianBlur stdDeviation="8.5"/>
<feComposite in2="hardAlpha" operator="arithmetic" k2="-1" k3="1"/>
<feColorMatrix type="matrix" values="0 0 0 0 0 0 0 0 0 0 0 0 0 0 0 0 0 0 0.25 0"/>
<feBlend mode="normal" in2="shape" result="effect1_innerShadow_269:6"/>
</filter>
<filter id="filter1_i_269:6" x="-16" y="-24" width="494" height="2035" filterUnits="userSpaceOnUse" color-interpolation-filters="sRGB">
<feFlood flood-opacity="0" result="BackgroundImageFix"/>
<feBlend mode="normal" in="SourceGraphic" in2="BackgroundImageFix" result="shape"/>
<feColorMatrix in="SourceAlpha" type="matrix" values="0 0 0 0 0 0 0 0 0 0 0 0 0 0 0 0 0 0 127 0" result="hardAlpha"/>
<feOffset dx="-16" dy="-4"/>
<feGaussianBlur stdDeviation="8.5"/>
<feComposite in2="hardAlpha" operator="arithmetic" k2="-1" k3="1"/>
<feColorMatrix type="matrix" values="0 0 0 0 0 0 0 0 0 0 0 0 0 0 0 0 0 0 0.25 0"/>
<feBlend mode="normal" in2="shape" result="effect1_innerShadow_269:6"/>
</filter>
<clipPath id="clip0_269:6">
<rect width="1920" height="2011" fill="white"/>
</clipPath>
</defs>
</svg>
