<svg width="32" height="32" viewBox="0 0 32 32" fill="none" xmlns="http://www.w3.org/2000/svg">
<path d="M13.7334 10.2667C13.6099 10.3887 13.5118 10.534 13.4449 10.6942C13.378 10.8545 13.3435 11.0264 13.3435 11.2C13.3435 11.3736 13.378 11.5455 13.4449 11.7058C13.5118 11.866 13.6099 12.0113 13.7334 12.1333L16.2667 14.6667H4.00008C3.26675 14.6667 2.66675 15.2667 2.66675 16C2.66675 16.7333 3.26675 17.3333 4.00008 17.3333H16.2667L13.7334 19.8667C13.6099 19.9887 13.5118 20.134 13.4449 20.2942C13.378 20.4545 13.3435 20.6264 13.3435 20.8C13.3435 20.9736 13.378 21.1455 13.4449 21.3058C13.5118 21.466 13.6099 21.6113 13.7334 21.7333C14.2534 22.2533 15.0801 22.2533 15.6001 21.7333L20.3867 16.9467C20.5104 16.8233 20.6084 16.6768 20.6753 16.5155C20.7422 16.3542 20.7767 16.1813 20.7767 16.0067C20.7767 15.832 20.7422 15.6591 20.6753 15.4978C20.6084 15.3365 20.5104 15.19 20.3867 15.0667L15.6001 10.2667C15.4781 10.1431 15.3327 10.0451 15.1725 9.97815C15.0123 9.91121 14.8404 9.87675 14.6667 9.87675C14.4931 9.87675 14.3212 9.91121 14.161 9.97815C14.0008 10.0451 13.8554 10.1431 13.7334 10.2667V10.2667ZM26.6667 25.3333H17.3334C16.6001 25.3333 16.0001 25.9333 16.0001 26.6667C16.0001 27.4 16.6001 28 17.3334 28H26.6667C28.1334 28 29.3334 26.8 29.3334 25.3333V6.66667C29.3334 5.2 28.1334 4 26.6667 4H17.3334C16.6001 4 16.0001 4.6 16.0001 5.33333C16.0001 6.06667 16.6001 6.66667 17.3334 6.66667H26.6667V25.3333Z" fill="#212121"/>
</svg>
