<svg width="95" height="95" viewBox="0 0 95 95" fill="none" xmlns="http://www.w3.org/2000/svg">
<path d="M35.625 11.875C38.5608 11.875 41.4307 12.7456 43.8718 14.3766C46.3128 16.0077 48.2154 18.326 49.3388 21.0383C50.4623 23.7506 50.7563 26.7352 50.1835 29.6146C49.6108 32.494 48.1971 35.1389 46.1211 37.2149C44.0452 39.2908 41.4003 40.7045 38.5209 41.2773C35.6415 41.85 32.6569 41.5561 29.9446 40.4326C27.2322 39.3091 24.9139 37.4065 23.2829 34.9655C21.6518 32.5245 20.7813 29.6546 20.7813 26.7188C20.7813 22.7819 22.3452 19.0064 25.1289 16.2226C27.9126 13.4389 31.6882 11.875 35.625 11.875ZM35.625 5.9375C31.5149 5.9375 27.497 7.1563 24.0796 9.43977C20.6621 11.7232 17.9985 14.9688 16.4256 18.7661C14.8528 22.5634 14.4412 26.7418 15.2431 30.773C16.0449 34.8041 18.0241 38.507 20.9304 41.4133C23.8368 44.3196 27.5396 46.2988 31.5708 47.1007C35.602 47.9025 39.7804 47.491 43.5777 45.9181C47.3749 44.3452 50.6205 41.6817 52.904 38.2642C55.1875 34.8467 56.4063 30.8289 56.4063 26.7188C56.4063 21.2072 54.2168 15.9214 50.3196 12.0242C46.4223 8.12695 41.1365 5.9375 35.625 5.9375Z" fill="#212121"/>
<path d="M65.3125 89.0625H59.375V74.2188C59.375 70.2819 57.8111 66.5064 55.0274 63.7226C52.2436 60.9389 48.4681 59.375 44.5312 59.375H26.7188C22.7819 59.375 19.0064 60.9389 16.2226 63.7226C13.4389 66.5064 11.875 70.2819 11.875 74.2188V89.0625H5.9375V74.2188C5.9375 68.7072 8.12695 63.4214 12.0242 59.5242C15.9214 55.6269 21.2072 53.4375 26.7188 53.4375H44.5312C50.0428 53.4375 55.3286 55.6269 59.2258 59.5242C63.1231 63.4214 65.3125 68.7072 65.3125 74.2188V89.0625Z" fill="#212121"/>
<path d="M65.3125 11.875H95V17.8125H65.3125V11.875Z" fill="#212121"/>
<path d="M65.3125 26.7188H95V32.6562H65.3125V26.7188Z" fill="#212121"/>
<path d="M65.3125 41.5625H86.0938V47.5H65.3125V41.5625Z" fill="#212121"/>
</svg>
