<svg width="32" height="32" viewBox="0 0 32 32" fill="none" xmlns="http://www.w3.org/2000/svg">
<path d="M6.66667 6.66667H14.6667C15.4 6.66667 16 6.06667 16 5.33333C16 4.6 15.4 4 14.6667 4H6.66667C5.2 4 4 5.2 4 6.66667V25.3333C4 26.8 5.2 28 6.66667 28H14.6667C15.4 28 16 27.4 16 26.6667C16 25.9333 15.4 25.3333 14.6667 25.3333H6.66667V6.66667Z" fill="white"/>
<path d="M27.5333 15.5334L23.8133 11.8134C23.7206 11.7181 23.6016 11.6527 23.4714 11.6255C23.3413 11.5983 23.206 11.6105 23.0829 11.6606C22.9597 11.7107 22.8543 11.7964 22.7802 11.9068C22.7061 12.0171 22.6665 12.1471 22.6667 12.2801V14.6667H13.3333C12.6 14.6667 12 15.2667 12 16.0001C12 16.7334 12.6 17.3334 13.3333 17.3334H22.6667V19.7201C22.6667 20.3201 23.3867 20.6134 23.8 20.1867L27.52 16.4667C27.7867 16.2134 27.7867 15.7867 27.5333 15.5334V15.5334Z" fill="white"/>
</svg>
