<svg width="48" height="49" viewBox="0 0 48 49" fill="none" xmlns="http://www.w3.org/2000/svg">
<path d="M43.611 20.7768H42V20.6938H24V28.6938H35.303C33.654 33.3508 29.223 36.6938 24 36.6938C17.373 36.6938 12 31.3208 12 24.6938C12 18.0668 17.373 12.6938 24 12.6938C27.059 12.6938 29.842 13.8478 31.961 15.7328L37.618 10.0758C34.046 6.74676 29.268 4.69376 24 4.69376C12.955 4.69376 4 13.6488 4 24.6938C4 35.7388 12.955 44.6938 24 44.6938C35.045 44.6938 44 35.7388 44 24.6938C44 23.3528 43.862 22.0438 43.611 20.7768Z" fill="#FFC107"/>
<path d="M6.30603 15.3848L12.877 20.2038C14.655 15.8018 18.961 12.6938 24 12.6938C27.059 12.6938 29.842 13.8478 31.961 15.7328L37.618 10.0758C34.046 6.74676 29.268 4.69376 24 4.69376C16.318 4.69376 9.65603 9.03076 6.30603 15.3848Z" fill="#FF3D00"/>
<path d="M23.9999 44.6938C29.1659 44.6938 33.8599 42.7168 37.4089 39.5018L31.2189 34.2638C29.1435 35.8421 26.6074 36.6958 23.9999 36.6938C18.7979 36.6938 14.3809 33.3768 12.7169 28.7478L6.19495 33.7728C9.50495 40.2498 16.2269 44.6938 23.9999 44.6938Z" fill="#4CAF50"/>
<path d="M43.611 20.7768H42V20.6938H24V28.6938H35.303C34.5142 30.9102 33.0934 32.8469 31.216 34.2648L31.219 34.2628L37.409 39.5008C36.971 39.8988 44 34.6938 44 24.6938C44 23.3528 43.862 22.0438 43.611 20.7768Z" fill="#1976D2"/>
</svg>
