<svg width="95" height="95" viewBox="0 0 95 95" fill="none" xmlns="http://www.w3.org/2000/svg">
<path d="M55.4166 31.6666H18.4721C17.7723 31.6666 17.1011 31.3886 16.6062 30.8937C16.1113 30.3988 15.8333 29.7276 15.8333 29.0278V18.4722C15.8333 17.7723 16.1113 17.1011 16.6062 16.6062C17.1011 16.1113 17.7723 15.8333 18.4721 15.8333H55.4166C56.1165 15.8333 56.7877 16.1113 57.2826 16.6062C57.7775 17.1011 58.0555 17.7723 58.0555 18.4722V29.0278C58.0555 29.7276 57.7775 30.3988 57.2826 30.8937C56.7877 31.3886 56.1165 31.6666 55.4166 31.6666ZM21.111 26.3889H52.7777V20.9528H21.111V26.3889Z" fill="#212121"/>
<path d="M55.4166 37.1555H18.4721C17.7723 37.1555 17.1011 37.4335 16.6062 37.9284C16.1113 38.4233 15.8333 39.0945 15.8333 39.7944V50.1389C15.8333 50.8387 16.1113 51.5099 16.6062 52.0048C17.1011 52.4997 17.7723 52.7777 18.4721 52.7777H48.4499L58.0555 43.0138V39.7944C58.0555 39.0945 57.7775 38.4233 57.2826 37.9284C56.7877 37.4335 56.1165 37.1555 55.4166 37.1555ZM52.7777 47.5H21.111V42.2222H52.7777V47.5Z" fill="#212121"/>
<path d="M29.1862 83.1514V82.993L30.0306 79.325H10.5556V10.5555H63.3334V37.6042L68.6112 32.6167V7.91666C68.6112 7.21678 68.3331 6.54557 67.8382 6.05068C67.3434 5.5558 66.6721 5.27777 65.9723 5.27777H7.91672C7.21684 5.27777 6.54563 5.5558 6.05074 6.05068C5.55586 6.54557 5.27783 7.21678 5.27783 7.91666V81.8055C5.27783 82.5054 5.55586 83.1766 6.05074 83.6715C6.54563 84.1664 7.21684 84.4444 7.91672 84.4444H29.0278C29.0496 84.0102 29.1025 83.578 29.1862 83.1514Z" fill="#212121"/>
<path d="M58.0554 50.5875L55.9971 52.6722C56.5077 52.567 56.9758 52.3128 57.3421 51.9418C57.7084 51.5707 57.9567 51.0995 58.0554 50.5875Z" fill="#212121"/>
<path d="M15.8333 71.0917C15.8333 71.7915 16.1113 72.4627 16.6062 72.9576C17.1011 73.4525 17.7723 73.7305 18.4721 73.7305H31.2444L32.036 70.3L32.3791 68.8486V68.7167H21.111V63.3333H37.8416L43.1194 58.0555H18.4721C17.7723 58.0555 17.1011 58.3336 16.6062 58.8285C16.1113 59.3233 15.8333 59.9946 15.8333 60.6944V71.0917Z" fill="#212121"/>
<path d="M88.3764 43.9903L79.4834 35.0972C79.0887 34.7014 78.6198 34.3875 78.1036 34.1732C77.5874 33.959 77.034 33.8487 76.475 33.8487C75.9161 33.8487 75.3627 33.959 74.8465 34.1732C74.3303 34.3875 73.8614 34.7014 73.4667 35.0972L37.2876 71.4875L34.3056 84.1805C34.194 84.7281 34.1915 85.2924 34.2982 85.8409C34.405 86.3895 34.6189 86.9116 34.9278 87.3774C35.2367 87.8431 35.6344 88.2434 36.0982 88.5552C36.562 88.867 37.0827 89.0842 37.6306 89.1944C37.9026 89.2218 38.1767 89.2218 38.4487 89.1944C38.772 89.2471 39.1017 89.2471 39.4251 89.1944L52.2237 86.3708L88.3764 50.1389C88.7714 49.7465 89.0848 49.2798 89.2987 48.7658C89.5126 48.2517 89.6227 47.7005 89.6227 47.1437C89.6227 46.587 89.5126 46.0357 89.2987 45.5217C89.0848 45.0077 88.7714 44.541 88.3764 44.1486V43.9903ZM49.532 81.568L39.8737 83.7055L42.2223 74.1264L69.3501 46.7083L76.7917 54.15L49.532 81.568ZM79.7737 51.168L72.332 43.7264L76.5278 39.5833L84.0223 47.0778L79.7737 51.168Z" fill="#212121"/>
</svg>
