<svg width="1016" height="739" viewBox="0 0 1016 739" fill="none" xmlns="http://www.w3.org/2000/svg">
<path opacity="0.1" d="M103.615 690.496H944.119C1013.79 632.382 977.935 457.51 919.743 422.059C857.108 383.899 956.571 251.926 860.082 209.094C797.082 181.127 696.884 211.611 710.362 136.782C729.051 33.0043 510.605 6.42148 349.669 34.3882C175.669 64.6284 334.568 213.312 143.229 243.257C44.8435 258.661 63.846 390.457 73.028 417.675C81.0179 441.386 133.881 479.03 60.4138 530.822C-47.3124 606.788 101.076 689.083 103.615 690.496Z" fill="#9BC1F9"/>
<path d="M850.2 246.63C850.2 246.63 836.442 276.582 827.182 289.237C817.923 301.892 809.099 313.989 801.718 349.108C794.337 384.227 795.595 387.756 793.573 396.827C791.55 405.898 778.393 442.648 778.316 449.387C778.238 456.126 751.722 494.489 744.928 512.447C738.133 530.405 726.106 556.051 726.781 569.108L729.804 568.34C729.804 568.34 732.266 537.893 753.228 507.122C774.19 476.35 771.193 470.541 795.001 454.716C818.808 438.891 834.179 395.255 834.179 395.255C834.179 395.255 858.415 347.828 857.271 323.168C856.127 298.508 862.571 276.276 850.2 246.63Z" fill="#256653"/>
<path d="M817.977 200.558C817.977 200.558 817.177 220.235 810.829 231.927C804.481 243.619 799.019 250.715 797.864 263.363C796.709 276.01 792.723 308.609 775.027 324.526C757.331 340.443 755.069 388.139 741.595 402.566C728.121 416.992 726.364 427.366 728.852 452.111C731.339 476.856 739.79 511.159 720.249 555.911L715.82 544.776C715.82 544.776 729.8 507.952 726.416 486.389C723.032 464.825 711.255 432.245 715.566 416.638C719.876 401.03 703.845 397.96 713.499 374.326C723.153 350.692 719.186 342.48 732.321 322.046C732.321 322.046 733.668 321.09 737.118 303.8C740.569 286.51 768.425 254.823 781.261 244.014C794.096 233.204 812.611 215.847 817.977 200.558Z" fill="#256653"/>
<path d="M765.702 297.984C765.702 297.984 750.331 324.297 750.113 341.233C749.895 358.169 751.729 371.949 743.953 395.14C736.177 418.332 751.611 432.998 747.16 445.804C742.71 458.61 742.363 473.771 742.503 485.267C742.643 496.763 724.899 534.816 722.205 554.08C719.511 573.345 722.943 573.411 722.943 573.411C722.943 573.411 725.896 547.976 729.955 539.565C734.015 531.155 746.448 502.154 749.349 490.935C752.25 479.716 760.107 472.516 766.886 453.517C773.666 434.518 783.305 418.512 782.571 391.55C781.837 364.587 792.702 336.133 765.702 297.984Z" fill="#3C8F7C"/>
<path d="M733.162 555.755C733.162 555.755 740.329 522.36 770.551 519.024C800.773 515.687 818.528 521.666 839.881 497.268C861.235 472.87 873.635 434.16 880.455 427.484C880.455 427.484 869.726 421.948 851.894 438.637C834.061 455.325 821.528 467.962 811.202 477.668C800.876 487.374 792.495 481.048 781.593 487.448C772.455 492.81 760.642 508.314 755.438 516.433C753.755 519.074 751.74 521.488 749.441 523.615C747.349 525.549 744.854 527.918 743.256 529.66C740.056 533.147 730.826 555.862 730.826 555.862L733.162 555.755Z" fill="#3C8F7C"/>
<path d="M722.508 549.865C722.508 549.865 733.162 509.022 726.025 489.035C718.887 469.047 696.556 454.259 697.453 441.704C698.35 429.148 712.691 395.203 701 369.953C701 369.953 696.571 392.487 692.176 397.499C687.78 402.51 657.718 422.727 663.05 449.428C668.383 476.129 697.619 482.366 704.819 490.227C712.019 498.087 721.744 498.076 721.795 503.302C721.847 508.528 723.755 527.53 720.526 546.282L722.508 549.865Z" fill="#3C8F7C"/>
<path d="M734.155 522.533L749.12 479.428C749.12 479.428 757.911 444.756 763.004 415.844C768.097 386.933 765.701 297.984 765.701 297.984C765.701 297.984 750.33 324.297 750.113 341.233C749.895 358.169 751.729 371.949 743.953 395.14C736.177 418.331 751.611 432.998 747.16 445.804C742.71 458.61 742.363 473.77 742.503 485.266C742.643 496.762 724.899 534.815 722.205 554.08C720.729 564.635 721.098 569.421 721.729 571.595C719.323 554.744 734.155 522.533 734.155 522.533Z" fill="#327F6B"/>
<path d="M807.855 496.855C794.506 499.519 782.571 498.611 766.724 510.406C750.877 522.201 741.558 534.797 741.558 534.797C741.558 534.797 734.435 547.526 731.49 554.239C731.066 555.265 730.819 555.877 730.819 555.877L733.155 555.755C733.155 555.755 740.322 522.36 770.543 519.024C800.765 515.687 818.52 521.666 839.874 497.268C861.227 472.87 873.627 434.16 880.447 427.484C880.447 427.484 857.739 445.151 843.704 460.787C829.669 476.424 821.214 494.186 807.855 496.855Z" fill="#327F6B"/>
<path d="M692.176 397.498C687.791 402.514 657.717 422.727 663.05 449.428C668.383 476.129 697.619 482.366 704.819 490.227C712.02 498.087 721.744 498.076 721.796 503.302C721.848 508.528 723.756 527.53 720.526 546.282L721.39 547.847C722.966 540.528 725.154 529.394 725.87 520.906C727.033 507.166 724.807 501.475 720.39 490.345C715.972 479.214 688.526 456.536 681.639 444.615C674.753 432.695 694.903 412.766 699.354 403.145C703.805 393.524 700.967 369.93 700.967 369.93C700.967 369.93 696.556 392.487 692.176 397.498Z" fill="#327F6B"/>
<path d="M763.524 530.132L768.222 518.776C771.868 510.425 781.194 506.439 789.055 509.871C808.87 518.518 817.472 542.588 808.294 563.635L801.577 579.02C798.625 585.759 799.658 593.177 803.629 598.403C807.231 603.153 807.818 609.755 805.319 615.479L801.78 623.598C799.92 627.867 797.157 631.683 793.683 634.783C790.209 637.884 786.104 640.196 781.652 641.56C778.951 642.403 776.465 643.822 774.366 645.718C772.266 647.615 770.603 649.945 769.492 652.547L764.48 664.032C758.944 676.727 744.754 682.791 732.8 677.576L725.98 674.598C714.027 669.379 708.83 654.857 714.374 642.158C723.338 626.975 722.622 615.645 719.444 607.958C717.109 602.254 715.945 596.139 716.02 589.976C716.096 583.812 717.409 577.727 719.884 572.082L720.592 570.458C723.181 564.511 727.007 559.184 731.816 554.832C736.625 550.48 742.306 547.203 748.481 545.219C753.884 543.496 759.527 539.285 763.524 530.132Z" fill="#50BFA5"/>
<path d="M678.93 690.497C688.525 678.03 741.263 611.254 775.622 600.123C813.568 587.841 777.803 636.63 777.803 636.63C777.803 636.63 845.114 563.026 869.818 569.662C892.46 575.744 869.818 621.366 869.818 621.366C869.818 621.366 895.32 596.1 926.247 596.1C956.343 596.1 905.211 685.699 902.457 690.497H678.93Z" fill="#96D9C9"/>
<path d="M881.783 546.02C854.052 589.354 834.071 637.183 822.735 687.367L820.849 686.861C832.298 637.12 852.193 589.71 879.669 546.695C886.05 536.73 892.954 524.895 904.89 521.005C905.118 520.931 905.207 521.282 904.985 521.374C894.073 525.485 887.755 536.697 881.783 546.02Z" fill="#3C8F7C"/>
<path d="M829.364 689.157C861.153 645.906 899.055 607.501 941.883 575.145C942.33 574.809 942.928 575.585 942.481 575.928C900.274 608.357 862.963 646.702 831.7 689.78L829.364 689.157Z" fill="#3C8F7C"/>
<path d="M884.297 519.385C885.005 520.426 887.714 523.142 888.511 526.707C889.582 530.091 888.736 534.328 888.644 534.181C888.441 534.265 891.781 531.442 892.826 526.951C894.177 522.64 893.232 516.665 891.549 514.687C888.648 510.211 883.577 509.757 882.592 511.927C881.547 514.089 882.872 517.016 884.297 519.385Z" fill="#3C8F7C"/>
<path d="M890.892 557.723C889.866 556.985 887.201 554.231 883.651 553.364C880.289 552.231 876.037 552.995 876.181 553.084C876.096 553.287 878.982 550.002 883.496 549.05C887.828 547.784 893.785 548.847 895.73 550.567C900.158 553.556 900.502 558.634 898.313 559.575C896.121 560.59 893.217 559.195 890.892 557.723Z" fill="#3C8F7C"/>
<path d="M880.946 574.525C879.92 573.787 877.255 571.034 873.708 570.171C870.346 569.034 866.091 569.802 866.239 569.886C866.15 570.089 869.04 566.805 873.55 565.853C877.886 564.587 883.843 565.65 885.787 567.37C890.216 570.359 890.559 575.437 888.371 576.378C886.193 577.382 883.285 575.998 880.946 574.525Z" fill="#3C8F7C"/>
<path d="M916.356 613.505C915.33 612.767 912.665 610.01 909.115 609.146C905.753 608.009 901.502 608.777 901.649 608.862C901.561 609.065 904.447 605.78 908.96 604.828C913.293 603.562 919.25 604.625 921.194 606.345C925.623 609.334 925.966 614.412 923.778 615.354C921.608 616.357 918.703 614.973 916.356 613.505Z" fill="#3C8F7C"/>
<path d="M934.458 597.562C933.432 596.824 930.767 594.07 927.217 593.203C923.855 592.067 919.604 592.834 919.747 592.923C919.659 593.126 922.549 589.841 927.062 588.885C931.395 587.623 937.351 588.686 939.296 590.402C943.725 593.391 944.068 598.47 941.88 599.414C939.702 600.414 936.798 599.034 934.458 597.562Z" fill="#3C8F7C"/>
<path d="M870.405 538.399C871.269 539.314 874.373 541.569 875.72 544.968C877.31 548.138 877.144 552.456 877.03 552.323C876.842 552.441 879.695 549.123 880.019 544.525C880.673 540.056 878.798 534.306 876.827 532.616C873.255 528.653 868.176 529.007 867.545 531.302C866.855 533.598 868.627 536.284 870.405 538.399Z" fill="#3C8F7C"/>
<path d="M855.802 557.453C857.031 558.106 861.338 559.298 863.486 562.502C865.929 565.358 866.239 570.252 866.069 570.148C865.84 570.359 869.129 565.432 868.985 560.158C869.291 554.892 866.161 549.279 863.405 548.242C858.301 545.352 851.768 547.928 851.226 550.766C850.624 553.622 853.248 555.859 855.802 557.453Z" fill="#3C8F7C"/>
<path d="M840.438 586.317C841.76 586.752 846.188 587.195 848.856 590.007C851.746 592.413 852.875 597.181 852.698 597.111C852.506 597.355 854.912 591.945 853.894 586.778C853.307 581.534 849.281 576.526 846.387 575.965C840.87 573.98 834.866 577.615 834.814 580.501C834.685 583.409 837.645 585.176 840.438 586.317Z" fill="#3C8F7C"/>
<path d="M885.909 606.423C886.872 607.024 890.297 608.227 891.869 610.966C893.692 613.427 893.666 617.424 893.541 617.332C893.342 617.491 896.298 613.671 896.493 609.375C897.043 605.109 894.818 600.363 892.633 599.359C888.644 596.72 883.186 598.444 882.588 600.721C881.912 603.009 883.916 604.98 885.909 606.423Z" fill="#3C8F7C"/>
<path d="M909.584 526.143C909.008 525.667 907.554 523.928 905.491 523.246C903.55 522.426 901.004 522.692 901.085 522.755C901.026 522.869 902.875 521.054 905.587 520.688C908.208 520.127 911.684 521.017 912.758 522.12C915.242 524.08 915.227 527.098 913.891 527.56C912.555 528.021 910.902 527.113 909.584 526.143Z" fill="#3C8F7C"/>
<path d="M904.07 513.875C904.096 514.614 904.594 516.828 903.864 518.884C903.329 520.921 901.564 522.777 901.564 522.677C901.435 522.655 904.004 522.308 905.949 520.371C907.993 518.64 909.411 515.341 909.193 513.816C909.156 510.653 906.757 508.819 905.576 509.598C904.395 510.377 904.104 512.244 904.07 513.875Z" fill="#3C8F7C"/>
<path d="M947.489 581.323C946.913 580.851 945.459 579.109 943.396 578.43C941.455 577.611 938.908 577.876 938.989 577.935C938.926 578.053 940.779 576.238 943.492 575.869C946.112 575.311 949.589 576.201 950.663 577.301C953.147 579.264 953.132 582.283 951.796 582.744C950.46 583.205 948.807 582.298 947.489 581.323Z" fill="#3C8F7C"/>
<path d="M940.835 568.953C940.924 569.691 941.603 571.868 941.042 573.961C940.673 576.035 939.068 578.02 939.06 577.928C938.931 577.928 941.463 577.348 943.245 575.274C945.135 573.378 946.279 569.979 945.939 568.477C945.644 565.325 943.101 563.679 941.987 564.565C940.872 565.451 940.739 567.318 940.835 568.953Z" fill="#3C8F7C"/>
<path d="M936.207 648.897C908.126 651.975 881.957 664.371 856.791 676.458C839.815 684.61 840.671 686.931 837.232 688.145C837.103 688.187 836.965 688.19 836.835 688.154C836.704 688.119 836.587 688.046 836.497 687.945C836.407 687.845 836.349 687.72 836.328 687.586C836.308 687.453 836.327 687.316 836.383 687.193C837.711 684.558 841.202 682.765 843.627 681.259C846.465 679.506 849.393 677.905 852.399 676.461C858.81 673.35 865.383 670.557 871.915 667.715C885.201 661.939 898.712 656.507 912.75 652.831C920.44 650.789 928.286 649.39 936.207 648.65C936.238 648.648 936.268 648.657 936.291 648.677C936.314 648.697 936.328 648.725 936.331 648.755C936.333 648.786 936.324 648.816 936.304 648.839C936.284 648.862 936.256 648.876 936.226 648.879L936.207 648.897Z" fill="#3C8F7C"/>
<path d="M910.898 640.187C911.079 641.343 912.282 644.686 911.54 647.989C911.101 651.248 908.72 654.466 908.706 654.307C908.499 654.307 912.415 653.248 915.061 649.879C917.891 646.801 919.456 641.42 918.829 639.099C918.165 634.201 914.094 631.821 912.411 633.253C910.728 634.685 910.639 637.641 910.898 640.187Z" fill="#3C8F7C"/>
<path d="M886.157 649.048C886.341 650.2 887.541 653.543 886.799 656.85C886.36 660.109 883.983 663.327 883.964 663.165C883.761 663.165 887.673 662.105 890.32 658.736C893.154 655.658 894.719 650.274 894.091 647.952C893.423 643.055 889.353 640.674 887.67 642.106C885.987 643.538 885.898 646.502 886.157 649.048Z" fill="#3C8F7C"/>
<path d="M861.021 660.253C861.201 661.404 862.401 664.747 861.663 668.054C861.224 671.313 858.843 674.531 858.828 674.368C858.622 674.368 862.537 673.309 865.183 669.94C868.014 666.862 869.579 661.478 868.951 659.156C868.287 654.263 864.213 651.879 862.534 653.311C860.854 654.743 860.762 657.706 861.021 660.253Z" fill="#3C8F7C"/>
<path d="M918.282 663.305C917.773 662.353 916.806 659.22 914.403 657.197C912.259 655.038 908.709 653.998 908.786 654.123C908.642 654.245 912.108 652.835 915.931 653.828C919.737 654.514 923.896 657.607 924.73 659.67C926.97 663.648 925.298 667.675 923.254 667.56C921.209 667.446 919.511 665.324 918.282 663.305Z" fill="#3C8F7C"/>
<path d="M892.548 672.413C892.043 671.46 891.072 668.327 888.67 666.305C886.525 664.146 882.975 663.105 883.053 663.231C882.909 663.352 886.374 661.943 890.201 662.935C894.006 663.622 898.162 666.714 898.996 668.777C901.236 672.756 899.564 676.782 897.519 676.668C895.475 676.553 893.781 674.431 892.548 672.413Z" fill="#3C8F7C"/>
<path d="M937.879 653.927C937.436 653.395 936.403 651.558 934.635 650.605C933.008 649.532 930.642 649.347 930.705 649.417C930.631 649.513 932.624 648.17 935.133 648.288C937.613 648.218 940.632 649.609 941.429 650.794C943.363 653.008 942.846 655.746 941.551 655.942C940.256 656.137 938.92 655.034 937.879 653.927Z" fill="#3C8F7C"/>
<path d="M934.912 641.829C934.808 642.512 934.893 644.619 933.886 646.358C933.055 648.122 931.136 649.52 931.155 649.424C931.04 649.384 933.443 649.487 935.536 648.063C937.687 646.826 939.532 644.058 939.595 642.634C940.09 639.744 938.211 637.67 937.012 638.183C935.812 638.696 935.218 640.342 934.912 641.829Z" fill="#3C8F7C"/>
<path d="M211.651 477.184C178.651 447.76 161.685 405.507 153.264 375.237C144.119 342.392 142.786 316.156 142.775 315.894L140.982 315.783C140.982 316.049 142.329 342.466 151.529 375.544C160.017 406.109 177.178 448.797 210.577 478.583L211.651 477.184Z" fill="#3C8F7C"/>
<path d="M146.532 308.302C148.16 315.868 146.798 323.016 143.329 328.176C137.893 324.175 133.615 317.761 131.991 310.196C130.368 302.63 131.726 295.482 135.195 290.322C140.631 294.323 144.905 300.737 146.532 308.302Z" fill="#3C8F7C"/>
<path d="M136.413 329.848C142.085 335.136 145.406 342.085 146.063 348.773C139.823 349.057 132.955 346.525 127.271 341.237C121.588 335.948 118.263 328.999 117.617 322.308C123.861 322.024 130.726 324.559 136.413 329.848Z" fill="#3C8F7C"/>
<path d="M133.744 352.482C140.617 354.672 146.424 359.348 150.031 365.594C144.905 368.89 138.037 369.834 130.969 367.62C124.096 365.43 118.288 360.752 114.683 354.504C119.809 351.212 126.677 350.264 133.744 352.482Z" fill="#3C8F7C"/>
<path d="M144.624 379.71C150.223 381.478 154.696 385.984 157.231 391.693C152.987 395.258 147.433 396.609 141.834 394.845C136.236 393.081 131.763 388.571 129.227 382.862C133.471 379.297 139.029 377.946 144.624 379.71Z" fill="#3C8F7C"/>
<path d="M154.183 340.849C156.224 338.76 158.713 337.16 161.461 336.17C164.21 335.18 167.147 334.825 170.052 335.132C170.23 338.154 169.775 341.18 168.716 344.016C167.656 346.852 166.016 349.435 163.9 351.6C161.857 353.687 159.368 355.286 156.62 356.276C153.872 357.266 150.935 357.622 148.03 357.316C147.851 354.294 148.306 351.268 149.365 348.432C150.425 345.596 152.066 343.013 154.183 340.849Z" fill="#3C8F7C"/>
<path d="M159.287 360.365C161.329 358.275 163.817 356.676 166.565 355.685C169.314 354.694 172.25 354.339 175.156 354.644C175.339 357.665 174.888 360.69 173.832 363.526C172.777 366.362 171.139 368.946 169.026 371.111C166.984 373.201 164.495 374.8 161.747 375.791C158.999 376.782 156.062 377.137 153.157 376.832C152.973 373.811 153.423 370.785 154.479 367.949C155.535 365.113 157.172 362.53 159.287 360.365Z" fill="#3C8F7C"/>
<path d="M191.763 517.101C161.29 512.672 135.213 494.589 118.691 480.244C100.77 464.655 89.9306 449.922 89.8236 449.775L88.7386 450.398C88.8456 450.546 99.7622 465.389 117.801 481.085C134.471 495.592 160.822 513.827 191.671 518.326L191.763 517.101Z" fill="#50BFA5"/>
<path d="M89.1002 443.91C92.9494 447.682 94.9017 452.362 94.8648 456.691C90.1668 456.451 85.2215 454.362 81.3723 450.59C77.5231 446.819 75.5745 442.139 75.6114 437.806C80.3057 438.065 85.251 440.135 89.1002 443.91Z" fill="#50BFA5"/>
<path d="M91.4843 460.319C96.8208 461.212 101.415 463.972 104.357 467.615C100.84 470.176 95.8686 471.338 90.5432 470.445C85.2178 469.552 80.6083 466.788 77.667 463.146C81.1914 460.577 86.1515 459.426 91.4843 460.319Z" fill="#50BFA5"/>
<path d="M98.618 474.498C103.455 473.133 108.627 473.623 113.122 475.871C111.402 479.753 107.774 482.938 102.814 484.359C97.9785 485.723 92.8078 485.233 88.3141 482.986C90.0487 479.107 93.6617 475.922 98.618 474.498Z" fill="#50BFA5"/>
<path d="M115.391 486.152C119.326 485.045 123.658 485.938 127.319 488.278C126.804 490.128 125.82 491.813 124.462 493.171C123.104 494.528 121.419 495.512 119.569 496.028C115.639 497.135 111.306 496.242 107.645 493.902C108.16 492.053 109.144 490.368 110.501 489.01C111.858 487.652 113.542 486.668 115.391 486.152Z" fill="#50BFA5"/>
<path d="M106.036 459.894C106.421 457.895 107.255 456.009 108.474 454.377C109.693 452.746 111.265 451.412 113.074 450.476C114.337 452.164 115.235 454.097 115.707 456.152C116.18 458.206 116.218 460.337 115.82 462.407C115.434 464.407 114.599 466.294 113.38 467.925C112.16 469.556 110.587 470.89 108.778 471.826C107.513 470.138 106.616 468.205 106.144 466.15C105.671 464.095 105.635 461.964 106.036 459.894Z" fill="#50BFA5"/>
<path d="M116.491 469.279C116.877 467.279 117.711 465.392 118.931 463.76C120.15 462.129 121.724 460.794 123.533 459.857C124.796 461.546 125.693 463.48 126.165 465.535C126.637 467.59 126.675 469.722 126.275 471.793C125.889 473.792 125.055 475.679 123.835 477.31C122.615 478.941 121.042 480.275 119.233 481.211C117.97 479.523 117.074 477.589 116.602 475.535C116.129 473.48 116.092 471.349 116.491 469.279Z" fill="#50BFA5"/>
<path d="M210.113 608.305C174.96 621.649 136.269 614.6 110 606.337C81.4793 597.366 61.0301 585.069 60.8271 584.933L60.0484 586.409C60.2551 586.535 80.8519 598.927 109.557 607.961C136.088 616.309 175.178 623.424 210.762 609.914L210.113 608.305Z" fill="#96D9C9"/>
<path d="M56.5019 577.807C62.6235 580.169 67.5927 584.81 70.3671 590.756C65.2189 593.388 58.6867 593.783 52.3057 591.306C46.1841 588.944 41.215 584.303 38.4405 578.356C43.5887 575.721 50.121 575.33 56.5019 577.807Z" fill="#96D9C9"/>
<path d="M68.9574 597.573C71.9114 596.529 75.051 596.114 78.1747 596.355C81.2984 596.595 84.3373 597.487 87.0963 598.971C85.9362 601.837 84.1744 604.42 81.9302 606.547C79.6859 608.673 77.0113 610.293 74.0872 611.297C71.1349 612.339 67.9979 612.753 64.8766 612.513C61.7553 612.274 58.7182 611.386 55.9594 609.906C57.1179 607.04 58.8776 604.456 61.1199 602.329C63.3622 600.201 66.0348 598.579 68.9574 597.573Z" fill="#96D9C9"/>
<path d="M85.1255 611.478C89.5541 606.525 95.5365 604.056 101.408 604.167C101.668 607.322 101.284 610.497 100.278 613.499C99.2727 616.5 97.6669 619.266 95.5586 621.627C91.13 626.58 85.1514 629.049 79.2798 628.938C79.0182 625.784 79.4015 622.609 80.4065 619.607C81.4115 616.605 83.0172 613.839 85.1255 611.478Z" fill="#96D9C9"/>
<path d="M107.763 618.657C112.192 613.708 118.17 611.239 124.042 611.35C124.303 614.504 123.92 617.679 122.915 620.68C121.91 623.682 120.304 626.448 118.196 628.809C113.768 633.758 107.789 636.227 101.917 636.12C101.656 632.965 102.039 629.789 103.044 626.787C104.049 623.785 105.655 621.018 107.763 618.657Z" fill="#96D9C9"/>
<path d="M86.4652 595.462C82.5717 590.395 80.8371 584.287 81.2505 578.748C86.3766 579.346 91.6171 582.324 95.5069 587.391C99.3967 592.458 101.135 598.565 100.722 604.105C95.5844 603.507 90.355 600.529 86.4652 595.462Z" fill="#96D9C9"/>
<path d="M109.977 602.817C106.014 597.809 104.183 591.723 104.504 586.165C109.631 586.675 114.908 589.564 118.872 594.572C122.835 599.58 124.666 605.67 124.345 611.227C119.204 610.718 113.934 607.829 109.977 602.817Z" fill="#96D9C9"/>
<path d="M137.49 620.624C137.96 619.391 138.701 618.281 139.66 617.375C140.618 616.47 141.769 615.792 143.026 615.394C143.623 616.63 143.961 617.976 144.016 619.348C144.072 620.72 143.846 622.089 143.351 623.369C142.881 624.601 142.14 625.712 141.181 626.617C140.223 627.523 139.072 628.2 137.815 628.599C137.218 627.362 136.882 626.017 136.826 624.645C136.77 623.273 136.996 621.904 137.49 620.624Z" fill="#96D9C9"/>
<path d="M285.554 687.913C285.554 687.913 330.338 510.768 315.488 492.987C294.965 468.39 278.033 549.984 276.368 543.053C260.68 477.605 256.502 393.863 205.879 385.002C177.093 379.961 212.522 447.273 210.393 465.478C208.263 483.683 156.434 423.24 124.931 391.564C93.4292 359.888 77.154 379.946 97.0607 419.764C116.31 458.267 178.581 500.342 165.745 505.336C152.909 510.329 74.984 460.614 65.4403 481.871C53.7414 507.934 170.62 543.4 159.626 549.257C148.632 555.113 92.7502 535.827 94.278 555.756C95.8059 575.684 170.904 574.946 169.62 583.711C167.542 597.905 117.872 565.775 115.687 585.416C113.454 605.504 181.035 601.839 179.865 617.524C179.193 626.529 164.689 612.944 162.553 625.418C157.681 653.853 246.77 688.496 246.77 688.496L285.554 687.913Z" fill="#3C8F7C"/>
<path d="M319.702 688.987C319.702 688.987 277.081 623.639 256.572 611.302C234.717 598.156 251.354 637.504 251.354 637.504C251.354 637.504 206.699 584.361 194.284 595.159C181.869 605.958 193.136 618.461 193.136 618.461C193.136 618.461 153.046 606.581 145.838 621.295C134.767 643.922 200.764 662.674 200.764 662.674C200.764 662.674 172.428 662.371 177.643 677.639C185.511 700.664 319.702 688.987 319.702 688.987Z" fill="#50BFA5"/>
<path d="M145.838 621.306C153.046 606.592 193.136 618.472 193.136 618.472C193.136 618.472 181.869 605.968 194.284 595.17C206.699 584.371 242.423 616.685 242.423 616.685C242.423 616.685 238.677 590.033 265.577 613.512C284.794 630.281 319.702 688.979 319.702 688.979L145.838 621.306Z" fill="#96D9C9"/>
<path d="M267.965 524.91L269.877 523.604C235.186 471.051 224.583 408.655 221.808 365.565C218.796 318.806 224.085 284.052 224.136 283.705L221.767 283.015C221.712 283.384 216.386 318.352 219.409 365.391C222.203 408.847 232.894 471.796 267.965 524.91Z" fill="#96D9C9"/>
<path d="M230.967 275.52C231.045 286.075 227.384 294.803 221.534 300.04C215.268 291.927 211.823 281.991 211.721 271.741C211.648 261.182 215.309 252.454 221.154 247.217C227.424 255.329 230.87 265.268 230.967 275.52Z" fill="#96D9C9"/>
<path d="M212.172 299.25C218.076 308.583 220.516 319.064 219.553 328.058C211.434 325.748 203.259 319.5 197.343 310.166C191.427 300.833 189.003 290.352 189.962 281.358C198.085 283.664 206.259 289.913 212.172 299.25Z" fill="#96D9C9"/>
<path d="M202.691 327.6C211.017 333.479 217.167 341.945 220.184 351.681C212.696 353.773 203.576 352.05 195.088 346.145C186.76 340.268 180.609 331.802 177.595 322.064C185.072 319.968 194.177 321.677 202.691 327.6Z" fill="#96D9C9"/>
<path d="M213.795 377.097C217.447 379.322 220.255 382.698 221.778 386.693C218.73 387.829 214.895 387.431 211.183 385.194C207.531 382.97 204.722 379.595 203.2 375.599C206.248 374.462 210.083 374.879 213.795 377.097Z" fill="#96D9C9"/>
<path d="M216.814 395.432C220.465 397.656 223.272 401.032 224.793 405.027C221.745 406.16 217.914 405.743 214.201 403.529C210.548 401.306 207.739 397.93 206.219 393.934C209.253 392.801 213.098 393.218 216.814 395.432Z" fill="#96D9C9"/>
<path d="M232.134 321.216C238.994 317.326 247.018 317.367 254.133 320.581C252.937 328.504 248.667 335.512 241.807 339.402C234.946 343.292 226.923 343.251 219.807 340.037C221.003 332.11 225.277 325.102 232.134 321.216Z" fill="#96D9C9"/>
<path d="M233.507 348.835C240.367 344.949 248.39 344.99 255.506 348.204C254.314 356.128 250.04 363.136 243.179 367.026C236.319 370.916 228.296 370.871 221.18 367.657C222.372 359.733 226.646 352.721 233.507 348.835Z" fill="#96D9C9"/>
<path d="M232.134 388.368C236.599 385.84 241.821 385.866 246.453 387.959C245.678 393.125 242.895 397.676 238.43 400.207C233.964 402.739 228.742 402.709 224.11 400.617C224.9 395.461 227.679 390.9 232.134 388.368Z" fill="#96D9C9"/>
<path d="M721.81 544.215C725.84 544.872 725.604 545.529 726.121 545.599C726.733 545.68 734.011 542.027 734.011 542.027C734.011 542.027 755.538 531.402 756.678 530.785L772.215 511.226L784.191 516.761C784.191 516.761 766.716 537.543 765.609 538.458C764.502 539.373 733.642 550.197 730.959 551.242C730.959 551.242 728.25 553.714 726.501 555.209C724.752 556.704 722.408 557.294 721.851 557.634C720.347 558.39 718.752 558.95 717.105 559.298C714.754 559.811 716.714 558.213 716.714 558.213C716.714 558.213 720.877 556.456 720.67 556.139C720.511 555.892 718.301 556.992 715.706 557.586C715.038 557.737 714.378 557.888 713.772 558.018C712.178 558.361 711.48 557.449 713.078 556.814C713.797 556.514 714.537 556.267 715.293 556.076C716.064 555.914 716.714 555.508 717.337 555.272C718.056 555.037 718.758 554.756 719.441 554.43C719.375 554.375 719.552 554.098 718.836 554.239C717.98 554.408 716.252 555.18 714.961 555.324C714.223 555.408 712.724 555.693 712.724 555.693C712.724 555.693 710.052 555.947 710.034 555.574C709.997 554.755 711.639 554.301 712.65 554.32C713.366 554.053 714.108 553.866 714.865 553.762C714.865 553.762 717.961 552.537 717.78 552.08C717.71 551.899 715.835 552.179 713.846 552.316C711.743 552.46 710.218 552.46 710.104 552.05C709.927 551.404 711.602 551.161 711.602 551.161C711.602 551.161 713.079 550.947 713.562 550.836C714.127 550.707 715.776 550.183 715.776 550.183C715.776 550.183 721.474 548.09 721.268 547.673C721.061 547.256 720.12 546.37 719.718 546.374C719.315 546.378 718.611 546.776 718.197 546.78C717.784 546.784 716.931 546.702 716.872 546.197C716.813 545.691 719.042 544.647 719.042 544.647C719.042 544.647 720.644 544.027 721.81 544.215Z" fill="#F8A492"/>
<path d="M761.402 523.345C761.402 523.345 765.281 526.866 766.894 528.025C768.233 528.988 774.766 532.136 774.766 532.136C774.766 532.136 781.261 522.172 784.102 517.197C787.549 511.141 789.937 502.14 789.122 501.896C786.833 501.21 783.689 500.789 780.785 502.125C770.732 506.738 761.402 523.345 761.402 523.345Z" fill="#355389"/>
<path d="M725.574 549.415C723.847 549.688 722.083 549.36 721.319 547.78C721.15 549.655 723.988 550.585 725.574 549.415Z" fill="#FE875E"/>
<path d="M243.803 479.62C244.043 473.826 243.19 468.102 240.611 462.71C238.396 458.067 232.894 455.432 227.882 455.429C211.969 455.406 209.946 476.524 199.816 484.669C196.719 487.156 193.258 489.182 190.331 491.869C179.514 501.778 184.386 520.124 194.317 528.815C201.211 534.841 212.031 538.27 220.52 533.553C224.948 531.096 228.318 527.006 230.716 522.522C234.119 516.164 236.315 508.827 238.732 502.047C241.327 494.832 243.482 487.322 243.803 479.62Z" fill="#13375B"/>
<path d="M246.401 507.679C241.43 492.599 234.868 492.836 234.868 492.836L240.172 524.943C243.238 524.105 247.235 522.238 250.302 521.371C249.287 516.603 247.634 511.392 246.401 507.679Z" fill="#F7CC7F"/>
<path d="M271.523 559.114L253.35 545.252C253.35 545.252 251.505 532.317 249.073 520.843C246.006 521.707 243.239 524.113 240.172 524.951L244.792 550.652L268.611 562.941L275.335 571.584L276.866 562.727L271.523 559.114Z" fill="#F48C7F"/>
<path d="M437.172 537.454C442.606 537.449 447.948 538.858 452.672 541.543C453.278 541.883 453.904 542.185 454.547 542.447C468.512 548.182 483.79 537.561 483.79 522.463V448.221H409.563C394.465 448.221 383.844 432.939 389.579 418.977C389.841 418.333 390.143 417.706 390.483 417.099C393.253 412.2 394.659 406.648 394.555 401.022C394.451 395.395 392.84 389.899 389.89 385.106C386.941 380.313 382.761 376.398 377.785 373.77C372.808 371.141 367.219 369.894 361.597 370.159C345.248 370.897 332.073 384.346 331.627 400.706C331.46 406.288 332.786 411.813 335.468 416.711C335.806 417.327 336.104 417.963 336.361 418.616C342.052 432.81 331.261 448.221 315.971 448.221H242.379V617.391C242.379 657.296 274.73 689.644 314.635 689.644H483.805V615.649C483.805 600.477 468.478 589.789 454.425 595.506C453.78 595.766 453.151 596.065 452.543 596.403C448.344 598.753 443.663 600.11 438.859 600.369C434.055 600.628 429.255 599.782 424.828 597.896C420.402 596.011 416.466 593.136 413.324 589.492C410.182 585.848 407.917 581.533 406.703 576.877C405.489 572.222 405.359 567.349 406.321 562.635C407.284 557.921 409.314 553.491 412.257 549.684C415.199 545.877 418.975 542.795 423.294 540.675C427.613 538.555 432.36 537.453 437.172 537.454Z" fill="#F7882F"/>
<path d="M598.082 496.272C598.323 490.838 599.977 485.562 602.879 480.963C603.246 480.369 603.577 479.753 603.868 479.118C610.249 465.437 600.355 449.679 585.276 448.974L511.096 445.505L507.631 519.684C506.926 534.764 491.164 544.658 477.483 538.277C476.848 537.985 476.232 537.655 475.638 537.288C470.873 534.287 465.391 532.619 459.763 532.458C454.135 532.296 448.566 533.647 443.638 536.37C438.709 539.093 434.601 543.088 431.742 547.938C428.882 552.789 427.376 558.318 427.381 563.948C427.381 580.316 440.172 594.092 456.495 595.318C462.07 595.744 467.657 594.671 472.678 592.21C473.311 591.905 473.962 591.638 474.627 591.41C489.071 586.387 503.959 597.886 503.247 613.161L499.807 686.684L668.792 694.585C708.65 696.431 742.481 665.644 744.344 625.783L752.242 456.798L678.328 453.343C663.175 452.635 651.782 467.445 656.835 481.76C657.066 482.417 657.335 483.059 657.643 483.683C659.795 487.987 660.932 492.726 660.966 497.537C661 502.348 659.931 507.103 657.841 511.437C655.751 515.771 652.696 519.568 648.909 522.536C645.123 525.505 640.707 527.566 635.999 528.561C631.292 529.557 626.419 529.46 621.755 528.278C617.091 527.096 612.76 524.861 609.095 521.745C605.429 518.628 602.527 514.713 600.611 510.299C598.695 505.886 597.816 501.092 598.041 496.286L598.082 496.272Z" fill="#F7C331"/>
<path d="M391.431 379.5C391.708 384.933 390.563 390.344 388.11 395.199C387.8 395.821 387.53 396.462 387.301 397.119C382.275 411.353 393.649 426.082 408.706 425.322L482.856 421.594L479.129 347.444C478.391 332.368 493.097 320.99 507.332 326.017C507.988 326.245 508.629 326.515 509.251 326.825C514.285 329.362 519.908 330.499 525.532 330.12C531.157 329.741 536.576 327.858 541.224 324.668C545.872 321.478 549.578 317.099 551.955 311.988C554.332 306.876 555.292 301.22 554.737 295.611C553.161 279.321 539.089 266.847 522.725 267.212C517.134 267.326 511.675 268.934 506.915 271.87C506.321 272.237 505.704 272.567 505.07 272.859C491.182 279.254 475.25 269.249 474.483 253.978L470.792 180.466L301.814 188.955C261.957 190.959 231.274 224.893 233.278 264.747L241.766 433.703L315.668 429.986C330.822 429.226 340.727 413.379 334.309 399.632C334.018 398.997 333.688 398.381 333.32 397.787C330.762 393.712 329.173 389.105 328.673 384.319C328.174 379.534 328.777 374.698 330.438 370.183C332.099 365.668 334.773 361.593 338.254 358.272C341.736 354.951 345.932 352.473 350.52 351.026C355.109 349.58 359.968 349.205 364.724 349.93C369.481 350.654 374.008 352.459 377.957 355.206C381.907 357.954 385.175 361.569 387.509 365.776C389.844 369.983 391.183 374.669 391.424 379.474L391.431 379.5Z" fill="#00B19F"/>
<path d="M543.2 338.576C537.76 338.584 532.412 337.175 527.682 334.487C527.077 334.146 526.451 333.844 525.807 333.582C511.846 327.847 496.563 338.469 496.563 353.567V427.809H570.809C585.903 427.809 596.525 443.091 590.79 457.056C590.528 457.7 590.226 458.326 589.885 458.931C587.111 463.831 585.701 469.385 585.803 475.015C585.905 480.645 587.515 486.144 590.465 490.94C593.416 495.736 597.599 499.653 602.578 502.282C607.557 504.911 613.15 506.157 618.775 505.889C635.12 505.151 648.299 491.703 648.742 475.343C648.909 469.753 647.578 464.22 644.885 459.318C644.549 458.702 644.251 458.067 643.992 457.414C638.301 443.22 649.092 427.809 664.386 427.809H737.989V258.639C737.989 218.733 705.627 186.371 665.733 186.371H496.563V260.366C496.563 275.538 511.894 286.226 525.944 280.509C526.59 280.249 527.22 279.949 527.829 279.612C532.027 277.265 536.707 275.91 541.51 275.653C546.313 275.396 551.11 276.243 555.535 278.128C559.959 280.014 563.893 282.889 567.033 286.532C570.174 290.174 572.438 294.488 573.651 299.142C574.865 303.796 574.996 308.667 574.034 313.379C573.072 318.092 571.043 322.521 568.103 326.327C565.162 330.133 561.389 333.215 557.072 335.336C552.755 337.456 548.01 338.56 543.2 338.561V338.576Z" fill="#184655"/>
<path d="M194.059 666.172C194.059 666.172 192.951 673.966 191.006 676.48C190.361 677.325 189.161 678.391 188.401 679.919C187.19 682.292 187.858 685.824 188.752 687.776C189.209 688.776 188.718 688.773 189.763 689.097C191.264 689.538 192.874 689.413 194.289 688.747C195.705 688.08 196.826 686.918 197.443 685.481C198.355 683.38 198.865 681.127 198.949 678.838C199.277 671.759 201.473 668.161 201.473 668.161L194.059 666.172Z" fill="#F7A491"/>
<path d="M227.801 669.737C227.801 669.737 228.495 678.524 227.93 681.381C227.631 682.912 225.956 686.06 226.723 687.5C227.491 688.939 228.369 689.297 228.369 689.297L248.298 689.622C249.383 689.622 248.667 688.939 247.789 688.293C246.357 687.238 245.206 686.54 240.629 684.322C240.33 684.178 239.245 683.484 238.854 683.244C237.791 682.541 236.831 681.692 236.001 680.724C234.573 679.126 234.448 671.387 234.448 671.387L227.801 669.737Z" fill="#F7A491"/>
<path d="M243.371 552.91C243.371 552.91 245.877 567.177 244.231 576.529C242.585 585.881 234.68 672.604 234.68 672.604L225.897 673.099C225.897 673.099 224.051 636.876 224.384 631.839C224.716 626.801 227.336 618.372 227.336 618.372L226.465 589.125L237.537 550.703L243.371 552.91Z" fill="#355389"/>
<path d="M217.552 549.906C217.552 549.906 210.636 560.343 208.987 568.979C207.337 577.615 210.197 604.153 207.027 615.479C205.315 621.602 198.812 631.065 197.827 638.981C196.841 646.897 192.963 667.616 192.963 667.616L201.742 669.361L222.147 617.576L238.153 570.769L242.257 546.662L217.552 549.906Z" fill="#466EB6"/>
<path d="M223.151 490.537C223.151 490.537 213.995 489.953 210.371 493.91C206.747 497.866 218.409 529.18 219.066 534.217C219.722 539.255 215.707 552.648 215.707 552.648C215.707 552.648 237.223 556.988 243.386 552.91C243.386 552.91 244.043 516.684 243.386 513.086C242.729 509.487 237.238 494.854 235.916 493.415C234.595 491.976 223.151 490.537 223.151 490.537Z" fill="#F7CC7F"/>
<path d="M226.199 478.292C226.199 478.292 226.151 478.561 226.066 479.03C225.661 481.244 224.088 488.559 223.026 490.57C221.741 493.006 227.421 500.76 232.887 499.796C234.51 499.512 231.51 492.67 231.654 491.943C231.931 490.555 232.303 488.662 232.687 486.721C232.905 485.614 233.123 484.506 233.329 483.469L234.389 478.078L226.199 478.292Z" fill="#F7A491"/>
<path d="M226.066 479C226.151 478.542 226.199 478.262 226.199 478.262L234.389 478.055L233.329 483.458C233.123 484.495 232.905 485.602 232.691 486.691C231.225 486.429 229.867 485.745 228.783 484.724C227.429 483.531 226.411 482.004 225.83 480.295C225.919 479.79 226.004 479.343 226.066 479Z" fill="#F47458"/>
<path d="M231.713 459.614C231.713 459.614 227.853 459.167 225.439 462.304C223.025 465.441 220.413 475.14 226.424 480.414C232.436 485.687 238.374 479.716 239.253 473.402C240.131 467.087 240.47 459.385 231.713 459.614Z" fill="#F7A491"/>
<path d="M241.024 473.295C240.308 474.693 239.101 475.468 238.334 475.025C237.566 474.583 237.525 473.088 238.241 471.704C238.957 470.32 240.164 469.534 240.932 469.977C241.7 470.42 241.729 471.896 241.024 473.295Z" fill="#F7A491"/>
<path d="M232.134 458.577C232.134 458.577 226.967 467.803 223.276 468.227C219.586 468.652 219.102 473.553 219.102 473.553C219.102 473.553 220.42 462.26 224.074 460.082C227.727 457.905 232.134 458.577 232.134 458.577Z" fill="#13375B"/>
<path d="M198.041 683.923C193.243 684.798 190.069 681.993 188.416 679.893C187.198 682.27 186.604 685.82 187.501 687.776C188.287 689.5 190.59 689.448 192.402 689.518C194.321 689.588 195.804 688.522 196.753 686.846C197.28 685.918 197.712 684.939 198.041 683.923Z" fill="#F47458"/>
<path d="M238.843 683.244C233.573 684.599 229.68 683.676 227.502 682.798C226.941 684.392 226.196 686.396 226.591 687.548C227.074 688.961 227.764 689.282 228.369 689.297C233.167 689.426 245.995 689.596 249.667 689.644C249.782 689.644 249.894 689.612 249.99 689.551C250.087 689.49 250.164 689.402 250.213 689.299C250.262 689.196 250.28 689.08 250.266 688.967C250.252 688.853 250.205 688.746 250.132 688.658C249.221 687.57 239.234 683.484 238.843 683.244Z" fill="#F47458"/>
<path d="M224.266 470.541C224.565 472.18 223.963 473.682 222.919 473.896C221.874 474.11 220.782 472.959 220.483 471.313C220.184 469.667 220.785 468.172 221.83 467.958C222.874 467.744 223.967 468.907 224.266 470.541Z" fill="#F7A491"/>
<path d="M230.288 476.217L234.946 476.428C234.946 476.428 234.758 478.192 232.709 478.159C230.207 478.118 230.288 476.217 230.288 476.217Z" fill="white"/>
<path d="M627.388 104.907C627.971 104.929 629.558 105.46 631.883 109.852C634.835 115.462 639.186 132.401 639.186 132.401L626.24 137.221L624.576 133.685L621.838 106.464C621.838 106.464 627.215 104.899 627.388 104.907Z" fill="#DD513A"/>
<path d="M610.261 102.464C613.951 102.464 623.122 103.549 627.374 104.907C627.374 104.907 630.5 131.748 624.562 152.145C623.237 156.711 625.669 171.07 625.669 171.07L587.309 170.565C587.309 170.565 591.856 135.848 590.143 130.238C588.431 124.629 588.39 105.088 588.39 105.088C588.39 105.088 588.653 105.047 597.008 103.611C601.39 102.89 605.82 102.507 610.261 102.464Z" fill="#F47458"/>
<path d="M605.791 220.892C605.791 220.892 606.64 230.687 608.201 233.4C609.762 236.112 608.12 240.722 608.039 241.356C607.958 241.991 604.754 242.892 599.661 242.349C594.569 241.807 594.65 240.633 595.063 238.732C595.477 236.832 598.182 234.392 598.348 232.584C598.514 230.776 596.787 224.269 596.787 224.269L605.791 220.892Z" fill="#F7A491"/>
<path d="M621.332 162.988C621.332 162.988 647.811 161.512 653.727 165.099C659.643 168.686 649.531 186.253 649.531 186.253C649.531 186.253 631.108 185.404 595.019 187.489C586.472 187.98 585.734 165.206 587.332 163.32C588.93 161.434 621.332 162.988 621.332 162.988Z" fill="#E0973F"/>
<path d="M599.027 243.109C593.783 242.552 594.432 239.976 594.853 238.02C595.119 236.795 596.624 235.352 597.521 233.99C597.99 234.359 598.75 235.02 601.027 235.695C603.393 236.393 606.633 235.009 608.699 234.145C609.235 236.357 609.47 238.631 609.397 240.906C609.305 241.559 604.267 243.67 599.027 243.109Z" fill="#DD513A"/>
<path d="M601.924 181.943C602.983 189.947 608.22 229.801 608.22 229.801L596.067 231.307C596.067 231.307 581.12 179.271 581.888 171.332C582.656 163.394 588.247 162.708 588.247 162.708C588.247 162.708 599.119 160.74 601.924 181.943Z" fill="#F7CC7F"/>
<path d="M587.966 108.069C591.549 106.726 593.306 139.04 593.79 152.356C600.141 152.968 611.212 152.356 613.966 152.153C615.265 152.057 618.254 150.961 619.542 150.795C620.588 150.613 621.653 150.563 622.712 150.643C622.948 150.684 629.569 153.393 630.134 153.987C630.839 154.725 632.717 156.57 632.415 157.382C632.112 158.194 628.765 155.146 628.765 155.146L627.137 154.231C629.163 156.212 633.042 158.818 632.474 159.766C631.905 160.715 628.444 158.047 625.956 156.246C628.089 158.168 630.754 161.615 630.126 162.15C629.577 162.634 626.565 158.644 623.347 157.497C622.155 157.072 620.963 158.235 620.025 158.393C619.335 158.497 618.272 158.718 617.593 158.526L614.11 157.541C612.921 157.648 612.892 158.349 611.692 158.604C610.301 158.899 608.002 159.213 606.245 159.645C596.033 162.139 592.631 163.298 589.505 163.298C580.039 163.276 579.489 111.251 587.966 108.069Z" fill="#F7A491"/>
<path d="M581.157 138.395C580.485 124.769 580.585 107.977 588.224 105.113C591.236 103.98 596.55 110.778 595.606 138.671C591.516 139.022 585.53 139.295 581.157 138.395Z" fill="#DD513A"/>
<path d="M641.335 229.27C641.335 229.27 640.272 232.669 642.173 234.92C644.073 237.171 651.96 239.375 652.997 240.592C654.034 241.81 653.96 242.836 653.96 242.836L631.817 242.227L632.061 235.536L633.079 230.739L641.335 229.27Z" fill="#F7A491"/>
<path d="M643.549 236.042C643.549 236.042 637.858 238.341 635.109 236.979C632.36 235.618 632.444 235.237 631.647 235.747C630.85 236.256 630.57 242.526 630.57 242.526L655.469 243.264C657.204 243.224 658.078 241.947 656.672 240.854C655.811 240.246 654.902 239.707 653.956 239.242C652.008 238.116 643.549 236.042 643.549 236.042Z" fill="#DD513A"/>
<path d="M640.494 169.266C642.206 165.664 646.099 160.973 652.949 163.796C659.481 166.49 661.234 173.111 659.175 179.891C657.115 186.67 643.542 226.528 643.069 232.008L632.234 232.078C632.234 232.078 634.205 200.521 634.688 192.892C635.139 185.552 637.53 175.499 640.494 169.266Z" fill="#F7CC7F"/>
<path d="M658.082 132.556H621.852C621.383 132.558 620.924 132.699 620.535 132.962C620.146 133.224 619.844 133.597 619.668 134.032L608.519 161.324H588.549C588.416 161.324 588.285 161.351 588.162 161.402C588.04 161.453 587.929 161.528 587.835 161.622C587.742 161.717 587.668 161.828 587.617 161.951C587.567 162.074 587.541 162.206 587.542 162.339C587.542 162.606 587.648 162.863 587.837 163.052C588.025 163.242 588.282 163.349 588.549 163.35H645.383C646.149 163.349 646.898 163.127 647.54 162.71C648.182 162.293 648.689 161.698 649 160.999L660.23 135.903C660.393 135.543 660.464 135.148 660.435 134.754C660.407 134.359 660.28 133.979 660.066 133.646C659.853 133.313 659.559 133.039 659.213 132.849C658.866 132.658 658.478 132.558 658.082 132.556Z" fill="black"/>
<path d="M638.582 148.447C638.338 149.673 637.271 150.492 636.201 150.293C635.131 150.093 634.463 148.909 634.707 147.684C634.95 146.458 636.02 145.639 637.091 145.838C638.161 146.038 638.829 147.222 638.582 148.447Z" fill="white"/>
<path d="M618.871 69.6808C617.777 69.3199 616.707 68.8909 615.667 68.3965C614.493 67.8318 612.973 67.1675 612.013 67.0199C609.991 66.7062 606.518 66.9166 604.599 68.9943C602.211 71.5777 597.956 69.463 598.823 83.0367C599.79 98.4003 608.334 96.7138 608.541 96.4517C608.747 96.1897 616.158 86.6239 616.158 86.6239C616.158 86.6239 618.741 92.2925 618.741 92.0859C618.741 91.8792 631.979 74.0946 618.871 69.6808Z" fill="#0E2E35"/>
<path d="M612.383 97.5884L613.121 103.076C613.121 103.076 614.774 110.985 612.649 112.509C610.523 114.033 603.61 102.851 603.61 102.851L604.348 88.9415L612.383 97.5884Z" fill="#F7A491"/>
<path d="M604.105 93.4514C605.861 98.1937 610.043 101.12 612.995 102.227L612.368 97.5737L604.341 88.9415L604.105 93.4514Z" fill="#F47458"/>
<path d="M611.947 73.8104C613.002 73.6482 614.08 73.7187 615.105 74.0171C616.13 74.3156 617.077 74.8346 617.881 75.5379C618.684 76.2412 619.323 77.1117 619.754 78.0883C620.186 79.065 620.398 80.1241 620.376 81.1915C620.322 83.5494 620.116 85.9014 619.76 88.233C618.782 94.5696 614.457 100.15 611.6 99.6514C608.744 99.1532 601.547 93.6875 602.813 84.6716C603.596 79.1174 607.223 74.567 611.947 73.8104Z" fill="#F7A491"/>
<path d="M604.799 85.7603C604.559 87.1553 603.44 88.1222 602.304 87.9266C601.167 87.731 600.459 86.4504 600.687 85.0443C600.916 83.6383 602.042 82.6824 603.178 82.878C604.315 83.0736 605.038 84.369 604.799 85.7603Z" fill="#F7A491"/>
<path d="M603.179 82.878C603.179 82.878 606.637 83.7379 607.917 81.5162C609.198 79.2945 613.789 74.5042 619.616 76.4823C625.443 78.4604 614.486 71.6477 614.021 71.6477L607.958 71.6071C607.958 71.6071 603.644 75.1574 603.489 75.5486C603.334 75.9398 602.086 80.1876 602.086 80.1876L603.179 82.878Z" fill="#0E2E35"/>
<path d="M609.504 92.156L615.778 93.3554C615.778 93.3554 615.176 95.7247 612.397 95.2781C609.021 94.7319 609.504 92.156 609.504 92.156Z" fill="white"/>
<path d="M503.117 530.025C503.266 530.608 503.496 531.167 503.8 531.686C505.771 535.277 510.347 540.399 510.347 540.399L513.89 532.424C513.89 532.424 513.311 529.918 512.31 526.338C508.893 527.231 505.634 527.744 503.117 530.025Z" fill="#F8A492"/>
<path d="M523.412 523.109C523.412 523.109 503.667 531.597 503.029 531.449C502.619 531.342 494.932 518.477 494.847 506.376C494.81 500.789 500.615 494.065 507.088 495.397C510.351 496.065 510.299 496.973 515.123 503.981C519.946 510.989 523.412 523.109 523.412 523.109Z" fill="#13375B"/>
<path d="M540.262 675.539L539.794 683.289C539.62 684.274 538.941 686.707 538.941 687.603C538.941 690.966 554.907 684.747 551.33 683.256C551.006 683.123 549.308 682.104 549.201 680.96C549.039 679.196 548.622 675.627 548.622 675.627L540.262 675.539Z" fill="#F7A491"/>
<path d="M551.29 683.244C551.29 683.244 547.54 684.27 545.621 684.529C543.702 684.787 541.17 682.621 539.812 683.208C538.336 683.85 538.377 689.644 538.377 689.644C538.377 689.644 558.475 691.293 564.129 689.588C566.37 688.909 558.952 685.64 551.29 683.244Z" fill="#DD513A"/>
<path d="M507.605 675.539C507.605 675.539 507.137 683.289 507.133 683.289C506.963 684.274 506.284 686.707 506.284 687.603C506.284 690.966 522.249 684.747 518.669 683.256C518.348 683.123 516.149 681.34 516.042 680.196C515.876 678.436 515.964 675.627 515.964 675.627L507.605 675.539Z" fill="#F7A491"/>
<path d="M518.632 683.244C518.632 683.244 514.883 684.27 512.964 684.529C511.045 684.787 508.513 682.621 507.155 683.208C505.679 683.85 505.601 689.644 505.601 689.644C505.601 689.644 525.792 691.566 531.472 689.588C533.675 688.817 526.294 685.64 518.632 683.244Z" fill="#DD513A"/>
<path d="M512.484 534.324L526.545 514.624C526.604 514.455 526.733 514.1 526.914 513.562C527.622 511.606 529.095 507.539 530.379 503.494V503.45C530.785 502.036 531.638 499.571 532.464 497.176C533.383 494.522 534.524 491.23 534.564 490.669C534.531 490.573 534.465 490.4 534.376 490.171C533.859 488.835 533.162 485.647 532.9 484.266C532.745 483.384 532.586 481.236 533.638 481.236C535.284 481.236 534.501 483.381 535.262 484.717C535.741 483.256 536.122 481.766 536.402 480.255L536.679 476.066C536.73 475.752 536.395 473.442 537.553 473.442H537.609C538.646 473.52 538.624 475.974 539.056 480.129C539.192 479.65 539.329 479.074 539.425 478.546C539.495 477.807 539.618 477.075 539.794 476.354C539.587 475.195 539.709 473.368 540.941 473.542C541.558 473.627 541.506 476.177 541.506 476.177C541.506 476.524 541.465 479.218 541.484 479.753C541.609 478.849 542.104 474.992 543.071 474.992C543.872 474.992 543.938 476.029 543.92 476.837C543.92 477.321 543.407 481.498 543.381 482.004C543.75 481.369 544.204 477.69 544.58 477.69C546.141 477.69 545.577 482.923 545.001 484.285C544.928 484.527 544.869 484.774 544.824 485.023C544.59 486.385 544.138 487.699 543.484 488.916C542.502 490.596 541.148 493.267 540.941 493.677C540.79 494.511 540.318 497.512 539.727 501.287C539.473 502.9 539.196 504.671 538.908 506.505C538.853 506.904 538.561 508.166 537.432 512.901C535.911 519.381 535.753 519.662 535.686 519.78C535.025 520.95 519.865 541.536 519.219 542.414L518.85 542.931L512.484 534.324Z" fill="#F7A491"/>
<path d="M538.635 488.385C538.635 488.385 537.495 485.466 535.465 485.458C535.82 485.347 536.197 485.323 536.563 485.387C536.93 485.451 537.276 485.602 537.572 485.828C538.547 486.591 538.635 488.385 538.635 488.385Z" fill="#F47458"/>
<path d="M509.089 482.746L507.277 494.186C507.277 494.186 514.174 499.722 518.193 498.556C521.566 497.578 519.256 493.168 519.256 493.168C519.256 493.168 517.459 487.056 518.009 483.853C518.559 480.65 509.089 482.746 509.089 482.746Z" fill="#F7A491"/>
<path d="M510.399 486.204C512.88 487.315 515.509 488.061 518.204 488.418C517.95 486.813 517.806 485.119 518.02 483.868C518.275 482.391 516.392 482.041 514.296 482.093C511.547 482.325 509.1 482.757 509.1 482.757L508.731 484.971C509.206 485.481 509.772 485.899 510.399 486.204Z" fill="#FE875E"/>
<path d="M500.383 469.541C500.099 469.541 503.11 482.329 507.764 484.528C512.418 486.728 519.371 485.584 520.681 482.137C522.124 478.328 516.865 465.282 510.31 463.625C503.756 461.968 500.383 469.541 500.383 469.541Z" fill="#F7A491"/>
<path d="M505.775 457.791C503.131 459.327 501.032 461.649 499.77 464.433C498.024 465.264 495.91 467.054 494.895 471.888C493.648 477.826 498.084 482.406 502.785 483.783C507.487 485.159 508.214 488.27 508.214 488.27L508.749 484.923C508.749 484.923 507.701 482.008 506.129 480.546C504.557 479.085 506.867 476.963 507.077 475.228C507.236 473.892 506.251 471.298 506.465 469.106C506.465 469.106 509.078 465.146 511.654 464.168C516.045 462.492 510.55 455.041 505.775 457.791Z" fill="#13375B"/>
<path d="M507.756 477.446C508.365 478.923 508.125 480.399 507.199 480.724C506.273 481.048 505.048 480.126 504.439 478.649C503.83 477.173 504.07 475.697 504.996 475.372C505.922 475.047 507.147 475.97 507.756 477.446Z" fill="#F7A491"/>
<path d="M525.113 534.638L552.235 530.21C552.235 530.21 549.149 522.46 548.046 522.46C546.942 522.46 527.537 530.948 527.537 530.948L525.995 534.044L525.113 534.638Z" fill="#F8A492"/>
<path d="M511.222 553.235C511.222 553.235 508.517 566.314 509.617 576.234C510.716 586.154 510.809 621.38 510.809 621.38L506.598 677.749L516.562 677.967C516.562 677.967 528.401 621.624 528.18 623.07C527.958 624.517 532.173 583.401 532.173 583.401L518.06 551.995L511.222 553.235Z" fill="#184655"/>
<path d="M513.868 552.615C513.868 552.615 512.104 564.391 514.307 569.558C516.51 574.725 533.221 625.407 533.442 629.536C533.664 633.666 539.218 679.358 539.218 679.358L550.825 679.034L553.338 628.252L548.079 564.428L542.975 548.289L513.868 552.615Z" fill="#13375B"/>
<path d="M507.277 494.19C507.277 494.19 510.141 496.069 512.812 495.851C515.484 495.633 519.26 493.172 519.26 493.172L518.732 491.393C518.732 491.393 511.827 490.385 511.654 490.496C511.48 490.607 507.277 494.19 507.277 494.19Z" fill="#F7A491"/>
<path d="M537.786 522.065C537.786 522.065 548.046 531.749 552.677 530.095C557.309 528.442 559.224 522.792 547.924 514.525C537.812 507.126 537.786 522.065 537.786 522.065Z" fill="#F8A492"/>
<path d="M544.739 534.018C543.215 525.729 532.169 499.929 531.287 495.176C530.859 492.865 524.899 492.814 519.227 493.116C513.233 493.434 507.277 494.19 507.277 494.19C507.277 494.19 501.97 495.065 499.637 497.25C497.305 499.435 496.685 505.487 500.036 516.972C502.686 526.039 505.97 531.018 507.598 537.639C507.926 539.853 508.207 542.038 508.583 544.592C509.177 554.467 508.583 567.51 508.583 567.51C508.583 567.51 537.469 573.503 548.275 564.41C548.267 564.391 546.3 542.506 544.739 534.018Z" fill="#355389"/>
<path d="M552.102 516.193C552.102 516.193 540.768 525.548 540.108 525.548C539.683 525.548 523.932 513.964 520.297 504.446C518.289 499.183 522.511 493.297 527.309 493.315C530.649 493.315 532.132 494.19 538.749 499.766C545.367 505.343 552.102 516.193 552.102 516.193Z" fill="#466EB6"/>
<path d="M352.71 98.5369C354.555 94.0676 356.456 89.591 361.276 87.3251C365.177 85.4798 369.251 86.1847 372.717 88.8013C382.537 96.1823 373.979 104.32 385.157 118.325C388.63 122.677 392.834 126.19 394.915 131.286C397.827 138.424 394.358 141.849 388.796 145.27C362.191 161.619 348.245 128.061 348.754 120.359C349.123 114.646 351.514 101.427 352.71 98.5369Z" fill="#13375B"/>
<path d="M325.098 185.578C326.205 185.401 328.943 183.448 329.896 183.271C330.634 183.135 332.254 182.902 332.94 182.788C333.782 179.643 338.055 162.516 338.531 157.493C339.052 152.053 342.897 128.519 342.897 128.519L352.862 130.331C352.862 130.331 348.732 148.436 347.588 157.216C346.606 164.756 338.336 181.71 337.284 183.5C337.284 183.544 337.284 183.585 337.284 183.629C337.125 186.29 335.845 185.404 335.845 185.404L333.76 185.936C333.76 185.936 326.379 186.644 325.906 186.821C325.434 186.999 323.976 185.755 325.098 185.578Z" fill="#F7A491"/>
<path d="M351.596 114.775C344.554 117.163 340.55 136.306 340.55 136.306C340.55 136.306 351.596 139.387 354.426 137.782C354.426 137.782 357.641 123.54 358.792 124.038L351.596 114.775Z" fill="#6A97CE"/>
<path d="M297.124 218.652C295.681 222.491 294.553 226.44 293.751 230.462C293.703 230.783 294.153 232.307 294.12 232.676C289.794 238.581 283.576 239.865 278.25 240.242C280.963 237.592 284.952 235.075 285.144 234.237C286.451 229.136 287.37 223.944 287.894 218.704C291.204 220.228 293.452 219.01 297.124 218.652Z" fill="#F7A491"/>
<path d="M358.408 155.079L367.945 181.884C367.945 181.884 352.651 184.762 346.935 185.81C341.218 186.858 309.291 188.253 308.465 188.822C307.863 189.243 301.264 210.596 298.316 222.35C294.972 223.088 289.248 222.203 286.203 221.154C287.849 204.315 293.791 177.64 295.695 174.735C298.773 170.008 358.408 155.079 358.408 155.079Z" fill="#256653"/>
<path d="M321.234 230.403C320.532 234.446 320.161 238.541 320.127 242.644C320.127 242.965 320.865 244.397 320.891 244.729C317.746 251.336 311.882 253.768 306.719 255.137C308.889 252.022 312.336 248.808 312.369 247.948C312.696 242.691 312.626 237.417 312.159 232.171C315.709 233.056 317.691 231.444 321.234 230.403Z" fill="#F7A491"/>
<path d="M369.517 156.478L373.207 162.781C374.526 165.039 375.338 167.556 375.59 170.159C375.842 172.761 375.526 175.387 374.665 177.855C373.804 180.324 372.417 182.576 370.602 184.458C368.786 186.339 366.584 187.804 364.147 188.752L363.981 188.818C358.564 190.918 327.445 198.277 326.759 198.985C326.246 199.51 323.766 221.712 323.068 233.824C319.92 235.171 314.133 235.378 310.945 234.931C309.406 218.084 310.244 190.767 311.568 187.556C313.739 182.312 369.517 156.478 369.517 156.478Z" fill="#327F6B"/>
<path d="M319.658 242.836C320.485 241.921 323.526 246.959 324.286 248.033C325.142 249.239 324.899 250.151 324.795 250.339C324.526 250.837 308.487 260.274 304.575 260.946C304.162 260.968 303.753 260.86 303.405 260.636C301.877 259.281 308.911 249.287 312.07 247.977C314.115 247.121 315.931 246.944 319.658 242.836Z" fill="#13375B"/>
<path d="M293.241 230.657C294.227 229.919 296.267 235.433 296.814 236.629C297.426 237.976 297.017 238.843 296.88 238.994C296.511 239.434 278.999 245.696 275.032 245.637C274.616 245.585 274.228 245.4 273.925 245.11C272.678 243.497 281.461 234.998 284.812 234.3C286.989 233.828 288.805 233.997 293.241 230.657Z" fill="#13375B"/>
<path d="M358.272 114.709C358.03 114.692 357.792 114.643 357.563 114.561C356.253 114.329 353.397 113.985 351.171 114.93C348.466 116.074 344.27 126.74 344.528 137.686C344.628 139.361 344.731 140.86 344.816 141.904C345.499 150.175 347.872 165.693 348.001 165.778C351.227 167.856 370.702 159.799 372.041 158.028C373.381 156.257 374.171 134.778 374.82 133.689L376.101 114.993C373.85 114.318 361.734 114.683 358.272 114.709Z" fill="#9BC1F9"/>
<path d="M366.166 107.822C366.166 107.822 364.911 114.31 365.162 116.868C365.413 119.425 364.206 127.67 358.792 127.692C353.378 127.714 357.763 117.211 358.272 114.705C358.781 112.199 358.903 104.442 358.903 104.442L366.166 107.822Z" fill="#F7A491"/>
<path d="M358.792 108.335C358.877 106.209 358.903 104.442 358.903 104.442L366.166 107.822C366.166 107.822 365.908 109.147 365.649 110.837C362.472 111.476 360.169 110.302 358.792 108.335Z" fill="#F47458"/>
<path d="M368.82 89.9232C370.638 91.0572 371.993 92.8029 372.639 94.8464C373.665 98.2121 372.499 106.892 365.258 108.988C358.017 111.085 354.899 104.209 356.401 98.8358C357.903 93.4624 361.128 86.6461 368.82 89.9232Z" fill="#F7A491"/>
<path d="M355.497 96.7433C355.637 98.1863 356.434 99.2898 357.275 99.2086C358.117 99.1274 358.682 97.8874 358.541 96.4444C358.401 95.0014 357.604 93.8979 356.762 93.9791C355.921 94.0603 355.353 95.3003 355.497 96.7433Z" fill="#F7A491"/>
<path d="M367.971 89.484C367.971 89.484 369.281 99.1679 372.399 100.925C375.518 102.681 374.219 106.97 374.219 106.97C374.219 106.97 377.061 97.0053 374.588 93.7872C372.115 90.569 367.971 89.484 367.971 89.484Z" fill="#13375B"/>
<path d="M370.558 102.309C369.709 103.571 369.713 105.058 370.558 105.63C371.403 106.202 372.772 105.63 373.639 104.386C374.507 103.143 374.488 101.637 373.639 101.065C372.791 100.493 371.407 101.046 370.558 102.309Z" fill="#F7A491"/>
<path d="M360.029 102.847L365.121 104.128C365.121 104.128 364.509 106.062 362.254 105.564C359.501 104.958 360.029 102.847 360.029 102.847Z" fill="white"/>
<path d="M385.32 184.77L407.282 183.663C407.282 183.663 398.27 190.139 398.085 190.139C397.901 190.139 390.907 187.379 390.601 187.379C390.295 187.379 385.32 184.77 385.32 184.77Z" fill="#50BFA5"/>
<path d="M825.026 675.856C825.026 675.856 825.455 683.473 825.458 683.488C825.617 684.455 826.241 686.847 826.241 687.725C826.241 691.046 811.586 684.92 814.87 683.459C815.165 683.326 816.715 682.322 816.823 681.2C816.974 679.466 817.354 675.963 817.354 675.963L825.026 675.856Z" fill="#F7A491"/>
<path d="M814.73 683.484C816.441 683.992 818.177 684.413 819.93 684.747C821.694 684.998 824.016 682.872 825.263 683.447C826.636 684.079 826.581 689.769 826.581 689.769C826.581 689.769 808.128 691.39 802.961 689.714C800.887 689.057 807.696 685.843 814.73 683.484Z" fill="#F7CC7F"/>
<path d="M849.429 675.461C849.429 675.461 849.861 683.078 849.864 683.093C850.019 684.06 850.643 686.452 850.643 687.33C850.643 690.633 835.987 684.525 839.272 683.064C839.571 682.931 841.59 681.181 841.686 680.056C841.837 678.325 841.759 675.568 841.759 675.568L849.429 675.461Z" fill="#F7A491"/>
<path d="M839.309 683.031C841.021 683.54 842.758 683.961 844.513 684.293C846.273 684.548 848.599 682.422 849.842 682.994C851.215 683.629 851.27 689.319 851.27 689.319C851.27 689.319 832.95 690.057 827.522 689.264C825.388 688.946 832.275 685.385 839.309 683.031Z" fill="#F7CC7F"/>
<path d="M845.085 554.464C845.085 554.464 847.569 567.314 846.561 577.061C845.554 586.808 845.454 621.417 845.454 621.417L850.122 676.775L840.158 677.008C840.158 677.008 829.293 621.65 829.492 623.074C829.691 624.499 825.85 584.099 825.85 584.099L838.804 553.242L845.085 554.464Z" fill="#355389"/>
<path d="M841.608 546.167C841.608 546.167 852.86 558.018 848.675 570.96C846.993 576.16 831.33 625.831 831.112 629.89C830.895 633.95 825.809 678.823 825.809 678.823L815.155 678.502L812.848 628.61L815.893 561.387L822.362 550.05L841.608 546.167Z" fill="#466EB6"/>
<path d="M773.3 507.594C776.991 503.483 785.003 497.63 785.003 497.63C785.003 497.63 789.8 493.552 791.727 492.88C794.594 491.891 799.503 489.256 806.607 500.018C811.685 507.72 843.752 547.596 849.015 548.935L814.641 565.388C813.7 557.534 796.713 542.695 794.27 539.923C788.804 533.738 769.813 511.506 773.3 507.594Z" fill="#F47458"/>
<path d="M774.906 490.887L785.608 497.161C785.608 497.161 785.911 506.303 782.409 508.676C779.456 510.669 777.242 505.886 777.242 505.886C777.242 505.886 773.26 500.35 770.23 498.652C767.2 496.955 774.906 490.887 774.906 490.887Z" fill="#F7A491"/>
<path d="M776.699 494.899C776.169 497.35 775.23 499.694 773.92 501.833C772.743 500.556 771.415 499.305 770.23 498.633C768.835 497.84 769.725 496.128 771.083 494.511C773.005 492.511 774.902 490.876 774.902 490.876L776.958 492.079C777.094 492.872 776.854 494.275 776.699 494.899Z" fill="#F47458"/>
<path d="M769.326 475.177C769.507 474.955 778.309 485.912 777.224 491.046C776.139 496.179 770.817 500.874 767.119 499.586C763.03 498.157 755.423 485.259 758.151 478.996C760.878 472.734 769.326 475.177 769.326 475.177Z" fill="#F7A491"/>
<path d="M759.69 471.722C763.528 469.585 769.787 468.973 774.452 471.423C780.201 474.431 781.511 482.008 779.71 486.628C777.91 491.249 779.972 493.858 779.972 493.858L776.92 492.079C776.92 492.079 775.138 489.297 774.906 487.082C774.673 484.868 771.44 485.259 769.864 484.252C768.647 483.477 767.097 480.963 765.13 479.657C765.13 479.657 760.181 479.052 757.749 480.417C753.604 482.746 754.195 474.778 759.69 471.722Z" fill="#13375B"/>
<path d="M772.349 486.101C772.319 487.743 773.087 489.086 774.083 489.105C775.079 489.123 775.891 487.802 775.928 486.152C775.965 484.503 775.19 483.163 774.194 483.148C773.197 483.133 772.378 484.455 772.349 486.101Z" fill="#F7A491"/>
<path d="M763.333 494.821L767.993 491.337C767.993 491.337 769.226 493.223 767.222 494.814C764.775 496.744 763.333 494.821 763.333 494.821Z" fill="white"/>
<path d="M751.63 564.137C752.796 562.432 753.305 559.97 754.921 558.092C755.638 557.323 756.438 556.636 757.306 556.043C765.056 551.5 785.295 539.805 786.092 538.883C787.026 537.805 800.828 514.872 800.828 514.872L788.432 512.064L776.316 533.469C775.304 534.269 756.073 548.485 756.073 548.485C756.073 548.485 752.25 551.471 750.168 552.87C749.222 553.408 748.226 553.853 747.194 554.198C746.064 554.589 743.916 555.674 743.481 556.043C742.975 556.49 741.964 557.438 741.362 558.018C740.761 558.597 740.034 559.254 739.753 559.601C739.421 559.886 739.048 560.12 738.646 560.295C738.517 560.358 738.41 560.459 738.339 560.585C738.268 560.71 738.237 560.854 738.25 560.998C738.263 561.141 738.319 561.278 738.41 561.389C738.502 561.5 738.626 561.58 738.764 561.62C739.351 561.786 740.148 561.417 740.639 561.188C742.034 560.531 743.735 558.767 743.824 558.974C743.913 559.18 742.185 562.974 742.016 563.421C741.846 563.867 739.864 568.277 739.761 569.259C739.657 570.241 740.252 570.47 740.694 570.112C741.064 569.802 744.263 563.912 744.263 563.912C744.263 563.912 744.673 563.173 744.832 563.591C744.99 564.008 742.104 569.374 741.82 570.252C741.536 571.13 741.765 571.85 742.558 571.544C743.547 571.175 746.275 565.27 746.275 565.27C746.275 565.27 746.644 564.532 746.872 564.79C747.101 565.048 744.584 569.558 744.555 570.078C744.525 570.599 744.998 571.112 745.662 570.676C746.463 570.163 748.854 564.875 748.854 564.875C748.854 564.875 749.15 564.524 749.223 564.771C749.297 565.019 747.433 569.019 747.574 569.602C747.583 569.666 747.605 569.727 747.639 569.781C747.672 569.836 747.717 569.883 747.769 569.919C747.822 569.956 747.882 569.982 747.944 569.994C748.007 570.007 748.072 570.007 748.135 569.994C749.175 569.986 750.463 565.842 751.63 564.137Z" fill="#F8A492"/>
<path d="M797.422 527.006C797.422 527.006 793.384 525.722 790.797 524.534C789.063 523.74 781.497 519.976 781.497 519.976C781.497 519.976 784.76 506.218 786.963 501.269C795.056 483.115 804.249 495.637 805.497 498.556C808.29 505.063 797.422 527.006 797.422 527.006Z" fill="#355389"/>
<path d="M515.421 479.447L519.264 476.572C519.264 476.572 520.282 478.125 518.629 479.439C516.614 481.041 515.421 479.447 515.421 479.447Z" fill="white"/>
<path d="M966.457 689.389H73.8362C72.729 689.389 71.8175 690.544 71.8175 691.973C71.8175 693.397 72.7217 694.556 73.8362 694.556H966.457C967.564 694.556 968.476 693.404 968.476 691.973C968.476 690.526 967.572 689.389 966.457 689.389Z" fill="#184655"/>
<path d="M407.78 183.644C407.688 183.411 407.485 183.408 407.278 183.4C405.262 183.37 403.25 183.22 401.252 182.95C400.919 182.906 400.594 182.823 400.281 182.703C399.748 182.494 399.159 182.473 398.613 182.644C398.31 182.718 397.998 182.751 397.686 182.74C396.675 182.74 393.782 181.751 392.298 181.492C392.132 181.463 391.978 181.386 391.855 181.271C391.732 181.155 391.645 181.007 391.605 180.843C390.128 175.064 387.01 162.099 386.604 157.832C386.084 152.382 382.319 127.795 382.319 127.795L372.244 130.607C372.244 130.607 376.389 148.754 377.536 157.548C378.422 164.343 385.213 178.761 387.342 182.906C388.379 185.995 390.715 186.08 391.254 186.146C391.565 186.183 391.85 186.334 392.055 186.571C392.418 187.003 392.846 187.377 393.324 187.678C393.67 187.902 393.965 188.196 394.192 188.541C394.62 189.165 395.003 189.818 395.384 190.475C395.635 190.907 395.897 191.047 396.269 190.944C396.46 190.894 396.626 190.775 396.733 190.61C396.841 190.445 396.884 190.245 396.852 190.051C396.829 189.348 396.621 188.663 396.251 188.065C396.085 187.858 396.001 187.598 396.015 187.333C396.03 187.068 396.141 186.817 396.328 186.63C396.539 186.32 396.787 186.037 397.067 185.788C397.202 185.656 397.365 185.555 397.543 185.491C397.721 185.427 397.911 185.403 398.1 185.419C398.828 185.606 399.568 185.743 400.314 185.829L400.923 185.954L401.255 186.024C401.307 186.024 402.362 186.154 402.731 186.154C403.027 186.154 403.503 186.176 403.909 186.194C404.304 186.172 404.697 186.114 405.082 186.021C405.431 186.018 405.766 185.886 406.023 185.652C406.13 185.552 406.237 185.441 406.182 185.283C406.158 185.213 406.114 185.153 406.055 185.109C405.997 185.065 405.927 185.039 405.854 185.035C405.614 184.991 404.377 184.84 404.377 184.788C404.746 184.788 405.913 184.759 406.285 184.751C406.526 184.75 406.764 184.7 406.985 184.603C407.205 184.506 407.403 184.364 407.566 184.187C407.714 184.024 407.872 183.876 407.78 183.644Z" fill="#F7A491"/>
<path d="M376.215 114.949C381.186 114.044 385.29 136.295 385.29 136.295C385.29 136.295 374.241 139.376 371.41 137.771C371.41 137.771 368.196 123.529 367.048 124.027L376.215 114.949Z" fill="#9BC1F9"/>
<path d="M255.985 514.828C256.314 513.883 251.727 513.123 251.483 512.17C251.239 511.218 257.273 511.141 257.488 510.303C257.886 508.76 250.874 509.978 251.014 509.255C251.155 508.532 258.322 506.923 257.547 505.683C256.772 504.443 250.287 508.129 250.092 507.292C249.896 506.454 256.428 504.406 256.31 502.56C256.248 501.575 245.586 507.472 244.349 506.937C243.113 506.402 245.682 501.771 244.696 501.084C243.711 500.398 240.884 510.495 240.205 510.831C239.526 511.167 225.122 519.389 219.995 520.696C219.372 518.979 218.028 516.665 217.479 515.042C214.604 517.086 212.467 518.116 209.5 519.98C211.651 525.368 214.711 531.269 216.209 531.948C220.77 534.007 238.411 519.374 241.932 516.872C245.453 514.37 247.468 515.178 249.859 514.385C252.251 513.591 255.653 515.78 255.985 514.828Z" fill="#F7A491"/>
<path d="M208.883 522.578C208.883 522.578 204.934 505.14 205.621 500.065C206.307 494.991 212.316 490.293 216.482 492.038C220.649 493.784 222.538 518.149 222.538 518.149L208.883 522.578Z" fill="#F7CC7F"/>
</svg>
