<svg width="476" height="476" viewBox="0 0 476 476" fill="none" xmlns="http://www.w3.org/2000/svg">
<path opacity="0.1" d="M442.12 342.862C381.255 445.915 250.335 490.455 154.819 469.916C128.732 464.309 77.8644 439.34 41.5377 394.793C-28.2257 309.24 4.45585 153.609 92.6254 70.9464C103.98 60.306 182.228 -10.7445 287.855 4.06798C365.186 14.9126 413.854 65.7172 419.755 72.0294C427.208 79.9977 443.497 98.7505 456.72 126.858C487.788 192.896 480.154 278.467 442.12 342.862Z" fill="#9BC1F9"/>
<g opacity="0.3">
<path opacity="0.3" d="M180.196 49.9796C179.901 50.347 179.472 50.5821 179.003 50.6333C178.534 50.6845 178.065 50.5475 177.697 50.2525C176.211 49.0597 174.649 47.9116 173.063 46.8441C172.677 46.585 172.407 46.1845 172.313 45.7287C172.219 45.273 172.307 44.7984 172.559 44.4071L172.578 44.3779C172.708 44.1841 172.875 44.0179 173.069 43.8887C173.264 43.7594 173.481 43.6698 173.711 43.6248C173.94 43.5799 174.175 43.5805 174.404 43.6267C174.633 43.6729 174.85 43.7637 175.044 43.894C176.719 45.0181 178.363 46.2246 179.928 47.4808C180.27 47.7557 180.499 48.1474 180.569 48.5805C180.64 49.0136 180.548 49.4575 180.311 49.8269C180.271 49.8783 180.235 49.9298 180.196 49.9796ZM164.954 42.1795C163.238 41.3385 161.458 40.5628 159.681 39.8746C159.241 39.7044 158.887 39.3666 158.697 38.9355C158.506 38.5043 158.495 38.0152 158.665 37.5758C158.836 37.1363 159.173 36.7825 159.605 36.5921C160.036 36.4017 160.525 36.3904 160.964 36.5607C162.835 37.2849 164.702 38.1052 166.513 38.9856C166.722 39.088 166.91 39.2307 167.065 39.4055C167.219 39.5804 167.338 39.784 167.414 40.0048C167.49 40.2255 167.521 40.4591 167.507 40.6921C167.492 40.925 167.432 41.1529 167.33 41.3626C167.299 41.4258 167.265 41.4871 167.227 41.5462C166.991 41.9112 166.629 42.1772 166.211 42.2939C165.792 42.4106 165.345 42.3699 164.954 42.1795ZM150.749 37.1167C148.889 36.6808 146.988 36.3221 145.096 36.0475C144.865 36.0137 144.643 35.9348 144.443 35.8152C144.243 35.6956 144.068 35.5377 143.928 35.3505C143.789 35.1633 143.688 34.9505 143.631 34.7243C143.574 34.498 143.562 34.2627 143.595 34.0319C143.629 33.801 143.708 33.579 143.828 33.3786C143.947 33.1782 144.105 33.0033 144.292 32.864C144.48 32.7246 144.692 32.6235 144.919 32.5664C145.145 32.5092 145.38 32.4972 145.611 32.531C147.602 32.8194 149.606 33.1969 151.565 33.6569C152.023 33.7643 152.421 34.0496 152.669 34.4499C152.918 34.8503 152.997 35.333 152.89 35.7918C152.782 36.2506 152.497 36.648 152.096 36.8964C151.696 37.1449 151.213 37.2241 150.755 37.1167H150.749ZM135.77 35.3576C133.857 35.3576 131.923 35.4245 130.018 35.579C129.785 35.5979 129.551 35.5709 129.329 35.4993C129.107 35.4278 128.901 35.3133 128.723 35.1622C128.545 35.0111 128.399 34.8265 128.292 34.6189C128.186 34.4112 128.121 34.1846 128.102 33.952C128.084 33.7195 128.111 33.4854 128.182 33.2633C128.254 33.0412 128.368 32.8353 128.519 32.6575C128.67 32.4796 128.855 32.3333 129.063 32.2268C129.27 32.1203 129.497 32.0557 129.729 32.0368C131.734 31.8737 133.773 31.7948 135.786 31.8034C136.024 31.7971 136.261 31.8387 136.482 31.9256C136.704 32.0126 136.906 32.1432 137.076 32.3097C137.246 32.4762 137.381 32.6752 137.473 32.8948C137.565 33.1145 137.612 33.3504 137.611 33.5885C137.61 33.8265 137.561 34.062 137.467 34.2809C137.373 34.4997 137.237 34.6975 137.065 34.8625C136.893 35.0275 136.69 35.1564 136.468 35.2414C136.246 35.3265 136.008 35.366 135.77 35.3576ZM120.773 36.9811C118.911 37.3965 117.038 37.8976 115.212 38.4708C114.762 38.6119 114.275 38.5686 113.857 38.3504C113.44 38.1321 113.126 37.7569 112.985 37.3072C112.843 36.8575 112.887 36.3702 113.105 35.9524C113.323 35.5347 113.698 35.2207 114.148 35.0796C116.07 34.4772 118.039 33.9486 119.999 33.5127C120.226 33.4619 120.462 33.4564 120.692 33.4966C120.922 33.5368 121.141 33.6219 121.338 33.747C121.535 33.8721 121.706 34.0348 121.84 34.2257C121.974 34.4167 122.069 34.6322 122.12 34.8599C122.171 35.0876 122.176 35.3232 122.136 35.553C122.096 35.7829 122.011 36.0026 121.886 36.1995C121.76 36.3965 121.598 36.5669 121.407 36.701C121.216 36.8351 121 36.9303 120.773 36.9811ZM106.508 41.8809C104.781 42.6995 103.075 43.5971 101.416 44.565C101.009 44.7929 100.529 44.8518 100.079 44.7291C99.6289 44.6064 99.2452 44.3119 99.0105 43.9089C98.7757 43.506 98.7086 43.027 98.8237 42.5751C98.9388 42.1232 99.2268 41.7346 99.6256 41.493C101.364 40.4805 103.168 39.5297 104.985 38.6681C105.41 38.4783 105.891 38.4622 106.327 38.6232C106.764 38.7842 107.119 39.1097 107.318 39.5298C107.517 39.9498 107.544 40.4312 107.392 40.8706C107.241 41.3101 106.923 41.6727 106.508 41.8809ZM66.6918 94.4977C66.4596 94.4653 66.236 94.3873 66.0341 94.2682C65.8321 94.149 65.6557 93.9911 65.515 93.8035C65.3743 93.616 65.2721 93.4024 65.2143 93.1752C65.1565 92.9479 65.1442 92.7115 65.1781 92.4795C65.4699 90.4904 65.8526 88.4859 66.3143 86.5243C66.4315 86.075 66.7199 85.6894 67.1177 85.4499C67.5155 85.2104 67.9913 85.1361 68.4432 85.2428C68.8951 85.3495 69.2873 85.6288 69.5361 86.0209C69.7848 86.413 69.8702 86.8869 69.7741 87.3412C69.3348 89.2032 68.9709 91.1065 68.6946 92.9943C68.6612 93.2253 68.5826 93.4475 68.4632 93.6481C68.3438 93.8487 68.186 94.0237 67.9988 94.1632C67.8116 94.3027 67.5988 94.4039 67.3725 94.461C67.1461 94.5181 66.9107 94.53 66.6798 94.496L66.6918 94.4977ZM93.6979 49.8166C92.1979 50.9973 90.7289 52.2587 89.3353 53.5647C88.9914 53.887 88.5336 54.0594 88.0626 54.0441C87.5916 54.0289 87.1459 53.8271 86.8237 53.4832C86.5014 53.1393 86.329 52.6815 86.3442 52.2105C86.3595 51.7395 86.5613 51.2938 86.9052 50.9715C88.3743 49.5986 89.9188 48.2668 91.5012 47.0243C91.6845 46.8801 91.8945 46.7734 92.119 46.7103C92.3436 46.6472 92.5784 46.6289 92.8101 46.6566C93.0417 46.6842 93.2656 46.7572 93.4691 46.8714C93.6725 46.9856 93.8514 47.1387 93.9957 47.3221C94.1399 47.5054 94.2466 47.7154 94.3097 47.9399C94.3728 48.1645 94.3911 48.3993 94.3634 48.631C94.3358 48.8626 94.2628 49.0865 94.1486 49.29C94.0344 49.4934 93.8812 49.6723 93.6979 49.8166ZM70.2547 79.4209C70.0373 79.3363 69.8387 79.2097 69.6703 79.0483C69.5018 78.8869 69.3668 78.694 69.2729 78.4804C69.1791 78.2669 69.1282 78.0369 69.1232 77.8037C69.1182 77.5705 69.1592 77.3386 69.2438 77.1212C69.9732 75.2471 70.7884 73.3816 71.6808 71.5728C71.8884 71.1497 72.2555 70.8264 72.7014 70.674C73.1473 70.5216 73.6355 70.5526 74.0586 70.7601C74.4817 70.9677 74.805 71.3348 74.9574 71.7807C75.1098 72.2267 75.0788 72.7149 74.8712 73.1379C74.0286 74.8541 73.2494 76.6304 72.5561 78.4101C72.5097 78.522 72.4522 78.6289 72.3844 78.7293C72.1625 79.0713 71.8298 79.3266 71.4421 79.4525C71.0544 79.5784 70.6351 79.5673 70.2547 79.4209ZM82.9717 60.4106C81.7703 61.8968 80.6239 63.4552 79.5547 65.0443C79.2936 65.4328 78.8896 65.7024 78.4307 65.7947C77.9718 65.8869 77.4951 65.7943 77.1041 65.537C76.7131 65.2796 76.4395 64.8784 76.3428 64.4204C76.246 63.9625 76.3339 63.4848 76.5874 63.0913L76.608 63.0587C77.7338 61.3889 78.9438 59.7482 80.2034 58.183C80.49 57.8323 80.8996 57.6042 81.3486 57.5452C81.7976 57.4862 82.2522 57.6007 82.6196 57.8655C82.987 58.1302 83.2396 58.5252 83.3257 58.9697C83.4119 59.4143 83.3252 59.8751 83.0832 60.2579C83.0489 60.3111 83.0111 60.3712 82.9717 60.4141V60.4106Z" fill="#91B3FA"/>
<path opacity="0.3" d="M67.7532 106.161C67.9516 105.855 68.05 105.495 68.0347 105.131C68.0021 104.215 67.9883 103.283 67.9918 102.361C67.9929 102.128 67.9481 101.897 67.8598 101.681C67.7716 101.465 67.6417 101.268 67.4776 101.103C67.3134 100.937 67.1182 100.805 66.9032 100.715C66.6881 100.624 66.4573 100.577 66.2241 100.576C65.9908 100.575 65.7596 100.62 65.5437 100.708C65.3277 100.796 65.1313 100.926 64.9655 101.09C64.6308 101.422 64.4415 101.873 64.4392 102.344C64.4392 103.314 64.4392 104.294 64.4821 105.261C64.4961 105.639 64.6304 106.003 64.8653 106.3C65.1002 106.596 65.4236 106.81 65.7884 106.91C66.1532 107.01 66.5404 106.991 66.8938 106.856C67.2472 106.721 67.5482 106.477 67.7532 106.159V106.161Z" fill="#91B3FA"/>
</g>
<g opacity="0.3">
<path opacity="0.3" d="M90.6753 155.249C90.9032 154.894 90.9972 154.469 90.9406 154.05C90.8841 153.632 90.6805 153.247 90.3664 152.965C89.6799 152.354 89.0037 151.719 88.343 151.077C88.0026 150.763 87.5528 150.593 87.0894 150.606C86.626 150.618 86.1857 150.81 85.8623 151.143C85.5389 151.475 85.358 151.92 85.3582 152.384C85.3583 152.847 85.5395 153.292 85.8631 153.624C86.5581 154.3 87.2755 154.97 87.9929 155.615C88.3444 155.929 88.8061 156.091 89.2767 156.065C89.7473 156.039 90.1885 155.828 90.5037 155.478C90.5664 155.406 90.6237 155.329 90.6753 155.249Z" fill="#91B3FA"/>
<path opacity="0.3" d="M193.103 144.166C192.821 144.525 192.411 144.762 191.959 144.828C191.506 144.893 191.046 144.781 190.674 144.516C190.302 144.251 190.047 143.853 189.961 143.404C189.875 142.955 189.965 142.49 190.213 142.106C191.299 140.588 192.339 138.997 193.314 137.365C193.43 137.157 193.586 136.974 193.774 136.827C193.961 136.681 194.177 136.574 194.407 136.512C194.636 136.45 194.876 136.435 195.112 136.468C195.348 136.501 195.575 136.58 195.779 136.703C195.984 136.825 196.162 136.987 196.302 137.179C196.443 137.371 196.543 137.589 196.598 137.821C196.653 138.053 196.66 138.293 196.62 138.528C196.58 138.762 196.494 138.987 196.365 139.187C195.943 139.894 195.511 140.592 195.068 141.279C194.436 142.252 193.776 143.225 193.103 144.166ZM198.423 131.485C198.208 131.394 198.014 131.261 197.85 131.094C197.687 130.928 197.558 130.731 197.471 130.514C197.384 130.298 197.34 130.066 197.342 129.833C197.345 129.6 197.393 129.369 197.484 129.154C198.222 127.419 198.895 125.636 199.484 123.853C199.64 123.417 199.961 123.059 200.378 122.856C200.794 122.652 201.274 122.62 201.714 122.765C202.154 122.911 202.52 123.222 202.734 123.633C202.948 124.044 202.993 124.523 202.859 124.967C202.24 126.844 201.531 128.722 200.754 130.546C200.714 130.64 200.667 130.729 200.611 130.814C200.384 131.165 200.04 131.425 199.64 131.548C199.24 131.67 198.81 131.648 198.425 131.485H198.423ZM186.942 151.636C185.582 153.073 184.143 154.47 182.663 155.79C182.31 156.093 181.851 156.246 181.387 156.216C180.922 156.185 180.487 155.973 180.177 155.625C179.867 155.277 179.706 154.822 179.728 154.356C179.75 153.891 179.955 153.453 180.297 153.136C181.704 151.884 183.07 150.562 184.36 149.189C184.664 148.866 185.078 148.669 185.52 148.636C185.962 148.602 186.4 148.735 186.749 149.008C187.098 149.282 187.332 149.675 187.405 150.112C187.479 150.549 187.386 150.998 187.146 151.37C187.087 151.465 187.019 151.554 186.943 151.636H186.942ZM203.189 117.01C202.727 116.925 202.318 116.661 202.05 116.275C201.783 115.889 201.679 115.413 201.761 114.951C202.104 113.099 202.365 111.213 202.547 109.343C202.593 108.873 202.823 108.442 203.186 108.142C203.55 107.843 204.018 107.7 204.487 107.746C204.956 107.791 205.388 108.021 205.687 108.385C205.987 108.749 206.13 109.217 206.084 109.686C205.892 111.658 205.614 113.645 205.257 115.593C205.173 116.055 204.909 116.465 204.523 116.733C204.137 117.001 203.66 117.104 203.197 117.021L203.189 117.01ZM175.016 161.717C173.375 162.817 171.664 163.864 169.931 164.825C169.521 165.028 169.049 165.065 168.613 164.929C168.176 164.792 167.809 164.492 167.588 164.092C167.367 163.692 167.309 163.222 167.426 162.78C167.542 162.338 167.825 161.958 168.214 161.719C169.862 160.804 171.487 159.811 173.046 158.766C173.239 158.636 173.457 158.545 173.686 158.499C173.914 158.453 174.15 158.453 174.379 158.498C174.608 158.543 174.826 158.633 175.02 158.763C175.214 158.892 175.381 159.058 175.511 159.252C175.641 159.446 175.731 159.663 175.777 159.892C175.823 160.121 175.823 160.357 175.778 160.585C175.733 160.814 175.643 161.032 175.514 161.226C175.385 161.421 175.218 161.587 175.024 161.717H175.016ZM161.168 168.937C159.323 169.655 157.425 170.31 155.527 170.863C155.075 170.996 154.588 170.945 154.174 170.719C153.76 170.494 153.453 170.114 153.32 169.662C153.186 169.21 153.238 168.723 153.463 168.309C153.688 167.895 154.069 167.588 154.521 167.455C156.323 166.923 158.125 166.306 159.881 165.625C160.231 165.489 160.615 165.467 160.978 165.563C161.341 165.658 161.664 165.867 161.902 166.157C162.139 166.448 162.278 166.807 162.299 167.182C162.32 167.557 162.221 167.929 162.017 168.244C161.815 168.56 161.518 168.803 161.168 168.937ZM146.076 172.969C144.116 173.267 142.128 173.484 140.15 173.619C139.917 173.635 139.683 173.605 139.462 173.53C139.241 173.456 139.037 173.338 138.861 173.185C138.685 173.031 138.541 172.845 138.437 172.636C138.334 172.427 138.272 172.199 138.257 171.966C138.241 171.734 138.271 171.5 138.346 171.279C138.42 171.058 138.537 170.854 138.691 170.678C138.844 170.502 139.031 170.358 139.24 170.254C139.449 170.151 139.676 170.089 139.909 170.074C141.783 169.947 143.685 169.73 145.54 169.454C146.002 169.393 146.469 169.515 146.842 169.794C147.214 170.074 147.462 170.488 147.532 170.949C147.602 171.409 147.489 171.879 147.217 172.256C146.944 172.634 146.535 172.89 146.076 172.969ZM130.458 173.611C128.481 173.473 126.487 173.25 124.532 172.946C124.302 172.911 124.08 172.83 123.881 172.709C123.682 172.587 123.508 172.428 123.37 172.24C123.233 172.052 123.133 171.838 123.078 171.611C123.023 171.385 123.013 171.149 123.048 170.919C123.084 170.688 123.165 170.467 123.286 170.268C123.407 170.068 123.567 169.895 123.755 169.757C123.943 169.619 124.157 169.52 124.384 169.465C124.61 169.409 124.846 169.399 125.076 169.435C126.933 169.723 128.828 169.935 130.705 170.065C131.165 170.111 131.589 170.335 131.886 170.688C132.184 171.041 132.333 171.497 132.301 171.958C132.269 172.419 132.058 172.849 131.714 173.157C131.37 173.466 130.92 173.629 130.458 173.611ZM115.078 170.805C113.19 170.237 111.29 169.581 109.447 168.853C109.019 168.673 108.678 168.332 108.498 167.904C108.318 167.476 108.312 166.994 108.483 166.562C108.653 166.13 108.986 165.782 109.41 165.592C109.834 165.402 110.315 165.386 110.751 165.546C112.502 166.233 114.302 166.863 116.1 167.401C116.324 167.468 116.532 167.579 116.713 167.726C116.894 167.874 117.044 168.055 117.154 168.261C117.265 168.466 117.334 168.691 117.357 168.924C117.381 169.156 117.359 169.39 117.292 169.614C117.243 169.773 117.174 169.926 117.084 170.067C116.875 170.39 116.567 170.637 116.205 170.77C115.844 170.903 115.45 170.915 115.081 170.805H115.078ZM100.704 164.698C99.4328 163.984 98.1679 163.224 96.946 162.438C96.5032 162.151 96.0644 161.862 95.6297 161.57C95.4344 161.441 95.2669 161.274 95.1369 161.08C95.0069 160.885 94.917 160.667 94.8726 160.437C94.8281 160.207 94.83 159.971 94.8781 159.742C94.9262 159.513 95.0195 159.296 95.1526 159.104C95.283 158.91 95.4503 158.744 95.6449 158.616C95.8394 158.487 96.0575 158.398 96.2865 158.353C96.5155 158.309 96.751 158.31 96.9796 158.357C97.2082 158.403 97.4254 158.494 97.6187 158.625C98.0323 158.903 98.4494 159.179 98.8699 159.449C100.032 160.199 101.233 160.921 102.443 161.597C102.647 161.711 102.827 161.864 102.972 162.047C103.116 162.23 103.224 162.44 103.288 162.665C103.351 162.89 103.37 163.125 103.343 163.357C103.316 163.589 103.243 163.813 103.129 164.017C103.112 164.048 103.093 164.081 103.073 164.111C102.827 164.493 102.445 164.766 102.005 164.875C101.565 164.984 101.1 164.921 100.704 164.698Z" fill="#91B3FA"/>
<path opacity="0.3" d="M206.077 100.982C206.274 100.676 206.372 100.317 206.359 99.9527C206.319 98.9916 206.259 98.0134 206.187 97.0438C206.169 96.8109 206.104 96.5839 205.998 96.3759C205.891 96.1679 205.745 95.9829 205.567 95.8316C205.389 95.6802 205.183 95.5655 204.96 95.494C204.738 95.4224 204.503 95.3955 204.271 95.4147C204.038 95.4339 203.811 95.4988 203.603 95.6058C203.395 95.7128 203.211 95.8597 203.06 96.0381C202.909 96.2166 202.795 96.423 202.724 96.6457C202.653 96.8683 202.627 97.1027 202.647 97.3356C202.72 98.2554 202.779 99.1856 202.818 100.097C202.836 100.472 202.972 100.832 203.207 101.125C203.441 101.417 203.763 101.628 204.125 101.727C204.487 101.826 204.872 101.807 205.223 101.674C205.574 101.541 205.873 101.3 206.079 100.986L206.077 100.982Z" fill="#91B3FA"/>
</g>
<path d="M183.693 80.307C183.64 80.1424 183.536 79.9986 183.397 79.8956C183.258 79.7925 183.09 79.7354 182.917 79.7321L172.811 79.5605C170.332 75.4647 167.202 71.8006 163.543 68.7124L164.942 58.707C164.967 58.5352 164.937 58.3602 164.857 58.2063C164.777 58.0524 164.65 57.9274 164.496 57.8489L153.684 52.3467C153.53 52.2682 153.355 52.2397 153.184 52.2652C153.013 52.2908 152.854 52.3691 152.73 52.4892L145.461 59.505C140.813 58.3643 136.009 57.9893 131.239 58.3946L125.15 50.3285C125.046 50.1909 124.901 50.0893 124.736 50.0376C124.571 49.986 124.395 49.9868 124.23 50.0402L112.716 53.7815C112.552 53.8355 112.409 53.9391 112.306 54.0781C112.204 54.217 112.147 54.3845 112.143 54.5572L111.972 64.6639C107.875 67.1428 104.211 70.273 101.122 73.9313L91.1181 72.5326C90.9463 72.5076 90.771 72.5372 90.617 72.6173C90.463 72.6974 90.3381 72.8239 90.26 72.9789L84.7578 83.7909C84.679 83.9449 84.6504 84.1197 84.6759 84.2909C84.7015 84.462 84.7799 84.6208 84.9003 84.7451L91.9161 92.0132C90.7746 96.6619 90.3995 101.466 90.8057 106.235L82.7396 112.324C82.6015 112.428 82.4994 112.573 82.4474 112.738C82.3954 112.903 82.3962 113.08 82.4496 113.244L86.1994 124.775C86.2532 124.94 86.3568 125.083 86.4958 125.186C86.6348 125.288 86.8024 125.345 86.9752 125.349L97.0819 125.52C99.5603 129.617 102.691 133.282 106.349 136.37L104.951 146.374C104.925 146.545 104.955 146.72 105.035 146.874C105.114 147.028 105.24 147.153 105.395 147.232L116.207 152.734C116.361 152.813 116.536 152.841 116.707 152.816C116.878 152.79 117.037 152.712 117.161 152.591L124.429 145.576C129.078 146.716 133.882 147.092 138.652 146.688L144.741 154.754C144.845 154.892 144.989 154.994 145.154 155.046C145.319 155.098 145.496 155.098 145.661 155.044L157.19 151.294C157.355 151.241 157.499 151.137 157.602 150.998C157.705 150.859 157.762 150.691 157.765 150.518L157.936 140.412C162.033 137.933 165.697 134.803 168.785 131.144L178.79 132.543C178.962 132.568 179.137 132.538 179.291 132.459C179.444 132.379 179.569 132.253 179.648 132.098L185.15 121.286C185.228 121.132 185.256 120.957 185.231 120.787C185.205 120.616 185.127 120.457 185.008 120.332L177.973 113.061C179.114 108.412 179.489 103.608 179.083 98.8385L187.15 92.7494C187.287 92.6451 187.389 92.5005 187.441 92.3356C187.493 92.1707 187.491 91.9938 187.438 91.8295L183.693 80.307Z" fill="#00B19F" fill-opacity="0.3"/>
<path d="M144.125 110.558C142.048 112.928 139.134 114.4 135.995 114.665C132.855 114.93 129.736 113.967 127.291 111.979C124.847 109.991 123.269 107.133 122.889 104.006C122.509 100.878 123.356 97.7252 125.252 95.2095C127.149 92.6939 129.947 91.0116 133.058 90.5165C136.17 90.0214 139.352 90.752 141.935 92.5547C144.519 94.3574 146.303 97.0917 146.913 100.183C147.522 103.274 146.909 106.481 145.202 109.129C144.879 109.631 144.518 110.109 144.125 110.558ZM125.626 103.165C125.776 105.374 126.708 107.458 128.256 109.042C129.803 110.627 131.864 111.608 134.069 111.811C136.274 112.014 138.479 111.424 140.289 110.148C142.099 108.873 143.396 106.994 143.946 104.849C144.497 102.704 144.265 100.433 143.293 98.4435C142.322 96.4537 140.673 94.8752 138.642 93.9908C136.612 93.1064 134.334 92.9741 132.215 93.6174C130.096 94.2608 128.275 95.6378 127.079 97.5017C125.995 99.1828 125.483 101.169 125.619 103.165H125.626Z" fill="white"/>
<path d="M159.861 118.867C160.417 118.003 160.928 117.112 161.394 116.196C161.543 115.906 161.686 115.615 161.825 115.319C162.507 113.871 163.073 112.371 163.517 110.833C163.517 110.813 163.529 110.792 163.536 110.77C163.551 110.711 163.568 110.651 163.584 110.598C163.616 110.483 163.647 110.366 163.678 110.255C163.717 110.11 163.709 109.956 163.655 109.816C163.601 109.676 163.504 109.557 163.378 109.476C163.315 109.435 163.246 109.405 163.174 109.385C163.083 109.361 162.988 109.356 162.895 109.369C162.802 109.382 162.713 109.414 162.632 109.462C162.552 109.51 162.481 109.573 162.425 109.648C162.369 109.723 162.328 109.809 162.305 109.9C161.15 114.258 158.98 118.281 155.973 121.64C152.966 124.999 149.206 127.599 145.002 129.227C140.798 130.856 136.268 131.467 131.783 131.01C127.298 130.553 122.984 129.041 119.195 126.598C113.264 122.762 108.966 116.864 107.13 110.043C105.295 103.222 106.053 95.9635 109.258 89.6691C116.404 75.6374 133.628 70.0426 147.649 77.1855C148.511 77.6247 149.35 78.1069 150.163 78.6305C153.679 80.8914 156.654 83.8998 158.875 87.4415C158.93 87.5303 159.004 87.6054 159.093 87.6611C159.228 87.7487 159.39 87.7873 159.551 87.7707C159.712 87.754 159.862 87.683 159.977 87.5694C160.092 87.4558 160.165 87.3064 160.183 87.1459C160.202 86.9853 160.165 86.8232 160.079 86.6863C157.196 82.0982 153.123 78.3772 148.294 75.9189C133.568 68.4191 115.488 74.304 107.991 89.0238C104.627 95.6317 103.831 103.252 105.757 110.413C107.684 117.573 112.196 123.765 118.422 127.793C119.281 128.345 120.173 128.857 121.096 129.329C127.705 132.693 135.326 133.488 142.487 131.56C149.647 129.633 155.84 125.119 159.867 118.892L159.861 118.867Z" fill="white"/>
<g opacity="0.3">
<path opacity="0.3" d="M252.504 24.1854C252.633 23.9859 252.693 23.7501 252.676 23.5134C252.659 23.2768 252.565 23.052 252.41 22.8729C251.801 22.1695 251.162 21.4729 250.51 20.8141C250.307 20.606 250.03 20.487 249.739 20.4835C249.448 20.4799 249.168 20.5921 248.959 20.7953C248.751 20.9984 248.632 21.276 248.629 21.5668C248.625 21.8577 248.737 22.138 248.941 22.3462C249.56 22.9827 250.171 23.645 250.752 24.3175C250.864 24.4468 251.004 24.5482 251.161 24.6137C251.319 24.6792 251.49 24.707 251.66 24.6948C251.83 24.6827 251.995 24.6309 252.141 24.5436C252.288 24.4564 252.412 24.3361 252.504 24.1923V24.1854Z" fill="#91B3FA"/>
<path opacity="0.3" d="M246.353 18.4358C246.263 18.5485 246.151 18.6424 246.025 18.7121C245.898 18.7817 245.759 18.8258 245.616 18.8417C245.472 18.8577 245.327 18.8452 245.189 18.805C245.05 18.7648 244.921 18.6976 244.808 18.6074C243.607 17.6493 242.359 16.7528 241.067 15.9216C240.796 15.7465 240.522 15.5749 240.245 15.4067C239.997 15.2538 239.82 15.0091 239.753 14.726C239.685 14.443 239.732 14.1447 239.884 13.8965C240.044 13.6563 240.288 13.4855 240.568 13.4186C240.849 13.3517 241.144 13.3937 241.395 13.5361C241.685 13.7145 241.971 13.8953 242.253 14.0784C243.606 14.9504 244.915 15.8904 246.174 16.8946C246.386 17.0642 246.528 17.3062 246.572 17.574C246.616 17.8417 246.559 18.1163 246.413 18.3448L246.353 18.4358ZM235.33 12.7723C233.638 12 231.902 11.3312 230.129 10.7696C229.852 10.6819 229.621 10.4877 229.487 10.2296C229.352 9.97146 229.326 9.67059 229.414 9.39317C229.501 9.11575 229.696 8.88449 229.954 8.75028C230.212 8.61607 230.513 8.5899 230.79 8.67751C232.649 9.26704 234.47 9.9697 236.243 10.7816C236.507 10.903 236.713 11.1245 236.814 11.3974C236.915 11.6702 236.904 11.9722 236.783 12.2369C236.761 12.2847 236.735 12.3311 236.708 12.3759C236.565 12.5979 236.347 12.7611 236.094 12.8354C235.841 12.9098 235.57 12.8905 235.33 12.7809V12.7723ZM224.72 9.42578C222.891 9.09037 221.042 8.86856 219.185 8.76161C218.902 8.73468 218.641 8.5992 218.456 8.38363C218.271 8.16805 218.177 7.88916 218.193 7.60551C218.209 7.32185 218.335 7.05552 218.543 6.86244C218.751 6.66936 219.027 6.56455 219.311 6.57003C221.258 6.68293 223.196 6.91505 225.115 7.26509C225.257 7.29112 225.392 7.34484 225.513 7.42318C225.634 7.50152 225.739 7.60295 225.821 7.72167C225.903 7.8404 225.96 7.9741 225.991 8.11513C226.021 8.25617 226.023 8.40178 225.997 8.54365C225.971 8.68452 225.917 8.81907 225.841 8.94009C225.724 9.12428 225.555 9.26961 225.356 9.35762C225.156 9.44562 224.935 9.47233 224.72 9.43436V9.42578ZM213.611 8.78735C211.756 8.90979 209.911 9.1465 208.085 9.49614C207.804 9.53941 207.517 9.47214 207.285 9.30846C207.053 9.14478 206.893 8.89744 206.839 8.61839C206.785 8.33934 206.842 8.05032 206.997 7.81204C207.152 7.57377 207.393 7.40479 207.67 7.3406C209.585 6.97368 211.521 6.72493 213.467 6.59577C213.754 6.58246 214.035 6.68237 214.25 6.87405C214.464 7.06573 214.595 7.33387 214.614 7.62087C214.633 7.90787 214.538 8.19082 214.351 8.40893C214.163 8.62704 213.898 8.76292 213.611 8.78735ZM202.684 10.8794C200.915 11.4526 199.183 12.1335 197.498 12.9182C197.367 12.9789 197.226 13.0131 197.082 13.0191C196.938 13.0251 196.794 13.0027 196.659 12.9531C196.523 12.9036 196.399 12.8278 196.293 12.7303C196.187 12.6327 196.101 12.5152 196.041 12.3845C195.98 12.2538 195.946 12.1124 195.94 11.9684C195.934 11.8245 195.956 11.6807 196.006 11.5454C196.055 11.4101 196.131 11.2859 196.229 11.1799C196.326 11.0739 196.444 10.9881 196.575 10.9274C198.343 10.1081 200.159 9.39684 202.013 8.79765C202.289 8.71358 202.587 8.74126 202.842 8.8747C203.097 9.00815 203.29 9.23667 203.379 9.51098C203.467 9.78529 203.444 10.0834 203.315 10.341C203.186 10.5986 202.96 10.795 202.688 10.888L202.684 10.8794ZM192.596 15.5612C191.018 16.5464 189.503 17.6286 188.059 18.8013C187.833 18.9848 187.543 19.0709 187.254 19.0408C186.964 19.0107 186.698 18.8669 186.515 18.6409C186.332 18.4149 186.245 18.1253 186.276 17.8358C186.306 17.5463 186.45 17.2806 186.676 17.0972C188.188 15.8695 189.776 14.7369 191.429 13.706C191.676 13.5589 191.971 13.5145 192.25 13.5823C192.53 13.6501 192.771 13.8247 192.923 14.0686C193.076 14.3125 193.126 14.6063 193.064 14.887C193.002 15.1676 192.832 15.4128 192.591 15.5698L192.596 15.5612ZM183.962 22.5649C182.675 23.9063 181.471 25.3254 180.358 26.8142C180.273 26.9338 180.166 27.0352 180.041 27.1124C179.917 27.1896 179.778 27.2411 179.633 27.2639C179.488 27.2867 179.34 27.2803 179.198 27.245C179.056 27.2098 178.922 27.1464 178.805 27.0587C178.687 26.971 178.589 26.8607 178.515 26.7342C178.441 26.6078 178.393 26.4678 178.373 26.3225C178.354 26.1772 178.364 26.0296 178.403 25.8883C178.442 25.7469 178.509 25.6148 178.599 25.4996C179.765 23.936 181.026 22.4458 182.375 21.0375C182.563 20.8376 182.819 20.7154 183.092 20.695C183.366 20.6746 183.637 20.7574 183.853 20.9272C184.068 21.097 184.212 21.3414 184.256 21.6122C184.3 21.883 184.241 22.1605 184.091 22.3899C184.054 22.455 184.011 22.5165 183.962 22.5735V22.5649ZM173.408 37.0668C173.139 36.9546 172.927 36.7404 172.816 36.4713C172.706 36.2023 172.707 35.9004 172.819 35.632C173.474 34.0702 174.21 32.5441 175.026 31.0601C175.15 30.8313 175.275 30.6076 175.402 30.3891C175.472 30.2627 175.567 30.1517 175.681 30.0625C175.795 29.9734 175.926 29.908 176.065 29.8701C176.205 29.8322 176.351 29.8226 176.494 29.8419C176.637 29.8611 176.775 29.9089 176.9 29.9823C177.153 30.1272 177.337 30.3664 177.414 30.6473C177.49 30.9282 177.451 31.2279 177.307 31.4806C177.187 31.6882 177.07 31.8993 176.952 32.1138C176.172 33.5333 175.469 34.9929 174.844 36.4867C174.731 36.7548 174.517 36.9673 174.247 37.0776C173.978 37.188 173.676 37.1871 173.408 37.0754V37.0668Z" fill="#91B3FA"/>
</g>
<g opacity="0.3">
<path opacity="0.3" d="M256.06 80.1076C255.001 81.7057 253.847 83.2382 252.603 84.6967C252.51 84.8063 252.395 84.8965 252.267 84.962C252.139 85.0275 251.999 85.0671 251.855 85.0785C251.565 85.1015 251.277 85.0083 251.056 84.8194C250.835 84.6305 250.697 84.3614 250.674 84.0713C250.651 83.7811 250.744 83.4937 250.933 83.2723C252.119 81.8841 253.219 80.4262 254.23 78.9063C254.309 78.7856 254.411 78.6816 254.53 78.6003C254.649 78.519 254.783 78.4619 254.924 78.4324C255.065 78.4028 255.211 78.4013 255.352 78.428C255.494 78.4547 255.629 78.509 255.75 78.5879C255.871 78.6668 255.974 78.7687 256.056 78.8877C256.137 79.0068 256.194 79.1407 256.224 79.2818C256.253 79.4229 256.255 79.5685 256.228 79.7102C256.201 79.8519 256.147 79.9869 256.068 80.1076H256.06ZM257.467 75.6198C257.338 75.5552 257.223 75.466 257.129 75.357C257.035 75.2481 256.963 75.1216 256.917 74.9849C256.872 74.8481 256.854 74.7038 256.864 74.56C256.875 74.4163 256.913 74.2761 256.978 74.1473C257.798 72.5116 258.519 70.8285 259.138 69.1068C259.253 68.8559 259.458 68.6572 259.712 68.5503C259.966 68.4433 260.251 68.4359 260.511 68.5295C260.77 68.6231 260.985 68.8109 261.112 69.0555C261.239 69.3001 261.27 69.5837 261.198 69.8499C260.549 71.6543 259.792 73.4183 258.933 75.1324C258.915 75.1684 258.895 75.201 258.874 75.2353C258.729 75.4623 258.505 75.6277 258.245 75.6999C257.986 75.7721 257.709 75.746 257.467 75.6266V75.6198ZM248.613 88.8344C247.199 90.1288 245.709 91.3374 244.151 92.4539C244.034 92.5379 243.901 92.5979 243.76 92.6306C243.62 92.6632 243.474 92.6679 243.332 92.6443C243.19 92.6207 243.053 92.5693 242.931 92.4931C242.809 92.4168 242.702 92.3172 242.618 92.1999C242.534 92.0826 242.474 91.9499 242.442 91.8094C242.409 91.6689 242.404 91.5233 242.428 91.381C242.452 91.2387 242.503 91.1024 242.579 90.98C242.655 90.8575 242.755 90.7513 242.872 90.6674C244.36 89.6035 245.783 88.451 247.132 87.2161C247.328 87.0344 247.584 86.9306 247.851 86.9244C248.119 86.9181 248.379 87.0097 248.584 87.1819C248.788 87.3542 248.923 87.5952 248.962 87.8597C249.001 88.1242 248.942 88.394 248.797 88.6182C248.745 88.7007 248.684 88.7762 248.613 88.843V88.8344ZM261.5 65.151C261.359 65.1193 261.226 65.0603 261.109 64.9773C260.991 64.8943 260.891 64.7889 260.814 64.6671C260.737 64.5454 260.685 64.4096 260.66 64.2677C260.636 64.1257 260.639 63.9803 260.671 63.8398C261.074 62.0551 261.368 60.2475 261.55 58.4269C261.58 58.1361 261.725 57.8692 261.952 57.6849C262.179 57.5006 262.47 57.4141 262.76 57.4444C263.051 57.4747 263.318 57.6192 263.502 57.8463C263.687 58.0734 263.773 58.3643 263.743 58.6552C263.551 60.5639 263.243 62.4592 262.821 64.3306C262.793 64.456 262.743 64.5755 262.674 64.6842C262.551 64.8753 262.373 65.024 262.163 65.1097C261.953 65.1954 261.721 65.214 261.5 65.163V65.151ZM239.28 95.4984C237.596 96.4149 235.859 97.2292 234.077 97.9371C233.809 98.0332 233.514 98.0213 233.254 97.904C232.995 97.7866 232.791 97.5731 232.686 97.3083C232.581 97.0436 232.583 96.7484 232.691 96.485C232.799 96.2216 233.006 96.0106 233.267 95.8966C234.967 95.2229 236.624 94.4464 238.23 93.5711C238.486 93.4319 238.786 93.3998 239.065 93.482C239.204 93.5228 239.332 93.5903 239.445 93.6808C239.557 93.7714 239.65 93.8831 239.719 94.0096C239.788 94.1362 239.831 94.2751 239.846 94.4184C239.862 94.5617 239.849 94.7066 239.808 94.8448C239.767 94.9831 239.7 95.112 239.609 95.2241C239.519 95.3363 239.407 95.4295 239.28 95.4984ZM228.619 99.734C226.765 100.221 224.883 100.596 222.983 100.858C222.841 100.878 222.695 100.869 222.556 100.832C222.417 100.796 222.286 100.732 222.171 100.645C222.056 100.558 221.96 100.449 221.887 100.325C221.814 100.201 221.767 100.063 221.747 99.9202C221.727 99.7774 221.736 99.6322 221.773 99.4928C221.809 99.3534 221.873 99.2225 221.96 99.1077C222.047 98.9929 222.156 98.8963 222.28 98.8236C222.405 98.7508 222.542 98.7033 222.685 98.6837C224.497 98.4339 226.292 98.0757 228.062 97.6111C228.201 97.5744 228.346 97.5656 228.489 97.5852C228.632 97.6047 228.769 97.6521 228.894 97.7248C229.018 97.7974 229.127 97.8939 229.214 98.0087C229.302 98.1234 229.365 98.2543 229.402 98.3937C229.439 98.5331 229.447 98.6783 229.428 98.8211C229.408 98.9639 229.361 99.1014 229.288 99.2259C229.216 99.3504 229.119 99.4593 229.004 99.5465C228.89 99.6337 228.759 99.6974 228.619 99.734ZM217.25 101.294C215.331 101.324 213.413 101.237 211.506 101.033C211.224 100.993 210.968 100.845 210.793 100.621C210.618 100.396 210.537 100.112 210.568 99.8289C210.598 99.5457 210.737 99.2854 210.955 99.1028C211.174 98.9202 211.455 98.8296 211.739 98.8502C213.558 99.0447 215.386 99.1278 217.215 99.099C217.359 99.0967 217.503 99.1229 217.637 99.176C217.771 99.2292 217.893 99.3082 217.996 99.4086C218.1 99.5091 218.183 99.6289 218.24 99.7613C218.297 99.8937 218.327 100.036 218.329 100.18C218.335 100.396 218.275 100.608 218.158 100.789C218.061 100.944 217.928 101.073 217.769 101.163C217.611 101.253 217.432 101.302 217.25 101.306V101.294Z" fill="#91B3FA"/>
<path opacity="0.3" d="M263.783 53.4819C263.901 53.298 263.961 53.0826 263.955 52.8641C263.933 51.9254 263.883 50.9763 263.807 50.0616C263.8 49.9145 263.763 49.7704 263.699 49.6378C263.635 49.5053 263.545 49.3869 263.434 49.2899C263.323 49.1928 263.194 49.119 263.054 49.0729C262.915 49.0267 262.767 49.0092 262.62 49.0213C262.473 49.0334 262.33 49.0748 262.2 49.1432C262.07 49.2116 261.954 49.3056 261.861 49.4194C261.768 49.5333 261.698 49.6648 261.656 49.806C261.615 49.9473 261.602 50.0955 261.619 50.2418C261.691 51.1188 261.739 52.018 261.76 52.9139C261.765 53.1489 261.845 53.3762 261.989 53.562C262.133 53.7479 262.333 53.8826 262.559 53.9463C262.786 54.0099 263.027 53.9992 263.246 53.9156C263.466 53.8319 263.653 53.6799 263.78 53.4819H263.783Z" fill="#91B3FA"/>
</g>
<path d="M248.859 38.8641C248.824 38.7546 248.755 38.6589 248.663 38.59C248.571 38.5211 248.459 38.4826 248.344 38.4797L241.581 38.3596C239.922 35.6191 237.829 33.1671 235.382 31.1L236.317 24.4069C236.334 24.2923 236.314 24.1754 236.261 24.0726C236.207 23.9698 236.123 23.8862 236.02 23.8337L228.79 20.1524C228.687 20.1 228.57 20.081 228.456 20.0979C228.341 20.1148 228.235 20.1668 228.151 20.2468L223.288 24.9423C220.177 24.1789 216.963 23.9279 213.771 24.1992L209.697 18.8001C209.627 18.7078 209.53 18.6396 209.42 18.6048C209.31 18.5701 209.191 18.5705 209.081 18.6061L201.358 21.1152C201.249 21.1511 201.153 21.2198 201.085 21.312C201.016 21.4041 200.977 21.5151 200.974 21.6301L200.855 28.3936C198.114 30.0509 195.662 32.1447 193.596 34.5925L186.903 33.6555C186.788 33.6394 186.672 33.6596 186.569 33.7131C186.467 33.7667 186.383 33.8509 186.331 33.9541L182.648 41.1844C182.596 41.2877 182.577 41.4046 182.595 41.5189C182.612 41.6333 182.664 41.7395 182.744 41.8228L187.438 46.6865C186.676 49.7973 186.425 53.0114 186.695 56.2029L181.296 60.2771C181.204 60.3471 181.136 60.444 181.101 60.5543C181.066 60.6647 181.067 60.7831 181.102 60.8932L183.611 68.6161C183.647 68.7254 183.715 68.8209 183.807 68.8895C183.9 68.9581 184.011 68.9963 184.126 68.9988L190.889 69.1189C192.548 71.8591 194.642 74.311 197.088 76.3785L196.153 83.0716C196.137 83.1861 196.157 83.3029 196.21 83.4054C196.264 83.508 196.348 83.5911 196.452 83.6431L203.685 87.3226C203.788 87.3755 203.905 87.3949 204.02 87.3779C204.134 87.361 204.241 87.3087 204.324 87.2283L209.187 82.5327C212.299 83.2967 215.513 83.5483 218.705 83.2776L222.78 88.6767C222.849 88.7687 222.946 88.8367 223.056 88.8712C223.166 88.9056 223.284 88.9048 223.394 88.8689L231.117 86.3616C231.226 86.3254 231.321 86.2567 231.39 86.1646C231.459 86.0725 231.498 85.9616 231.501 85.8467L231.62 79.0849C234.361 77.427 236.813 75.3332 238.879 72.886L245.573 73.8213C245.687 73.8372 245.804 73.817 245.907 73.7635C246.01 73.71 246.093 73.6258 246.146 73.5227L249.827 66.2924C249.88 66.1895 249.898 66.0728 249.881 65.9586C249.864 65.8444 249.811 65.7384 249.731 65.6557L245.035 60.7868C245.799 57.6756 246.05 54.4608 245.778 51.2688L251.178 47.1945C251.27 47.1251 251.338 47.0286 251.373 46.9184C251.408 46.8083 251.407 46.69 251.372 46.5801L248.859 38.8641Z" fill="#00B19F" fill-opacity="0.3"/>
<path d="M222.489 59.1996C221.077 60.8116 219.095 61.8136 216.96 61.9949C214.825 62.1763 212.702 61.5228 211.039 60.172C209.376 58.8211 208.301 56.878 208.04 54.751C207.779 52.6241 208.354 50.4789 209.642 48.7664C210.93 47.0539 212.832 45.9075 214.947 45.568C217.063 45.2285 219.228 45.7224 220.988 46.946C222.747 48.1695 223.963 50.0274 224.381 52.1291C224.799 54.2308 224.386 56.4127 223.229 58.2162C223.005 58.5608 222.758 58.8894 222.489 59.1996ZM212.217 58.3415C212.821 58.8693 213.523 59.2729 214.283 59.5294C215.043 59.7859 215.846 59.8902 216.646 59.8364C217.446 59.7825 218.228 59.5715 218.947 59.2155C219.665 58.8595 220.307 58.3654 220.834 57.7614C221.629 56.8519 222.136 55.7273 222.291 54.5297C222.447 53.3322 222.244 52.1154 221.708 51.0333C221.171 49.9511 220.326 49.0523 219.28 48.4504C218.233 47.8484 217.031 47.5704 215.826 47.6515C214.621 47.7326 213.467 48.1692 212.51 48.906C211.553 49.6429 210.837 50.6468 210.45 51.791C210.064 52.9352 210.026 54.1683 210.34 55.3342C210.655 56.5002 211.308 57.5467 212.217 58.3415Z" fill="white"/>
<path d="M233.446 64.9785C234.588 63.2021 235.456 61.2632 236.02 59.2275L236.068 59.0439C236.105 58.9046 236.114 58.7594 236.095 58.6167C236.075 58.4739 236.028 58.3363 235.956 58.2118C235.883 58.0872 235.787 57.9782 235.672 57.8908C235.558 57.8035 235.427 57.7395 235.288 57.7027C235.149 57.6658 235.003 57.6568 234.861 57.676C234.718 57.6953 234.58 57.7425 234.456 57.8149C234.331 57.8874 234.222 57.9836 234.135 58.0982C234.047 58.2128 233.984 58.3434 233.947 58.4827C233.61 59.754 233.139 60.9857 232.541 62.1571L232.442 62.3493C231.028 65.068 228.955 67.3888 226.413 69.0991C225.03 70.0273 223.529 70.765 221.95 71.2924L221.911 71.3062L221.791 71.3456C219.484 72.1023 217.05 72.3941 214.63 72.2041C212.209 72.0141 209.851 71.3461 207.69 70.2387C207.125 69.951 206.575 69.6348 206.041 69.2913C202.066 66.718 199.23 62.7171 198.119 58.114C197.008 53.511 197.706 48.657 200.069 44.5535C202.432 40.45 206.28 37.4101 210.819 36.061C215.358 34.7119 220.242 35.1565 224.463 37.3031C227.44 38.8193 229.952 41.1139 231.729 43.9431C231.887 44.1822 232.133 44.3501 232.413 44.4107C232.693 44.4714 232.986 44.42 233.229 44.2677C233.472 44.1153 233.646 43.874 233.713 43.5953C233.78 43.3165 233.736 43.0225 233.59 42.776C231.942 40.1575 229.728 37.942 227.111 36.2927C224.494 34.6435 221.54 33.6025 218.467 33.2467C215.394 32.8908 212.28 33.229 209.355 34.2364C206.43 35.2438 203.768 36.8946 201.566 39.0674C199.364 41.2401 197.677 43.8793 196.631 46.7905C195.584 49.7016 195.204 52.8105 195.518 55.8881C195.833 58.9657 196.834 61.9335 198.448 64.5728C200.062 67.2121 202.247 69.4556 204.843 71.138C205.439 71.5216 206.055 71.8751 206.686 72.1969C211.25 74.514 216.51 75.0586 221.452 73.7255C226.394 72.3925 230.666 69.2764 233.446 64.9785Z" fill="white"/>
<path d="M14.5958 119.824C45.0549 143.267 216.738 286.901 110.888 472.217C110.888 472.217 -26.4796 406.749 9.38376 121.986C9.4589 121.42 9.68164 120.883 10.0297 120.43C10.3777 119.976 10.8387 119.622 11.3667 119.403C11.8946 119.184 12.4708 119.108 13.0375 119.182C13.6043 119.255 14.1417 119.477 14.5958 119.824Z" fill="#00B19F" fill-opacity="0.3"/>
<g style="mix-blend-mode:soft-light">
<path d="M25.0598 157.015C25.0598 157.015 34.1745 173.025 46.8795 197.555L51.8067 207.134C53.4829 210.458 55.214 213.89 56.9999 217.432C58.7608 220.974 60.5902 224.604 62.406 228.34L65.1776 234.003L67.963 239.785C71.7163 247.559 75.4902 255.643 79.2813 263.879L84.9173 276.342C86.7536 280.545 88.6466 284.751 90.452 288.98C92.2575 293.208 94.1007 297.437 95.8358 301.68C96.7167 303.797 97.5937 305.914 98.4667 308.029C99.3385 310.14 100.169 312.26 101.017 314.362C101.865 316.465 102.697 318.563 103.531 320.65C104.34 322.748 105.141 324.833 105.934 326.908C107.556 331.045 109.061 335.171 110.552 339.225C113.53 347.335 116.248 355.235 118.699 362.769C121.15 370.303 123.322 377.475 125.166 384.144C126.142 387.462 126.94 390.681 127.723 393.738C128.112 395.265 128.492 396.753 128.864 398.2C129.217 399.65 129.518 401.071 129.832 402.442C130.436 405.188 131.061 407.749 131.531 410.138C132.001 412.527 132.406 414.729 132.784 416.714L133.314 419.531C133.45 420.421 133.575 421.257 133.693 422.033C133.928 423.577 134.128 424.908 134.289 425.98L134.787 429.265C134.824 429.555 134.746 429.848 134.57 430.081C134.394 430.315 134.133 430.47 133.844 430.514C133.555 430.557 133.26 430.486 133.023 430.315C132.786 430.145 132.625 429.888 132.574 429.6V429.553C132.574 429.553 132.403 428.421 132.097 426.292C131.941 425.23 131.754 423.919 131.522 422.38C131.408 421.61 131.287 420.782 131.159 419.898C130.997 419.019 130.826 418.087 130.644 417.101C130.278 415.129 129.871 412.944 129.429 410.567C128.986 408.19 128.363 405.647 127.774 402.913C127.469 401.54 127.175 400.136 126.83 398.691C126.485 397.246 126.096 395.773 125.715 394.246C124.949 391.201 124.17 387.996 123.211 384.687C121.405 378.04 119.264 370.887 116.861 363.365C114.458 355.843 111.774 347.953 108.839 339.853C107.369 335.803 105.886 331.679 104.285 327.543C103.497 325.469 102.705 323.384 101.906 321.287L99.4243 314.999C98.5868 312.897 97.7665 310.777 96.9067 308.668C96.0469 306.559 95.175 304.443 94.3066 302.318C92.5904 298.072 90.7696 293.849 88.9864 289.618C87.2033 285.388 85.3309 281.178 83.5152 276.972C81.6468 272.787 79.7887 268.626 77.941 264.486C74.1911 256.248 70.4549 248.151 66.7394 240.368C65.8126 238.423 64.8933 236.493 63.9814 234.578L61.2355 228.915C59.4352 225.173 57.6315 221.535 55.881 217.989C54.1305 214.444 52.3971 211.013 50.7324 207.692C49.0448 204.374 47.4178 201.176 45.8515 198.099C42.7006 191.958 39.783 186.346 37.1607 181.39C34.5384 176.433 32.2335 172.122 30.3199 168.582C26.4842 161.502 24.2274 157.499 24.2274 157.499C24.1968 157.444 24.1771 157.385 24.1695 157.323C24.162 157.261 24.1666 157.198 24.1833 157.138C24.1999 157.078 24.2282 157.022 24.2666 156.973C24.3049 156.924 24.3526 156.883 24.4068 156.852C24.461 156.822 24.5207 156.802 24.5825 156.795C24.6443 156.787 24.707 156.792 24.767 156.808C24.827 156.825 24.8831 156.853 24.9322 156.892C24.9813 156.93 25.0223 156.978 25.0529 157.032L25.0598 157.015Z" fill="white"/>
</g>
<path d="M181.733 203.056C202.907 222.952 321.403 343.784 227.998 475.337C227.998 475.337 129.512 415.876 177.651 204.294C177.748 203.872 177.955 203.483 178.25 203.167C178.546 202.851 178.919 202.618 179.334 202.492C179.748 202.367 180.188 202.353 180.609 202.452C181.03 202.551 181.418 202.759 181.733 203.056Z" fill="#00B19F"/>
<g style="mix-blend-mode:soft-light">
<path d="M186.904 231.783C186.904 231.783 192.577 244.505 200.323 263.901C202.26 268.75 204.325 274.017 206.468 279.603C208.612 285.189 210.836 291.093 213.064 297.23C215.291 303.367 217.553 309.719 219.796 316.195C220.895 319.443 222 322.711 223.114 326C224.185 329.299 225.297 332.599 226.344 335.92C227.39 339.241 228.463 342.554 229.455 345.874C229.96 347.534 230.463 349.189 230.965 350.84C231.468 352.491 231.951 354.143 232.415 355.795C232.894 357.441 233.37 359.08 233.843 360.712C234.295 362.351 234.746 363.981 235.194 365.6C236.109 368.835 236.936 372.051 237.758 375.21C239.399 381.534 240.859 387.68 242.146 393.532C243.433 399.385 244.539 404.943 245.431 410.099C245.922 412.673 246.289 415.151 246.646 417.509C246.826 418.688 247.002 419.836 247.175 420.954C247.333 422.073 247.455 423.164 247.59 424.214C247.841 426.327 248.122 428.299 248.299 430.134C248.476 431.968 248.618 433.655 248.755 435.177C248.822 435.939 248.888 436.66 248.946 437.338C249.004 438.016 249.016 438.656 249.047 439.25C249.109 440.438 249.16 441.447 249.203 442.265C249.289 443.904 249.334 444.778 249.334 444.778C249.348 445.044 249.255 445.305 249.076 445.504C248.898 445.702 248.648 445.821 248.381 445.835C248.115 445.849 247.854 445.756 247.655 445.578C247.457 445.399 247.338 445.149 247.324 444.883V444.834C247.324 444.834 247.285 443.976 247.207 442.349C247.17 441.539 247.123 440.541 247.068 439.367C247.041 438.779 247.011 438.149 246.979 437.479C246.924 436.806 246.867 436.092 246.808 435.337C246.677 433.827 246.535 432.155 246.38 430.334C246.226 428.513 245.944 426.559 245.707 424.456C245.579 423.408 245.464 422.325 245.313 421.211C245.162 420.097 244.969 418.958 244.798 417.779C244.455 415.433 244.111 412.965 243.629 410.399C242.771 405.266 241.692 399.726 240.446 393.889C239.2 388.053 237.768 381.919 236.167 375.605C235.362 372.449 234.554 369.236 233.658 366.005L232.337 361.122C231.871 359.492 231.405 357.853 230.938 356.207L229.517 351.257C229.025 349.606 228.531 347.951 228.034 346.291C227.061 342.968 226.006 339.656 224.979 336.337C223.953 333.018 222.86 329.714 221.808 326.414L218.547 316.607C216.34 310.127 214.133 303.76 211.919 297.628C209.705 291.496 207.525 285.58 205.423 279.985C203.321 274.391 201.275 269.12 199.365 264.267C191.728 244.845 186.126 232.111 186.126 232.111C186.089 232.008 186.092 231.896 186.134 231.796C186.177 231.696 186.256 231.616 186.355 231.572C186.455 231.529 186.567 231.524 186.67 231.561C186.772 231.597 186.857 231.671 186.907 231.767L186.904 231.783Z" fill="white"/>
</g>
<path d="M387.326 150.793H466.841C468.68 150.793 470.445 151.524 471.746 152.825C473.047 154.126 473.777 155.89 473.777 157.73V474.463H380.389V157.73C380.389 155.89 381.12 154.126 382.421 152.825C383.722 151.524 385.486 150.793 387.326 150.793Z" fill="#133540"/>
<path d="M364.302 150.793H443.817C445.657 150.793 447.421 151.524 448.722 152.825C450.023 154.126 450.754 155.89 450.754 157.73V474.463H357.364V157.73C357.364 156.819 357.543 155.917 357.892 155.075C358.241 154.233 358.752 153.468 359.396 152.824C360.04 152.18 360.805 151.669 361.647 151.321C362.489 150.972 363.391 150.793 364.302 150.793Z" fill="#184655"/>
<path d="M364.06 197.803C363.832 197.803 363.614 197.712 363.453 197.551C363.292 197.391 363.201 197.172 363.201 196.945V177.051C363.201 166.51 369.157 157.936 376.478 157.936H397.014C397.242 157.936 397.46 158.026 397.621 158.187C397.782 158.348 397.872 158.566 397.872 158.794C397.872 159.021 397.782 159.239 397.621 159.4C397.46 159.561 397.242 159.652 397.014 159.652H376.48C370.104 159.652 364.918 167.457 364.918 177.051V196.945C364.918 197.172 364.827 197.391 364.666 197.551C364.505 197.712 364.287 197.803 364.06 197.803Z" fill="#91B3FA"/>
<path d="M364.06 218.896C363.832 218.896 363.614 218.806 363.453 218.645C363.292 218.484 363.201 218.265 363.201 218.038V209.934C363.201 209.706 363.292 209.488 363.453 209.327C363.614 209.166 363.832 209.076 364.06 209.076C364.287 209.076 364.505 209.166 364.666 209.327C364.827 209.488 364.918 209.706 364.918 209.934V218.038C364.918 218.265 364.827 218.484 364.666 218.645C364.505 218.806 364.287 218.896 364.06 218.896Z" fill="#91B3FA"/>
<path d="M335.137 473.27C335.137 473.27 340.362 457.095 360.252 448.965C378.707 441.414 423.408 425.102 437.155 409.858C437.764 409.184 438.859 410.102 438.581 411.06C435.607 421.323 426.335 446.02 402.701 462.439C372.221 483.612 335.137 473.27 335.137 473.27Z" fill="#3AA398"/>
<path opacity="0.45" d="M426.281 425.098C425.457 427.045 424.45 428.909 423.272 430.664C422.106 432.433 420.835 434.13 419.466 435.747C416.696 438.975 413.589 441.898 410.198 444.465C403.505 449.719 395.611 453.364 387.716 456.209C385.739 456.937 383.753 457.637 381.766 458.335C379.779 459.034 377.777 459.683 375.771 460.316C373.765 460.949 371.757 461.581 369.747 462.204L363.699 463.982C359.673 465.169 355.633 466.287 351.667 467.586C349.676 468.215 347.72 468.941 345.813 469.748C343.914 470.575 342.095 471.576 340.38 472.739C340.319 472.775 340.247 472.788 340.178 472.774C340.109 472.761 340.047 472.722 340.004 472.666C339.962 472.609 339.942 472.539 339.948 472.469C339.953 472.399 339.985 472.333 340.037 472.285C341.691 470.941 343.487 469.783 345.393 468.83C347.298 467.895 349.244 467.043 351.218 466.292L352.695 465.72L354.187 465.193C355.181 464.84 356.177 464.497 357.174 464.164C359.167 463.477 361.166 462.842 363.166 462.2C367.159 460.908 371.149 459.626 375.119 458.298C379.089 456.969 383.036 455.581 386.961 454.138C388.909 453.391 390.908 452.696 392.796 451.877L395.671 450.693C396.611 450.264 397.534 449.794 398.47 449.348C399.405 448.902 400.34 448.455 401.231 447.929L403.949 446.423C404.838 445.893 405.702 445.322 406.579 444.771C407.013 444.489 407.461 444.225 407.885 443.93L409.148 443.025C412.555 440.649 415.727 437.953 418.623 434.975C419.309 434.203 420.058 433.468 420.734 432.677C421.41 431.886 422.095 431.098 422.72 430.264C424.023 428.629 425.192 426.892 426.215 425.069C426.217 425.065 426.22 425.061 426.223 425.057C426.226 425.054 426.23 425.052 426.235 425.05C426.239 425.048 426.244 425.048 426.248 425.048C426.253 425.048 426.258 425.05 426.262 425.052C426.27 425.056 426.277 425.063 426.281 425.071C426.284 425.08 426.284 425.09 426.281 425.098Z" fill="white"/>
<path d="M457.862 311.948C458.123 310.363 456.08 309.479 455.116 310.759C445.728 323.14 420.105 354.831 395.022 367.129C354.192 387.152 315.219 430.431 323.134 463.923C323.123 463.914 429.459 484.723 457.862 311.948Z" fill="#00B19F"/>
<path opacity="0.43" d="M447.307 330.732C447.091 331.176 446.88 331.523 446.668 331.905L446.022 333.023L444.702 335.238C443.813 336.709 442.901 338.166 441.99 339.621C440.16 342.529 438.293 345.414 436.392 348.276C432.589 354.001 428.631 359.622 424.59 365.181C420.548 370.74 416.364 376.199 412.062 381.56C407.759 386.922 403.366 392.214 398.807 397.365C389.712 407.682 380.036 417.516 369.711 426.612C364.499 431.108 359.169 435.473 353.596 439.516C347.994 443.518 342.221 447.285 336.199 450.61C336.133 450.648 336.056 450.658 335.982 450.639C335.909 450.619 335.847 450.571 335.809 450.506C335.771 450.44 335.76 450.362 335.78 450.289C335.799 450.216 335.847 450.153 335.912 450.115C341.764 446.559 347.43 442.705 352.887 438.569C358.358 434.45 363.586 430.024 368.688 425.466C373.79 420.907 378.712 416.136 383.52 411.262C388.327 406.388 392.929 401.308 397.505 396.216C406.614 385.981 415.171 375.26 423.431 364.321C427.55 358.841 431.562 353.282 435.467 347.645C437.427 344.832 439.358 341.999 441.259 339.146L444.074 334.842L445.459 332.678L446.145 331.588C446.363 331.229 446.602 330.843 446.777 330.524L446.809 330.467C446.846 330.404 446.905 330.358 446.975 330.337C447.044 330.317 447.119 330.324 447.184 330.357C447.249 330.39 447.298 330.447 447.322 330.516C447.346 330.585 447.342 330.66 447.312 330.726L447.307 330.732Z" fill="white"/>
<path d="M257.565 237.963H334.33C335.241 237.963 336.143 238.142 336.985 238.491C337.826 238.84 338.591 239.351 339.235 239.995C339.879 240.639 340.39 241.404 340.739 242.245C341.088 243.087 341.267 243.989 341.267 244.9V474.465H250.633V244.901C250.633 243.062 251.363 241.298 252.662 239.997C253.962 238.696 255.726 237.964 257.565 237.963Z" fill="#CC7026"/>
<path d="M234.546 237.963H311.311C313.151 237.963 314.916 238.694 316.216 239.995C317.517 241.296 318.248 243.06 318.248 244.9V474.465H227.607V244.901C227.607 243.99 227.786 243.088 228.135 242.246C228.484 241.404 228.995 240.639 229.639 239.995C230.283 239.35 231.048 238.839 231.89 238.491C232.732 238.142 233.635 237.963 234.546 237.963Z" fill="#F7882F"/>
<g style="mix-blend-mode:soft-light">
<path d="M233.684 282.166C233.456 282.166 233.238 282.076 233.077 281.915C232.916 281.754 232.826 281.536 232.826 281.308V264.529C232.826 255.565 237.933 248.273 244.209 248.273H261.616C261.844 248.273 262.062 248.364 262.223 248.525C262.384 248.686 262.475 248.904 262.475 249.132C262.475 249.359 262.384 249.577 262.223 249.738C262.062 249.899 261.844 249.99 261.616 249.99H244.209C238.879 249.99 234.542 256.511 234.542 264.529V281.308C234.542 281.536 234.451 281.754 234.291 281.915C234.13 282.076 233.911 282.166 233.684 282.166Z" fill="white"/>
</g>
<g style="mix-blend-mode:soft-light">
<path d="M233.684 299.958C233.456 299.958 233.238 299.867 233.077 299.706C232.916 299.545 232.826 299.327 232.826 299.099V292.264C232.826 292.036 232.916 291.818 233.077 291.657C233.238 291.496 233.456 291.406 233.684 291.406C233.911 291.406 234.13 291.496 234.291 291.657C234.452 291.818 234.542 292.036 234.542 292.264V299.099C234.542 299.327 234.452 299.545 234.291 299.706C234.13 299.867 233.911 299.958 233.684 299.958Z" fill="white"/>
</g>
<path d="M143.546 314.16H207.774C209.614 314.16 211.378 314.89 212.679 316.191C213.98 317.492 214.711 319.257 214.711 321.097V474.135H136.607V321.098C136.607 320.187 136.786 319.285 137.135 318.443C137.483 317.601 137.994 316.836 138.639 316.191C139.283 315.547 140.048 315.036 140.89 314.687C141.732 314.339 142.634 314.159 143.546 314.16Z" fill="#133540"/>
<path d="M120.521 314.16H184.749C186.589 314.16 188.353 314.89 189.654 316.191C190.955 317.492 191.686 319.257 191.686 321.097V474.135H113.577V321.098C113.577 320.187 113.756 319.284 114.105 318.442C114.454 317.599 114.966 316.834 115.61 316.19C116.255 315.545 117.021 315.034 117.863 314.686C118.706 314.338 119.609 314.159 120.521 314.16Z" fill="#184655"/>
<path d="M120.03 359.795C119.803 359.795 119.585 359.705 119.424 359.544C119.263 359.383 119.172 359.165 119.172 358.937V339.98C119.172 329.913 125.129 321.723 132.449 321.723H152.985C153.212 321.723 153.431 321.814 153.592 321.974C153.752 322.135 153.843 322.354 153.843 322.581C153.843 322.809 153.752 323.027 153.592 323.188C153.431 323.349 153.212 323.439 152.985 323.439H132.454C126.08 323.439 120.894 330.858 120.894 339.98V358.939C120.893 359.052 120.871 359.164 120.827 359.268C120.784 359.372 120.72 359.467 120.64 359.546C120.56 359.626 120.465 359.689 120.36 359.732C120.255 359.774 120.143 359.796 120.03 359.795Z" fill="#91B3FA"/>
<path d="M120.03 379.903C119.803 379.903 119.585 379.812 119.424 379.652C119.263 379.491 119.172 379.272 119.172 379.045V371.322C119.172 371.094 119.263 370.876 119.424 370.715C119.585 370.554 119.803 370.464 120.03 370.464C120.258 370.464 120.476 370.554 120.637 370.715C120.798 370.876 120.889 371.094 120.889 371.322V379.045C120.889 379.272 120.798 379.491 120.637 379.652C120.476 379.812 120.258 379.903 120.03 379.903Z" fill="#91B3FA"/>
<path d="M29.9601 394.639H94.1819C95.0929 394.639 95.9949 394.818 96.8366 395.167C97.6782 395.515 98.4429 396.026 99.0871 396.67C99.7312 397.315 100.242 398.079 100.591 398.921C100.939 399.763 101.119 400.665 101.119 401.576V474.139H23.0232V401.576C23.0232 399.736 23.754 397.971 25.055 396.67C26.3559 395.37 28.1203 394.639 29.9601 394.639Z" fill="#CC7026"/>
<path d="M6.93686 394.639H71.1654C73.0052 394.639 74.7696 395.37 76.0705 396.67C77.3714 397.971 78.1023 399.736 78.1023 401.576V474.139H0V401.576C0 400.665 0.179431 399.763 0.528041 398.921C0.87665 398.079 1.38761 397.315 2.03176 396.67C2.67591 396.026 3.44062 395.515 4.28224 395.167C5.12385 394.818 6.0259 394.639 6.93686 394.639Z" fill="#F7882F"/>
<g style="mix-blend-mode:soft-light">
<path d="M5.55122 438.971C5.32363 438.971 5.10537 438.881 4.94445 438.72C4.78352 438.559 4.69312 438.341 4.69312 438.113V419.147C4.69312 409.08 10.65 400.891 17.9696 400.891H38.5074C38.735 400.891 38.9532 400.981 39.1142 401.142C39.2751 401.303 39.3655 401.521 39.3655 401.749C39.3655 401.976 39.2751 402.195 39.1142 402.355C38.9532 402.516 38.735 402.607 38.5074 402.607H17.9696C11.5957 402.607 6.40931 410.026 6.40931 419.147V438.113C6.40931 438.341 6.31891 438.559 6.15798 438.72C5.99706 438.881 5.7788 438.971 5.55122 438.971Z" fill="white"/>
</g>
<g style="mix-blend-mode:soft-light">
<path d="M5.55122 459.063C5.32364 459.063 5.10538 458.973 4.94445 458.812C4.78352 458.651 4.69312 458.433 4.69312 458.205V450.482C4.69312 450.255 4.78352 450.036 4.94445 449.875C5.10538 449.714 5.32364 449.624 5.55122 449.624C5.77881 449.624 5.99707 449.714 6.15799 449.875C6.31892 450.036 6.40933 450.255 6.40933 450.482V458.205C6.40933 458.433 6.31892 458.651 6.15799 458.812C5.99707 458.973 5.77881 459.063 5.55122 459.063Z" fill="white"/>
</g>
<path d="M280.934 141.977L282.323 141.172L282.556 141.047C282.961 140.83 283.807 140.381 284.936 139.687C285.093 139.599 285.276 139.569 285.453 139.604C285.63 139.639 285.788 139.736 285.899 139.878C285.953 139.942 285.993 140.017 286.015 140.098C286.037 140.178 286.042 140.263 286.028 140.346C286.015 140.428 285.983 140.507 285.937 140.577C285.89 140.646 285.828 140.705 285.757 140.748C285.274 141.043 284.844 141.295 284.475 141.505C284.56 141.572 284.627 141.66 284.668 141.761C284.71 141.861 284.725 141.97 284.713 142.078C284.697 142.162 284.665 142.242 284.617 142.313C284.569 142.384 284.508 142.444 284.436 142.491C284.364 142.537 284.284 142.569 284.2 142.583C284.115 142.597 284.029 142.594 283.946 142.574C283.088 142.421 282.613 142.325 282.613 142.325L280.934 141.977ZM287.842 142.734C287.829 142.677 287.825 142.62 287.83 142.562C287.841 142.478 287.87 142.396 287.913 142.323C287.957 142.25 288.016 142.187 288.085 142.137C288.154 142.087 288.233 142.052 288.316 142.034C288.4 142.016 288.486 142.015 288.569 142.032C290.035 142.231 291.54 142.408 293.042 142.559C293.219 142.57 293.386 142.648 293.508 142.777C293.63 142.906 293.699 143.076 293.701 143.254C293.693 143.338 293.668 143.421 293.628 143.495C293.587 143.57 293.531 143.635 293.464 143.687C293.397 143.739 293.32 143.777 293.237 143.798C293.155 143.819 293.069 143.823 292.985 143.81C291.466 143.657 289.946 143.478 288.461 143.278C288.315 143.26 288.178 143.199 288.067 143.102C287.956 143.005 287.878 142.876 287.842 142.734ZM288.164 137.928C288.14 137.821 288.147 137.709 288.185 137.605C288.223 137.502 288.29 137.412 288.379 137.347C289.476 136.521 290.528 135.637 291.53 134.698C291.666 134.582 291.84 134.52 292.019 134.524C292.198 134.527 292.37 134.596 292.501 134.717C292.567 134.77 292.621 134.836 292.659 134.911C292.698 134.986 292.72 135.068 292.724 135.152C292.729 135.236 292.715 135.32 292.685 135.399C292.654 135.478 292.608 135.549 292.548 135.608C291.515 136.577 290.43 137.489 289.299 138.34C289.151 138.442 288.971 138.487 288.792 138.467C288.613 138.447 288.447 138.363 288.326 138.23C288.246 138.144 288.19 138.038 288.164 137.923V137.928ZM294.187 132.212C294.167 132.129 294.167 132.042 294.186 131.959C294.205 131.876 294.243 131.799 294.296 131.733C295.14 130.699 295.893 129.595 296.548 128.433C296.643 128.284 296.791 128.177 296.962 128.134C297.134 128.092 297.315 128.117 297.468 128.204C297.546 128.239 297.616 128.289 297.674 128.351C297.733 128.413 297.778 128.487 297.807 128.567C297.836 128.647 297.849 128.732 297.845 128.817C297.841 128.902 297.819 128.986 297.782 129.062C297.095 130.281 296.306 131.438 295.422 132.522C295.302 132.654 295.138 132.736 294.961 132.753C294.784 132.77 294.607 132.721 294.465 132.615C294.324 132.518 294.225 132.372 294.187 132.207V132.212ZM296.843 143.648C296.834 143.606 296.829 143.562 296.828 143.518C296.832 143.434 296.853 143.351 296.89 143.275C296.927 143.199 296.98 143.132 297.044 143.078C297.109 143.023 297.184 142.982 297.265 142.958C297.345 142.934 297.43 142.926 297.514 142.936C299.006 143.037 300.513 143.108 301.992 143.166C302.17 143.168 302.34 143.236 302.471 143.356C302.602 143.477 302.684 143.641 302.701 143.818C302.701 143.903 302.683 143.987 302.649 144.065C302.615 144.142 302.565 144.212 302.502 144.269C302.439 144.326 302.365 144.369 302.285 144.396C302.204 144.423 302.119 144.432 302.035 144.424C300.538 144.373 299.016 144.294 297.506 144.191C297.352 144.181 297.204 144.123 297.085 144.025C296.966 143.927 296.882 143.793 296.843 143.643V143.648ZM298.094 125.101C298.073 125.005 298.078 124.905 298.106 124.811C298.381 123.915 298.577 122.996 298.693 122.066C298.745 121.658 298.802 121.265 298.865 120.885C298.883 120.801 298.919 120.722 298.968 120.652C299.018 120.582 299.081 120.523 299.154 120.478C299.227 120.434 299.309 120.404 299.393 120.391C299.478 120.378 299.565 120.383 299.648 120.404C299.822 120.431 299.979 120.524 300.087 120.664C300.194 120.803 300.244 120.979 300.226 121.154C300.165 121.521 300.108 121.901 300.054 122.294C299.929 123.282 299.718 124.259 299.426 125.211C299.396 125.292 299.35 125.366 299.292 125.43C299.233 125.493 299.163 125.544 299.084 125.58C299.006 125.615 298.921 125.636 298.835 125.639C298.749 125.642 298.663 125.628 298.582 125.597C298.464 125.563 298.358 125.498 298.273 125.41C298.187 125.323 298.126 125.215 298.094 125.096V125.101ZM295.738 109.45L295.487 108.204C296.445 108.02 297.164 107.531 297.89 106.572C298.006 106.437 298.167 106.35 298.344 106.328C298.52 106.307 298.698 106.352 298.843 106.455C298.916 106.498 298.98 106.555 299.03 106.624C299.08 106.693 299.115 106.771 299.134 106.854C299.152 106.937 299.153 107.023 299.136 107.107C299.119 107.19 299.085 107.269 299.037 107.339C298.545 108.024 297.905 108.589 297.164 108.992C297.125 109.122 297.044 109.236 296.934 109.316C296.824 109.396 296.691 109.437 296.555 109.434L295.738 109.45ZM299.871 117.173C299.848 117.067 299.855 116.957 299.891 116.855C300.36 115.521 301.023 114.263 301.858 113.121C301.972 112.985 302.133 112.897 302.309 112.874C302.485 112.851 302.664 112.895 302.809 112.997C302.883 113.039 302.947 113.096 302.997 113.165C303.048 113.233 303.084 113.311 303.103 113.394C303.122 113.477 303.124 113.563 303.108 113.646C303.092 113.73 303.059 113.809 303.011 113.879C302.242 114.933 301.632 116.094 301.201 117.325C301.13 117.485 301 117.61 300.838 117.675C300.676 117.739 300.495 117.737 300.334 117.669C300.221 117.631 300.12 117.566 300.039 117.479C299.958 117.392 299.9 117.286 299.871 117.171V117.173ZM305.845 143.945C305.838 143.918 305.834 143.891 305.831 143.863C305.827 143.778 305.841 143.694 305.872 143.615C305.902 143.536 305.949 143.465 306.01 143.406C306.07 143.346 306.142 143.3 306.221 143.27C306.3 143.241 306.385 143.228 306.469 143.233C307.968 143.233 309.466 143.2 310.932 143.142C311.11 143.133 311.286 143.188 311.426 143.299C311.567 143.41 311.662 143.569 311.694 143.745C311.702 143.829 311.692 143.913 311.665 143.993C311.638 144.073 311.594 144.146 311.537 144.208C311.479 144.27 311.409 144.319 311.332 144.352C311.254 144.385 311.17 144.402 311.086 144.4C309.608 144.458 308.091 144.489 306.574 144.491C306.41 144.496 306.249 144.446 306.117 144.348C305.985 144.251 305.889 144.112 305.845 143.954V143.945ZM300.327 108.832C300.321 108.805 300.317 108.777 300.315 108.75C300.311 108.665 300.324 108.581 300.354 108.502C300.385 108.423 300.431 108.351 300.491 108.292C300.551 108.232 300.623 108.186 300.702 108.156C300.781 108.126 300.866 108.113 300.95 108.118C302.699 108.118 304.221 108.118 305.472 108.147C305.65 108.147 305.822 108.213 305.955 108.331C306.088 108.45 306.172 108.614 306.191 108.791C306.193 108.875 306.177 108.959 306.144 109.037C306.112 109.115 306.063 109.185 306.001 109.243C305.939 109.301 305.866 109.346 305.787 109.373C305.707 109.401 305.622 109.412 305.538 109.405C304.297 109.379 302.792 109.369 301.051 109.376C300.888 109.379 300.728 109.328 300.596 109.23C300.465 109.132 300.37 108.993 300.327 108.835V108.832ZM299.888 103.531C299.857 103.395 299.877 103.252 299.944 103.131C300.542 102.063 301.218 100.9 302.1 99.6057C302.209 99.4657 302.367 99.3719 302.542 99.3429C302.718 99.314 302.897 99.352 303.046 99.4495C303.121 99.4897 303.187 99.5449 303.239 99.6115C303.292 99.6782 303.331 99.755 303.353 99.8371C303.375 99.9193 303.38 100.005 303.367 100.089C303.355 100.173 303.325 100.254 303.281 100.326C302.423 101.579 301.764 102.719 301.178 103.759C301.099 103.872 300.989 103.959 300.861 104.012C300.734 104.064 300.594 104.079 300.458 104.054C300.322 104.029 300.196 103.966 300.095 103.872C299.994 103.778 299.922 103.657 299.888 103.524V103.531ZM304.853 110.83C304.825 110.708 304.838 110.581 304.889 110.468C304.941 110.355 305.028 110.262 305.138 110.203C306.224 109.614 307.391 109.187 308.601 108.937C308.845 108.88 309.044 108.835 309.183 108.786C309.351 108.709 309.541 108.693 309.72 108.741C309.899 108.788 310.056 108.896 310.164 109.046C310.214 109.111 310.249 109.186 310.266 109.266C310.284 109.346 310.283 109.429 310.264 109.509C310.245 109.588 310.209 109.663 310.157 109.727C310.106 109.79 310.041 109.842 309.967 109.877C309.907 109.906 309.837 109.935 309.753 109.966C309.581 110.026 309.332 110.086 309.028 110.159C307.94 110.379 306.891 110.76 305.915 111.288C305.755 111.371 305.571 111.395 305.396 111.354C305.22 111.313 305.065 111.21 304.959 111.065C304.908 110.995 304.872 110.916 304.853 110.831V110.83ZM314.791 143.587V143.557C314.778 143.474 314.782 143.388 314.805 143.307C314.827 143.225 314.867 143.149 314.921 143.084C314.975 143.019 315.042 142.966 315.119 142.93C315.195 142.893 315.278 142.873 315.363 142.871C316.681 142.761 317.992 142.627 319.259 142.471L319.756 142.408C319.934 142.383 320.115 142.424 320.265 142.523C320.415 142.622 320.524 142.772 320.571 142.945C320.589 143.027 320.588 143.111 320.57 143.193C320.551 143.275 320.516 143.352 320.466 143.419C320.415 143.486 320.351 143.541 320.278 143.581C320.204 143.621 320.123 143.646 320.039 143.652L319.535 143.715C318.248 143.875 316.916 144.011 315.588 144.12C315.414 144.141 315.238 144.098 315.092 144.001C314.946 143.904 314.84 143.758 314.791 143.59V143.587ZM304.537 96.81C304.517 96.7231 304.518 96.6325 304.539 96.546C304.561 96.4594 304.603 96.3793 304.662 96.3123C305.591 95.2611 306.577 94.2619 307.616 93.3193C307.754 93.2053 307.929 93.1457 308.109 93.1517C308.288 93.1577 308.459 93.2289 308.589 93.3519C308.654 93.4055 308.707 93.4723 308.744 93.5479C308.781 93.6235 308.802 93.7061 308.805 93.7903C308.808 93.8744 308.793 93.9583 308.761 94.0362C308.729 94.1142 308.681 94.1845 308.62 94.2426C307.613 95.155 306.657 96.1227 305.757 97.1412C305.633 97.2689 305.465 97.3456 305.287 97.3564C305.109 97.3671 304.933 97.3113 304.794 97.1996C304.665 97.1059 304.574 96.9688 304.537 96.8134V96.81ZM310.664 91.2049C310.64 91.0974 310.647 90.9852 310.686 90.882C310.724 90.7787 310.792 90.6888 310.88 90.6231C311.123 90.4435 311.369 90.2621 311.618 90.0791C312.534 89.4145 313.488 88.8042 314.476 88.2513C314.635 88.1683 314.82 88.1454 314.995 88.1866C315.17 88.2279 315.325 88.3306 315.431 88.4761C315.482 88.5418 315.518 88.6176 315.537 88.6983C315.556 88.7791 315.557 88.8629 315.541 88.9443C315.525 89.0256 315.491 89.1025 315.443 89.1698C315.394 89.237 315.332 89.2931 315.26 89.3342C314.311 89.866 313.396 90.454 312.517 91.0951C312.272 91.2667 312.033 91.4503 311.797 91.6271C311.648 91.7288 311.468 91.7735 311.29 91.753C311.111 91.7325 310.946 91.6482 310.825 91.5155C310.746 91.4289 310.69 91.323 310.664 91.2083V91.2049ZM323.595 142.438C323.579 142.36 323.579 142.278 323.595 142.199C323.612 142.121 323.644 142.046 323.691 141.98C323.737 141.914 323.797 141.859 323.866 141.817C323.935 141.776 324.011 141.749 324.091 141.738C325.547 141.472 326.981 141.167 328.358 140.829C328.533 140.787 328.717 140.81 328.877 140.892C329.037 140.975 329.162 141.112 329.23 141.278C329.26 141.357 329.273 141.441 329.267 141.525C329.261 141.61 329.236 141.691 329.195 141.765C329.153 141.838 329.096 141.902 329.028 141.951C328.959 141.999 328.88 142.032 328.797 142.047C327.395 142.39 325.931 142.703 324.448 142.974C324.272 143.007 324.089 142.975 323.934 142.884C323.779 142.792 323.663 142.648 323.606 142.478L323.595 142.438ZM318.085 87.0723C318.054 86.9343 318.075 86.7897 318.145 86.6665C318.214 86.5433 318.327 86.45 318.461 86.4047C319.858 85.8814 321.292 85.4626 322.751 85.1519C322.927 85.1142 323.11 85.141 323.268 85.2273C323.425 85.3136 323.546 85.4538 323.609 85.6221C323.634 85.7019 323.642 85.7861 323.632 85.8691C323.622 85.9522 323.595 86.0321 323.551 86.1036C323.508 86.1751 323.45 86.2365 323.381 86.2837C323.312 86.3309 323.233 86.3628 323.151 86.3772C321.759 86.6782 320.391 87.0797 319.058 87.5786C318.889 87.6399 318.704 87.6391 318.535 87.5762C318.367 87.5133 318.227 87.3924 318.14 87.2353C318.114 87.1848 318.096 87.1311 318.085 87.0757V87.0723ZM332.116 140.35C332.083 140.205 332.107 140.052 332.184 139.924C332.26 139.796 332.383 139.703 332.526 139.663C333.911 139.224 335.272 138.737 336.563 138.215C336.732 138.15 336.918 138.149 337.087 138.21C337.257 138.271 337.399 138.391 337.488 138.548C337.529 138.62 337.554 138.701 337.562 138.784C337.569 138.867 337.558 138.951 337.529 139.03C337.501 139.108 337.456 139.179 337.397 139.239C337.338 139.298 337.268 139.344 337.189 139.373C335.864 139.907 334.473 140.403 333.055 140.856C332.883 140.909 332.697 140.898 332.532 140.825C332.367 140.753 332.234 140.624 332.156 140.461C332.139 140.426 332.126 140.388 332.116 140.35ZM326.662 85.2291V85.1965C326.649 85.1125 326.653 85.0266 326.676 84.9446C326.699 84.8626 326.739 84.7864 326.793 84.7212C326.848 84.6561 326.916 84.6035 326.993 84.5671C327.07 84.5306 327.154 84.5112 327.239 84.51C328.763 84.3968 330.292 84.3808 331.818 84.462C331.994 84.468 332.162 84.5395 332.289 84.6625C332.416 84.7856 332.493 84.9515 332.504 85.1279C332.502 85.2125 332.483 85.2959 332.447 85.3726C332.411 85.4493 332.36 85.5177 332.296 85.5735C332.232 85.6292 332.157 85.671 332.076 85.6962C331.996 85.7214 331.91 85.7295 331.826 85.7199C330.363 85.6411 328.897 85.656 327.436 85.7646C327.264 85.7788 327.093 85.7325 326.952 85.6338C326.81 85.5351 326.708 85.3901 326.662 85.224V85.2291ZM340.116 137.11C340.087 136.984 340.102 136.852 340.159 136.737C340.215 136.621 340.308 136.527 340.424 136.471C341.689 135.828 342.915 135.131 344.068 134.396C344.223 134.305 344.405 134.272 344.582 134.304C344.759 134.335 344.919 134.429 345.032 134.568C345.087 134.631 345.128 134.705 345.151 134.786C345.175 134.866 345.181 134.95 345.169 135.033C345.157 135.116 345.127 135.195 345.081 135.265C345.036 135.335 344.976 135.395 344.905 135.44C343.718 136.195 342.456 136.914 341.156 137.575C340.992 137.652 340.807 137.668 340.633 137.621C340.459 137.573 340.308 137.465 340.206 137.316C340.163 137.251 340.132 137.18 340.114 137.105L340.116 137.11ZM335.638 85.7011C335.626 85.6329 335.626 85.5632 335.638 85.4951C335.654 85.4111 335.687 85.3312 335.735 85.2603C335.782 85.1894 335.844 85.129 335.916 85.0828C335.988 85.0365 336.069 85.0054 336.153 84.9913C336.237 84.9772 336.324 84.9805 336.407 85.0009C337.418 85.1828 340.2 85.7731 341.041 86.3069L342.698 87.3366C342.773 87.3768 342.839 87.4322 342.892 87.499C342.944 87.5659 342.983 87.6429 343.004 87.7253C343.025 87.8076 343.03 87.8935 343.016 87.9775C343.003 88.0615 342.972 88.1419 342.927 88.2136C342.816 88.3522 342.658 88.4443 342.483 88.4717C342.307 88.499 342.128 88.4596 341.981 88.3612L340.265 87.2954C339.949 87.1512 338.483 86.6467 336.215 86.2382C336.076 86.2133 335.948 86.1489 335.846 86.0526C335.743 85.9563 335.671 85.8324 335.638 85.6959V85.7011ZM347.236 132.553C347.212 132.449 347.218 132.34 347.254 132.239C347.29 132.138 347.354 132.049 347.439 131.983C348.505 131.131 349.522 130.219 350.485 129.251C350.617 129.131 350.788 129.063 350.967 129.061C351.145 129.059 351.318 129.123 351.453 129.241C351.52 129.291 351.577 129.355 351.618 129.429C351.659 129.503 351.684 129.584 351.692 129.669C351.699 129.753 351.689 129.837 351.661 129.917C351.634 129.997 351.59 130.07 351.532 130.132C350.537 131.132 349.485 132.075 348.382 132.955C348.238 133.061 348.059 133.11 347.881 133.095C347.702 133.079 347.535 132.999 347.411 132.869C347.325 132.783 347.265 132.675 347.236 132.557V132.553ZM353.057 126.682C353.039 126.601 353.038 126.516 353.056 126.434C353.074 126.353 353.111 126.276 353.162 126.21C353.986 125.151 354.745 124.044 355.436 122.894C355.536 122.749 355.688 122.647 355.861 122.609C356.034 122.571 356.214 122.601 356.366 122.692C356.442 122.728 356.51 122.78 356.566 122.843C356.622 122.906 356.664 122.98 356.691 123.06C356.718 123.14 356.728 123.225 356.722 123.309C356.715 123.393 356.692 123.475 356.653 123.55C355.939 124.74 355.153 125.886 354.302 126.982C354.184 127.116 354.021 127.202 353.845 127.222C353.668 127.242 353.49 127.195 353.346 127.091C353.202 126.996 353.099 126.852 353.057 126.686V126.682ZM345.506 90.3108C345.488 90.2339 345.486 90.1541 345.502 90.0765C345.517 89.999 345.548 89.9256 345.594 89.8611C345.704 89.7221 345.862 89.6298 346.038 89.6027C346.213 89.5757 346.392 89.6159 346.539 89.7152L350.375 92.1059C350.45 92.1462 350.516 92.2015 350.568 92.2683C350.621 92.3352 350.659 92.4122 350.681 92.4946C350.702 92.5769 350.706 92.6628 350.693 92.7468C350.68 92.8308 350.649 92.9112 350.603 92.9829C350.493 93.1215 350.334 93.2136 350.159 93.241C349.984 93.2683 349.805 93.2289 349.658 93.1305L345.825 90.7518C345.746 90.7038 345.678 90.6403 345.624 90.5651C345.57 90.4899 345.531 90.4046 345.511 90.3142L345.506 90.3108ZM357.255 119.706C357.227 119.586 357.239 119.46 357.291 119.349C357.84 118.132 358.323 116.887 358.74 115.619C358.812 115.464 358.94 115.341 359.097 115.273C359.255 115.205 359.432 115.198 359.595 115.252C359.758 115.306 359.895 115.418 359.981 115.567C360.066 115.716 360.094 115.891 360.059 116.059C359.63 117.364 359.133 118.645 358.568 119.898C358.484 120.052 358.345 120.168 358.178 120.222C358.012 120.276 357.831 120.265 357.672 120.19C357.571 120.147 357.481 120.082 357.409 119.999C357.338 119.915 357.287 119.816 357.26 119.709L357.255 119.706ZM353.181 95.0921C353.163 95.0152 353.161 94.9354 353.176 94.8579C353.191 94.7803 353.223 94.7069 353.268 94.6424C353.379 94.5038 353.537 94.4119 353.712 94.3848C353.887 94.3578 354.066 94.3977 354.212 94.4966L358.05 96.8872C358.125 96.9275 358.191 96.9828 358.243 97.0497C358.296 97.1165 358.334 97.1936 358.355 97.2759C358.377 97.3582 358.381 97.4441 358.368 97.5281C358.354 97.6121 358.324 97.6925 358.278 97.7642C358.168 97.9028 358.009 97.995 357.834 98.0223C357.659 98.0496 357.48 98.0102 357.332 97.9118L353.5 95.5246C353.422 95.4775 353.354 95.4154 353.3 95.3417C353.246 95.268 353.207 95.1843 353.186 95.0955L353.181 95.0921ZM359.795 112.005C359.777 111.924 359.777 111.839 359.795 111.758C360.078 110.485 360.31 109.151 360.492 107.797C360.507 107.713 360.54 107.633 360.587 107.561C360.634 107.49 360.696 107.429 360.767 107.382C360.839 107.336 360.919 107.304 361.003 107.289C361.088 107.274 361.174 107.276 361.257 107.296C361.433 107.318 361.594 107.406 361.706 107.544C361.818 107.682 361.873 107.857 361.858 108.034C361.674 109.419 361.434 110.78 361.146 112.089C361.122 112.172 361.083 112.249 361.029 112.316C360.975 112.383 360.909 112.439 360.834 112.48C360.758 112.521 360.675 112.547 360.59 112.555C360.504 112.564 360.418 112.556 360.336 112.53C360.207 112.5 360.09 112.436 359.995 112.344C359.901 112.252 359.834 112.136 359.8 112.009L359.795 112.005ZM360.871 103.939C360.86 103.887 360.856 103.834 360.859 103.781C360.923 102.58 360.95 101.339 360.938 100.081C360.873 99.9851 360.838 99.8718 360.838 99.7558C360.838 99.6399 360.873 99.5266 360.938 99.4306C361.049 99.2919 361.207 99.1999 361.382 99.1728C361.558 99.1458 361.737 99.1858 361.884 99.2847L362.303 99.5439V99.8871C362.32 101.26 362.303 102.618 362.225 103.925C362.217 104.01 362.191 104.092 362.15 104.167C362.109 104.241 362.053 104.306 361.985 104.358C361.917 104.409 361.84 104.447 361.757 104.467C361.674 104.487 361.588 104.491 361.504 104.476C361.358 104.46 361.22 104.399 361.108 104.303C360.997 104.206 360.917 104.078 360.88 103.936L360.871 103.939Z" fill="white"/>
<path d="M348.58 92.9005C348.58 92.9005 329.089 87.7931 324.43 100.251C319.77 112.709 318.536 126.552 312.351 129.018C312.351 129.018 351.348 132.32 354.139 97.1927L348.58 92.9005Z" fill="#D03D50"/>
<path d="M355.281 55.4777C355.281 55.4777 338.816 44.755 333.003 47.3155C327.476 49.7508 302.284 81.4558 299.829 84.545C299.804 84.5796 299.786 84.6191 299.776 84.661C299.766 84.7028 299.764 84.7463 299.772 84.7887C299.779 84.8312 299.794 84.8717 299.818 84.9079C299.841 84.9442 299.871 84.9754 299.907 84.9997C300.524 85.4955 301.239 85.8546 302.005 86.0534C302.772 86.2522 303.571 86.2862 304.352 86.153C311.845 84.8195 334.162 80.6612 340.32 77.385C347.752 73.4326 355.281 55.4777 355.281 55.4777Z" fill="#A4303F"/>
<g style="mix-blend-mode:soft-light">
<path d="M310.939 74.8281C310.926 74.773 310.926 74.7157 310.939 74.6606C310.953 74.6056 310.978 74.5543 311.014 74.5106C311.157 74.339 325.303 57.2148 331.725 50.0805C332.868 48.8105 334.772 48.3283 336.574 48.8534C340.047 49.8643 345.192 51.5873 349.977 54.0518C350.028 54.0745 350.074 54.1072 350.112 54.1482C350.15 54.1891 350.18 54.2373 350.199 54.29C350.218 54.3426 350.226 54.3985 350.223 54.4543C350.219 54.5101 350.205 54.5647 350.18 54.6147C350.117 54.712 350.02 54.7817 349.907 54.8095C349.795 54.8373 349.676 54.821 349.576 54.764C344.616 52.2069 339.165 50.4546 336.361 49.636C334.904 49.2121 333.364 49.6017 332.441 50.6297C326.031 57.7519 311.893 74.8642 311.752 75.0358C311.672 75.1213 311.564 75.1742 311.448 75.1843C311.331 75.1945 311.215 75.1611 311.122 75.0907C311.031 75.0287 310.965 74.9353 310.939 74.8281Z" fill="white"/>
</g>
<path d="M390.624 83.8657C390.624 83.8657 404.405 97.4391 402.465 103.113C400.622 108.509 370.139 135.969 367.168 138.638C367.098 138.696 367.01 138.728 366.918 138.728C366.827 138.728 366.739 138.696 366.669 138.638C365.423 137.636 364.735 136.187 364.815 134.73C365.205 127.694 366.566 106.693 369.217 100.606C372.423 93.2482 390.624 83.8657 390.624 83.8657Z" fill="#A4303F"/>
<g style="mix-blend-mode:soft-light">
<path d="M375.6 126.766C375.585 126.702 375.588 126.637 375.607 126.575C375.626 126.513 375.66 126.457 375.708 126.412C375.879 126.258 392.252 110.946 398.995 104.102C399.468 103.618 399.774 102.994 399.866 102.324C399.959 101.653 399.834 100.97 399.509 100.376C398.243 97.92 395.607 93.1765 392.178 88.9924C392.141 88.9519 392.113 88.9038 392.097 88.8515C392.08 88.7992 392.075 88.7439 392.082 88.6896C392.089 88.6352 392.108 88.5829 392.137 88.5366C392.167 88.4902 392.206 88.4507 392.252 88.4209C392.352 88.3596 392.472 88.3367 392.588 88.3566C392.704 88.3765 392.809 88.4377 392.883 88.529C396.365 92.7749 399.036 97.5819 400.32 100.067C401.131 101.644 400.879 103.453 399.678 104.675C392.923 111.54 376.531 126.864 376.368 127.018C376.278 127.093 376.164 127.133 376.047 127.13C375.93 127.128 375.818 127.082 375.732 127.003C375.664 126.939 375.618 126.857 375.6 126.766Z" fill="white"/>
</g>
<path d="M396.902 11.6172C388.906 15.8322 380.733 21.5591 373.359 29.3455C350.465 53.5199 338.493 75.2109 335.276 81.4716C334.695 82.6043 334.877 83.9773 335.721 85.0568C342.382 93.5726 350.695 100.348 360.659 105.383C362.533 106.333 364.764 106.264 366.431 105.231C373.664 100.743 394.369 86.9515 416.12 63.6987C422.669 56.7179 427.964 48.6594 431.773 39.8778C420.987 25.3125 405.795 16.2938 396.902 11.6172Z" fill="#D03D50"/>
<path d="M431.774 39.8713C439.296 22.5377 439.112 6.96668 438.779 1.74774C438.714 0.728321 437.712 -0.076572 436.61 0.00580528C430.989 0.426273 414.366 2.40847 396.902 11.6159C405.795 16.2925 420.987 25.3111 431.774 39.8713Z" fill="#A4303F"/>
<path d="M410.378 56.2813C404.47 62.5592 393.338 62.5557 385.516 56.271C377.693 49.9863 376.142 39.7955 382.051 33.5245C387.96 27.2535 399.091 27.2501 406.913 33.5348C414.736 39.8195 416.287 50.0018 410.378 56.2813Z" fill="#A4303F"/>
<path d="M408.198 53.9677C403.489 58.9704 394.619 58.967 388.386 53.9677C382.153 48.9684 380.917 40.8474 385.625 35.8447C390.332 30.8419 399.203 30.8437 405.437 35.8447C411.67 40.8457 412.906 48.965 408.198 53.9677Z" fill="#133540"/>
<path d="M390.591 36.8667C390.574 36.7866 390.583 36.703 390.617 36.6285C390.651 36.5541 390.709 36.4931 390.782 36.4548C394.77 34.2563 400.278 34.9102 404.169 38.0337C405.131 38.8001 405.972 39.7073 406.664 40.7247C406.697 40.7687 406.719 40.8194 406.73 40.8731C406.741 40.9268 406.74 40.9823 406.727 41.0356C406.714 41.0889 406.69 41.1387 406.656 41.1817C406.622 41.2246 406.579 41.2596 406.53 41.2841C406.424 41.3363 406.303 41.3487 406.189 41.3191C406.075 41.2895 405.976 41.2198 405.909 41.1228C405.268 40.183 404.49 39.3448 403.6 38.6361C400.012 35.7529 394.947 35.1488 391.283 37.1687C391.178 37.2225 391.057 37.2368 390.943 37.2091C390.828 37.1814 390.727 37.1135 390.658 37.0177C390.626 36.9722 390.604 36.9209 390.591 36.8667Z" fill="#91B3FA"/>
<path d="M384.07 75.2666C380.167 79.4146 372.813 79.4129 367.644 75.2666C362.475 71.1203 361.452 64.3877 365.356 60.2396C369.261 56.0916 376.613 56.095 381.782 60.2396C386.951 64.3842 387.974 71.1203 384.07 75.2666Z" fill="#A4303F"/>
<path d="M382.628 73.7375C379.519 77.0412 373.658 77.0394 369.541 73.7375C365.424 70.4355 364.607 65.069 367.717 61.7636C370.826 58.4582 376.687 58.4599 380.806 61.7636C384.925 65.0672 385.74 70.4321 382.628 73.7375Z" fill="#133540"/>
<path d="M370.848 62.4604C370.829 62.3805 370.838 62.2969 370.872 62.2224C370.906 62.148 370.964 62.0868 371.036 62.0485C373.727 60.5657 377.439 61.0016 380.064 63.1108C380.712 63.6274 381.278 64.239 381.744 64.9249C381.776 64.969 381.798 65.0197 381.809 65.0733C381.82 65.127 381.819 65.1823 381.806 65.2355C381.793 65.2888 381.769 65.3386 381.735 65.3815C381.701 65.4245 381.659 65.4596 381.61 65.4843C381.504 65.5357 381.382 65.5476 381.268 65.5177C381.154 65.4878 381.054 65.4182 380.987 65.3213C380.574 64.7136 380.072 64.1715 379.497 63.7132C377.177 61.8494 373.906 61.4581 371.539 62.7624C371.435 62.8161 371.314 62.8304 371.2 62.8027C371.085 62.7749 370.985 62.7071 370.916 62.6114C370.884 62.566 370.86 62.5147 370.848 62.4604Z" fill="#91B3FA"/>
</svg>
