<svg width="368" height="161" viewBox="0 0 368 161" fill="none" xmlns="http://www.w3.org/2000/svg">
<path d="M90.2716 48.076H103.738C104.95 52.7444 109.215 56.2009 114.242 56.2009C120.257 56.2009 125.15 51.308 125.15 45.2929C125.15 40.2204 121.694 36.0009 117.025 34.7889V21.412C121.694 20.2 125.15 15.9355 125.15 10.908C125.15 4.89288 120.257 0 114.242 0C108.227 0 103.334 4.89288 103.334 10.908C103.334 15.9804 106.791 20.2 111.459 21.412V34.7889C107.689 35.7764 104.726 38.7391 103.738 42.5098H90.2716C89.0596 37.8413 84.7952 34.3849 79.7676 34.3849C73.7525 34.3849 68.8596 39.2778 68.8596 45.2929C68.8596 50.3653 72.316 54.5849 76.9845 55.7969V69.1738C72.316 70.3857 68.8596 74.6502 68.8596 79.6777C68.8596 84.7502 72.316 88.9697 76.9845 90.1817V103.559C73.2138 104.546 70.2512 107.509 69.2636 111.28H55.8867C54.8991 107.509 51.9365 104.546 48.1658 103.559V90.1817C52.8343 88.9697 56.2907 84.7053 56.2907 79.6777C56.2907 73.6626 51.3978 68.7697 45.3827 68.7697C40.3103 68.7697 36.0907 72.2262 34.8787 76.8946H21.412C20.2 72.2262 15.9356 68.7697 10.908 68.7697C4.89289 68.7697 0 73.6626 0 79.6777C0 85.6928 4.89289 90.5857 10.908 90.5857C15.9805 90.5857 20.2 87.1293 21.412 82.4608H34.8787C35.8662 86.2315 38.8289 89.1942 42.5996 90.1817V103.559C37.9311 104.771 34.4747 109.035 34.4747 114.063C34.4747 119.135 37.9311 123.355 42.5996 124.567V137.943C37.9311 139.156 34.4747 143.42 34.4747 148.447C34.4747 154.463 39.3676 159.355 45.3827 159.355C51.3978 159.355 56.2907 154.463 56.2907 148.447C56.2907 143.375 52.8343 139.156 48.1658 137.943V124.567C51.9365 123.579 54.8991 120.616 55.8867 116.846H69.2636C70.4756 121.514 74.7401 124.971 79.7676 124.971C85.7827 124.971 90.6756 120.078 90.6756 114.063C90.6756 108.99 87.2192 104.771 82.5507 103.559V90.1817C86.3214 89.1942 89.2841 86.2315 90.2716 82.4608H103.738C104.95 87.1293 109.215 90.5857 114.242 90.5857C120.257 90.5857 125.15 85.6928 125.15 79.6777C125.15 73.6626 120.257 68.7697 114.242 68.7697C109.17 68.7697 104.95 72.2262 103.738 76.8946H90.2716C89.2841 73.124 86.3214 70.1613 82.5507 69.1738V55.7969C86.3214 54.8093 89.2841 51.8466 90.2716 48.076Z" fill="#212121"/>
<path d="M143.734 2.10974H178.837C188.937 2.10974 197.242 4.66842 203.751 9.83064C210.888 15.4866 214.479 23.2075 214.479 33.0382V42.5996C214.479 52.4302 210.933 60.2858 203.885 66.2111C197.377 71.7325 189.027 74.5156 178.837 74.5156H171.835V111.01H143.779V2.10974H143.734ZM171.79 28.4595V48.3453H178.523C185.032 48.3453 188.264 45.0236 188.264 38.3351C188.264 31.7364 185.032 28.4595 178.523 28.4595H171.79Z" fill="#212121"/>
<path d="M289.354 2.10974V28.4595H248.819V42.3302H270.994V68.4107H248.819V84.1667H289.354V111.1H220.763V2.10974H289.354Z" fill="#212121"/>
<path d="M367.236 2.10974V28.4595H345.779V111.1H317.813V28.4595H296.356V2.10974H367.236Z" fill="#212121"/>
<path d="M160.074 128.472V123.085H149.345V133.814H160.074V139.2H149.345V149.929H160.074V144.542H165.461V155.271H144.004V117.699H165.461V128.427L160.074 128.472Z" fill="#212121"/>
<path d="M186.917 155.316V133.859H176.189V155.316H170.802V128.472H192.259V155.316H186.917Z" fill="#212121"/>
<path d="M197.646 149.929V128.472H219.103V160.657H197.646V155.36H213.761V149.974H197.646V149.929ZM203.032 133.814V144.542H213.761V133.814H203.032Z" fill="#212121"/>
<path d="M240.604 128.472V123.085H229.876V149.929H240.604V144.542H245.991V155.271H224.534V117.699H245.991V128.427L240.604 128.472Z" fill="#212121"/>
<path d="M251.333 155.316V128.472H272.79V155.316H251.333ZM256.72 149.929H267.448V133.814H256.72V149.929Z" fill="#212121"/>
<path d="M294.292 155.316V133.859H283.563V155.316H278.177V128.472H315.748V155.316H310.362V133.859H299.633V155.316H294.292Z" fill="#212121"/>
<path d="M326.522 155.315V160.612H321.135V128.427H342.592V155.271H326.522V155.315ZM326.522 149.929H337.25V133.814H326.522V149.929Z" fill="#212121"/>
<path d="M364.139 110.696H349.101V108.541H361.984V104.232H349.101V102.077H364.139V110.696Z" fill="#212121"/>
<path d="M353.365 93.5036H351.211V97.8129H355.52V93.5036H357.675V97.8129H364.139V99.9675H349.101V91.3938H353.41L353.365 93.5036Z" fill="#212121"/>
<path d="M353.365 82.7751H351.211V87.0845H355.52V82.7751H357.675V87.0845H361.984V82.7751H359.829V80.6205H364.139V89.1942H349.101V80.6205H353.41L353.365 82.7751Z" fill="#212121"/>
<path d="M357.675 78.4658H349.101V69.892H353.41V72.0467H351.255V76.356H355.565V69.892H364.139V78.4658H359.829V76.3111H361.984V72.0018H357.675V78.4658Z" fill="#212121"/>
</svg>
