<svg width="100" height="128" viewBox="0 0 100 128" fill="none" xmlns="http://www.w3.org/2000/svg">
<path d="M72.1306 38.4146H82.891C83.8594 42.1449 87.2669 44.9067 91.2841 44.9067C96.0904 44.9067 100 40.9971 100 36.1908C100 32.1377 97.2382 28.7661 93.5079 27.7977V17.109C97.2382 16.1406 100 12.7331 100 8.71591C100 3.9096 96.0904 0 91.2841 0C86.4778 0 82.5682 3.9096 82.5682 8.71591C82.5682 12.769 85.33 16.1406 89.0603 17.109V27.7977C86.0473 28.5868 83.6801 30.9541 82.891 33.967H72.1306C71.1621 30.2367 67.7547 27.4749 63.7374 27.4749C58.9311 27.4749 55.0215 31.3845 55.0215 36.1908C55.0215 40.2439 57.7834 43.6154 61.5136 44.5839V55.2725C57.7834 56.241 55.0215 59.6484 55.0215 63.6656C55.0215 67.7187 57.7834 71.0903 61.5136 72.0587V82.7474C58.5007 83.5365 56.1334 85.9038 55.3443 88.9167H44.6557C43.8666 85.9038 41.4993 83.5365 38.4864 82.7474V72.0587C42.2166 71.0903 44.9785 67.6829 44.9785 63.6656C44.9785 58.8593 41.0689 54.9497 36.2626 54.9497C32.2095 54.9497 28.8379 57.7116 27.8694 61.4418H17.109C16.1406 57.7116 12.7331 54.9497 8.71593 54.9497C3.90961 54.9497 0 58.8593 0 63.6656C0 68.472 3.90961 72.3816 8.71593 72.3816C12.769 72.3816 16.1406 69.6197 17.109 65.8895H27.8694C28.6585 68.9024 31.0258 71.2697 34.0387 72.0587V82.7474C30.3085 83.7158 27.5466 87.1233 27.5466 91.1405C27.5466 95.1936 30.3085 98.5652 34.0387 99.5336V110.222C30.3085 111.191 27.5466 114.598 27.5466 118.615C27.5466 123.422 31.4562 127.331 36.2626 127.331C41.0689 127.331 44.9785 123.422 44.9785 118.615C44.9785 114.562 42.2166 111.191 38.4864 110.222V99.5336C41.4993 98.7445 43.8666 96.3772 44.6557 93.3643H55.3443C56.3128 97.0946 59.7202 99.8564 63.7374 99.8564C68.5438 99.8564 72.4534 95.9468 72.4534 91.1405C72.4534 87.0874 69.6915 83.7158 65.9613 82.7474V72.0587C68.9742 71.2697 71.3415 68.9024 72.1306 65.8895H82.891C83.8594 69.6197 87.2669 72.3816 91.2841 72.3816C96.0904 72.3816 100 68.472 100 63.6656C100 58.8593 96.0904 54.9497 91.2841 54.9497C87.231 54.9497 83.8594 57.7116 82.891 61.4418H72.1306C71.3415 58.4289 68.9742 56.0616 65.9613 55.2725V44.5839C68.9742 43.7948 71.3415 41.4275 72.1306 38.4146Z" fill="#212121"/>
</svg>
