<svg width="813" height="788" viewBox="0 0 813 788" fill="none" xmlns="http://www.w3.org/2000/svg">
<path d="M32.6848 666.448C28.4608 666.448 24.5781 665.467 21.0368 663.504C17.5381 661.541 14.7434 658.811 12.6528 655.312C10.6047 651.771 9.58075 647.803 9.58075 643.408C9.58075 639.013 10.6047 635.067 12.6528 631.568C14.7434 628.069 17.5381 625.339 21.0368 623.376C24.5781 621.413 28.4608 620.432 32.6848 620.432C36.9088 620.432 40.7701 621.413 44.2688 623.376C47.8101 625.339 50.5834 628.069 52.5888 631.568C54.6368 635.067 55.6608 639.013 55.6608 643.408C55.6608 647.803 54.6368 651.771 52.5888 655.312C50.5408 658.811 47.7674 661.541 44.2688 663.504C40.7701 665.467 36.9088 666.448 32.6848 666.448ZM32.6848 656.464C36.2688 656.464 39.1274 655.269 41.2607 652.88C43.4368 650.491 44.5248 647.333 44.5248 643.408C44.5248 639.44 43.4368 636.283 41.2607 633.936C39.1274 631.547 36.2688 630.352 32.6848 630.352C29.0581 630.352 26.1568 631.525 23.9808 633.872C21.8474 636.219 20.7808 639.397 20.7808 643.408C20.7808 647.376 21.8474 650.555 23.9808 652.944C26.1568 655.291 29.0581 656.464 32.6848 656.464ZM78.0053 666.512C74.5066 666.512 71.3493 665.765 68.5333 664.272C65.7599 662.779 63.5626 660.645 61.9413 657.872C60.3626 655.099 59.5733 651.856 59.5733 648.144C59.5733 644.475 60.3839 641.253 62.0052 638.48C63.6266 635.664 65.8453 633.509 68.6613 632.016C71.4773 630.523 74.6346 629.776 78.1333 629.776C81.6319 629.776 84.7893 630.523 87.6053 632.016C90.4213 633.509 92.6399 635.664 94.2613 638.48C95.8826 641.253 96.6933 644.475 96.6933 648.144C96.6933 651.813 95.8613 655.056 94.1973 657.872C92.5759 660.645 90.3359 662.779 87.4773 664.272C84.6613 665.765 81.5039 666.512 78.0053 666.512ZM78.0053 657.04C80.0959 657.04 81.8666 656.272 83.3173 654.736C84.8106 653.2 85.5573 651.003 85.5573 648.144C85.5573 645.285 84.8319 643.088 83.3813 641.552C81.9733 640.016 80.2239 639.248 78.1333 639.248C75.9999 639.248 74.2293 640.016 72.8213 641.552C71.4133 643.045 70.7093 645.243 70.7093 648.144C70.7093 651.003 71.3919 653.2 72.7573 654.736C74.1653 656.272 75.9146 657.04 78.0053 657.04ZM113.443 635.344C114.51 633.68 115.982 632.336 117.859 631.312C119.737 630.288 121.934 629.776 124.451 629.776C127.395 629.776 130.062 630.523 132.451 632.016C134.841 633.509 136.718 635.643 138.083 638.416C139.491 641.189 140.195 644.411 140.195 648.08C140.195 651.749 139.491 654.992 138.083 657.808C136.718 660.581 134.841 662.736 132.451 664.272C130.062 665.765 127.395 666.512 124.451 666.512C121.977 666.512 119.779 666 117.859 664.976C115.982 663.952 114.51 662.629 113.443 661.008V683.024H102.499V630.288H113.443V635.344ZM129.059 648.08C129.059 645.349 128.291 643.216 126.755 641.68C125.262 640.101 123.406 639.312 121.187 639.312C119.011 639.312 117.155 640.101 115.619 641.68C114.126 643.259 113.379 645.413 113.379 648.144C113.379 650.875 114.126 653.029 115.619 654.608C117.155 656.187 119.011 656.976 121.187 656.976C123.363 656.976 125.219 656.187 126.755 654.608C128.291 652.987 129.059 650.811 129.059 648.08ZM160.465 666.512C157.35 666.512 154.577 665.979 152.145 664.912C149.713 663.845 147.793 662.395 146.385 660.56C144.977 658.683 144.187 656.592 144.017 654.288H154.833C154.961 655.525 155.537 656.528 156.561 657.296C157.585 658.064 158.843 658.448 160.337 658.448C161.702 658.448 162.747 658.192 163.473 657.68C164.241 657.125 164.625 656.421 164.625 655.568C164.625 654.544 164.091 653.797 163.025 653.328C161.958 652.816 160.23 652.261 157.841 651.664C155.281 651.067 153.147 650.448 151.441 649.808C149.734 649.125 148.262 648.08 147.025 646.672C145.787 645.221 145.169 643.28 145.169 640.848C145.169 638.8 145.723 636.944 146.833 635.28C147.985 633.573 149.649 632.229 151.825 631.248C154.043 630.267 156.667 629.776 159.697 629.776C164.177 629.776 167.697 630.885 170.257 633.104C172.859 635.323 174.353 638.267 174.737 641.936H164.625C164.454 640.699 163.899 639.717 162.961 638.992C162.065 638.267 160.87 637.904 159.377 637.904C158.097 637.904 157.115 638.16 156.433 638.672C155.75 639.141 155.409 639.803 155.409 640.656C155.409 641.68 155.942 642.448 157.009 642.96C158.118 643.472 159.825 643.984 162.129 644.496C164.774 645.179 166.929 645.861 168.593 646.544C170.257 647.184 171.707 648.251 172.945 649.744C174.225 651.195 174.886 653.157 174.929 655.632C174.929 657.723 174.331 659.6 173.137 661.264C171.985 662.885 170.299 664.165 168.081 665.104C165.905 666.043 163.366 666.512 160.465 666.512ZM186.744 666.512C184.824 666.512 183.246 665.957 182.008 664.848C180.814 663.696 180.216 662.288 180.216 660.624C180.216 658.917 180.814 657.488 182.008 656.336C183.246 655.184 184.824 654.608 186.744 654.608C188.622 654.608 190.158 655.184 191.352 656.336C192.59 657.488 193.208 658.917 193.208 660.624C193.208 662.288 192.59 663.696 191.352 664.848C190.158 665.957 188.622 666.512 186.744 666.512ZM204.807 666.512C202.887 666.512 201.308 665.957 200.071 664.848C198.876 663.696 198.279 662.288 198.279 660.624C198.279 658.917 198.876 657.488 200.071 656.336C201.308 655.184 202.887 654.608 204.807 654.608C206.684 654.608 208.22 655.184 209.415 656.336C210.652 657.488 211.271 658.917 211.271 660.624C211.271 662.288 210.652 663.696 209.415 664.848C208.22 665.957 206.684 666.512 204.807 666.512ZM222.869 666.512C220.949 666.512 219.371 665.957 218.133 664.848C216.939 663.696 216.341 662.288 216.341 660.624C216.341 658.917 216.939 657.488 218.133 656.336C219.371 655.184 220.949 654.608 222.869 654.608C224.747 654.608 226.283 655.184 227.477 656.336C228.715 657.488 229.333 658.917 229.333 660.624C229.333 662.288 228.715 663.696 227.477 664.848C226.283 665.957 224.747 666.512 222.869 666.512ZM277.342 658.064H260.574L257.886 666H246.43L262.686 621.072H275.358L291.614 666H280.03L277.342 658.064ZM274.526 649.616L268.958 633.168L263.454 649.616H274.526ZM302.066 626.576C300.146 626.576 298.567 626.021 297.33 624.912C296.135 623.76 295.538 622.352 295.538 620.688C295.538 618.981 296.135 617.573 297.33 616.464C298.567 615.312 300.146 614.736 302.066 614.736C303.943 614.736 305.479 615.312 306.674 616.464C307.911 617.573 308.53 618.981 308.53 620.688C308.53 622.352 307.911 623.76 306.674 624.912C305.479 626.021 303.943 626.576 302.066 626.576ZM307.506 630.288V666H296.562V630.288H307.506ZM337.197 629.904C341.378 629.904 344.706 631.269 347.181 634C349.698 636.688 350.957 640.4 350.957 645.136V666H340.077V646.608C340.077 644.219 339.458 642.363 338.221 641.04C336.983 639.717 335.319 639.056 333.229 639.056C331.138 639.056 329.474 639.717 328.237 641.04C326.999 642.363 326.381 644.219 326.381 646.608V666H315.437V630.288H326.381V635.024C327.49 633.445 328.983 632.208 330.861 631.312C332.738 630.373 334.85 629.904 337.197 629.904ZM356.386 648.08C356.386 644.411 357.068 641.189 358.434 638.416C359.842 635.643 361.74 633.509 364.13 632.016C366.519 630.523 369.186 629.776 372.13 629.776C374.476 629.776 376.61 630.267 378.53 631.248C380.492 632.229 382.028 633.552 383.138 635.216V618.64H394.082V666H383.138V660.88C382.114 662.587 380.642 663.952 378.722 664.976C376.844 666 374.647 666.512 372.13 666.512C369.186 666.512 366.519 665.765 364.13 664.272C361.74 662.736 359.842 660.581 358.434 657.808C357.068 654.992 356.386 651.749 356.386 648.08ZM383.138 648.144C383.138 645.413 382.37 643.259 380.834 641.68C379.34 640.101 377.506 639.312 375.33 639.312C373.154 639.312 371.298 640.101 369.762 641.68C368.268 643.216 367.522 645.349 367.522 648.08C367.522 650.811 368.268 652.987 369.762 654.608C371.298 656.187 373.154 656.976 375.33 656.976C377.506 656.976 379.34 656.187 380.834 654.608C382.37 653.029 383.138 650.875 383.138 648.144ZM399.823 648.08C399.823 644.411 400.506 641.189 401.871 638.416C403.279 635.643 405.178 633.509 407.567 632.016C409.957 630.523 412.623 629.776 415.567 629.776C418.085 629.776 420.282 630.288 422.159 631.312C424.079 632.336 425.551 633.68 426.575 635.344V630.288H437.519V666H426.575V660.944C425.509 662.608 424.015 663.952 422.095 664.976C420.218 666 418.021 666.512 415.503 666.512C412.602 666.512 409.957 665.765 407.567 664.272C405.178 662.736 403.279 660.581 401.871 657.808C400.506 654.992 399.823 651.749 399.823 648.08ZM426.575 648.144C426.575 645.413 425.807 643.259 424.271 641.68C422.778 640.101 420.943 639.312 418.767 639.312C416.591 639.312 414.735 640.101 413.199 641.68C411.706 643.216 410.959 645.349 410.959 648.08C410.959 650.811 411.706 652.987 413.199 654.608C414.735 656.187 416.591 656.976 418.767 656.976C420.943 656.976 422.778 656.187 424.271 654.608C425.807 653.029 426.575 650.875 426.575 648.144ZM480.759 629.904C484.941 629.904 488.269 631.269 490.743 634C493.261 636.688 494.519 640.4 494.519 645.136V666H483.639V646.608C483.639 644.219 483.021 642.363 481.783 641.04C480.546 639.717 478.882 639.056 476.791 639.056C474.701 639.056 473.037 639.717 471.799 641.04C470.562 642.363 469.943 644.219 469.943 646.608V666H458.999V630.288H469.943V635.024C471.053 633.445 472.546 632.208 474.423 631.312C476.301 630.373 478.413 629.904 480.759 629.904ZM499.948 648.08C499.948 644.411 500.631 641.189 501.996 638.416C503.404 635.643 505.303 633.509 507.692 632.016C510.082 630.523 512.748 629.776 515.692 629.776C518.21 629.776 520.407 630.288 522.284 631.312C524.204 632.336 525.676 633.68 526.7 635.344V630.288H537.644V666H526.7V660.944C525.634 662.608 524.14 663.952 522.22 664.976C520.343 666 518.146 666.512 515.628 666.512C512.727 666.512 510.082 665.765 507.692 664.272C505.303 662.736 503.404 660.581 501.996 657.808C500.631 654.992 499.948 651.749 499.948 648.08ZM526.7 648.144C526.7 645.413 525.932 643.259 524.396 641.68C522.903 640.101 521.068 639.312 518.892 639.312C516.716 639.312 514.86 640.101 513.324 641.68C511.831 643.216 511.084 645.349 511.084 648.08C511.084 650.811 511.831 652.987 513.324 654.608C514.86 656.187 516.716 656.976 518.892 656.976C521.068 656.976 522.903 656.187 524.396 654.608C525.932 653.029 526.7 650.875 526.7 648.144ZM507.308 627.28C508.332 620.965 511.276 617.808 516.14 617.808C517.079 617.808 517.89 617.957 518.572 618.256C519.298 618.512 520.172 618.917 521.196 619.472C521.964 619.899 522.583 620.219 523.052 620.432C523.522 620.603 524.012 620.688 524.524 620.688C526.103 620.688 527.02 619.728 527.276 617.808H532.908C531.884 624.123 528.94 627.28 524.076 627.28C523.138 627.28 522.306 627.152 521.58 626.896C520.898 626.597 520.044 626.171 519.02 625.616C518.252 625.189 517.634 624.891 517.164 624.72C516.695 624.507 516.204 624.4 515.692 624.4C514.114 624.4 513.175 625.36 512.876 627.28H507.308ZM561.818 666.512C558.319 666.512 555.162 665.765 552.346 664.272C549.572 662.779 547.375 660.645 545.754 657.872C544.175 655.099 543.386 651.856 543.386 648.144C543.386 644.475 544.196 641.253 545.818 638.48C547.439 635.664 549.658 633.509 552.474 632.016C555.29 630.523 558.447 629.776 561.946 629.776C565.444 629.776 568.602 630.523 571.418 632.016C574.234 633.509 576.452 635.664 578.074 638.48C579.695 641.253 580.506 644.475 580.506 648.144C580.506 651.813 579.674 655.056 578.01 657.872C576.388 660.645 574.148 662.779 571.29 664.272C568.474 665.765 565.316 666.512 561.818 666.512ZM561.818 657.04C563.908 657.04 565.679 656.272 567.13 654.736C568.623 653.2 569.37 651.003 569.37 648.144C569.37 645.285 568.644 643.088 567.194 641.552C565.786 640.016 564.036 639.248 561.946 639.248C559.812 639.248 558.042 640.016 556.634 641.552C555.226 643.045 554.522 645.243 554.522 648.144C554.522 651.003 555.204 653.2 556.57 654.736C557.978 656.272 559.727 657.04 561.818 657.04ZM619.778 656.72V666H614.21C610.242 666 607.149 665.04 604.93 663.12C602.712 661.157 601.602 657.979 601.602 653.584V639.376H597.25V630.288H601.602V621.584H612.546V630.288H619.714V639.376H612.546V653.712C612.546 654.779 612.802 655.547 613.314 656.016C613.826 656.485 614.68 656.72 615.874 656.72H619.778ZM659.538 647.568C659.538 648.592 659.474 649.659 659.346 650.768H634.578C634.749 652.987 635.453 654.693 636.69 655.888C637.97 657.04 639.528 657.616 641.362 657.616C644.093 657.616 645.992 656.464 647.058 654.16H658.706C658.109 656.507 657.021 658.619 655.442 660.496C653.906 662.373 651.965 663.845 649.618 664.912C647.272 665.979 644.648 666.512 641.746 666.512C638.248 666.512 635.133 665.765 632.402 664.272C629.672 662.779 627.538 660.645 626.002 657.872C624.466 655.099 623.698 651.856 623.698 648.144C623.698 644.432 624.445 641.189 625.938 638.416C627.474 635.643 629.608 633.509 632.338 632.016C635.069 630.523 638.205 629.776 641.746 629.776C645.202 629.776 648.274 630.501 650.962 631.952C653.65 633.403 655.741 635.472 657.234 638.16C658.77 640.848 659.538 643.984 659.538 647.568ZM648.338 644.688C648.338 642.811 647.698 641.317 646.418 640.208C645.138 639.099 643.538 638.544 641.618 638.544C639.784 638.544 638.226 639.077 636.946 640.144C635.709 641.211 634.941 642.725 634.642 644.688H648.338ZM710.88 629.904C715.317 629.904 718.837 631.248 721.44 633.936C724.085 636.624 725.408 640.357 725.408 645.136V666H714.528V646.608C714.528 644.304 713.909 642.533 712.672 641.296C711.477 640.016 709.813 639.376 707.68 639.376C705.546 639.376 703.861 640.016 702.624 641.296C701.429 642.533 700.832 644.304 700.832 646.608V666H689.952V646.608C689.952 644.304 689.333 642.533 688.096 641.296C686.901 640.016 685.237 639.376 683.104 639.376C680.97 639.376 679.285 640.016 678.048 641.296C676.853 642.533 676.256 644.304 676.256 646.608V666H665.312V630.288H676.256V634.768C677.365 633.275 678.816 632.101 680.608 631.248C682.4 630.352 684.426 629.904 686.688 629.904C689.376 629.904 691.765 630.48 693.856 631.632C695.989 632.784 697.653 634.427 698.848 636.56C700.085 634.597 701.77 632.997 703.904 631.76C706.037 630.523 708.362 629.904 710.88 629.904ZM749.318 666.512C745.819 666.512 742.662 665.765 739.846 664.272C737.072 662.779 734.875 660.645 733.254 657.872C731.675 655.099 730.886 651.856 730.886 648.144C730.886 644.475 731.696 641.253 733.318 638.48C734.939 635.664 737.158 633.509 739.974 632.016C742.79 630.523 745.947 629.776 749.446 629.776C752.944 629.776 756.102 630.523 758.918 632.016C761.734 633.509 763.952 635.664 765.574 638.48C767.195 641.253 768.006 644.475 768.006 648.144C768.006 651.813 767.174 655.056 765.51 657.872C763.888 660.645 761.648 662.779 758.79 664.272C755.974 665.765 752.816 666.512 749.318 666.512ZM749.318 657.04C751.408 657.04 753.179 656.272 754.63 654.736C756.123 653.2 756.87 651.003 756.87 648.144C756.87 645.285 756.144 643.088 754.694 641.552C753.286 640.016 751.536 639.248 749.446 639.248C747.312 639.248 745.542 640.016 744.134 641.552C742.726 643.045 742.022 645.243 742.022 648.144C742.022 651.003 742.704 653.2 744.07 654.736C745.478 656.272 747.227 657.04 749.318 657.04ZM788.34 666.512C785.225 666.512 782.452 665.979 780.02 664.912C777.588 663.845 775.668 662.395 774.26 660.56C772.852 658.683 772.062 656.592 771.892 654.288H782.708C782.836 655.525 783.412 656.528 784.436 657.296C785.46 658.064 786.718 658.448 788.212 658.448C789.577 658.448 790.622 658.192 791.348 657.68C792.116 657.125 792.5 656.421 792.5 655.568C792.5 654.544 791.966 653.797 790.9 653.328C789.833 652.816 788.105 652.261 785.716 651.664C783.156 651.067 781.022 650.448 779.316 649.808C777.609 649.125 776.137 648.08 774.9 646.672C773.662 645.221 773.044 643.28 773.044 640.848C773.044 638.8 773.598 636.944 774.708 635.28C775.86 633.573 777.524 632.229 779.7 631.248C781.918 630.267 784.542 629.776 787.572 629.776C792.052 629.776 795.572 630.885 798.132 633.104C800.734 635.323 802.228 638.267 802.612 641.936H792.5C792.329 640.699 791.774 639.717 790.836 638.992C789.94 638.267 788.745 637.904 787.252 637.904C785.972 637.904 784.99 638.16 784.308 638.672C783.625 639.141 783.284 639.803 783.284 640.656C783.284 641.68 783.817 642.448 784.884 642.96C785.993 643.472 787.7 643.984 790.004 644.496C792.649 645.179 794.804 645.861 796.468 646.544C798.132 647.184 799.582 648.251 800.82 649.744C802.1 651.195 802.761 653.157 802.804 655.632C802.804 657.723 802.206 659.6 801.012 661.264C799.86 662.885 798.174 664.165 795.956 665.104C793.78 666.043 791.241 666.512 788.34 666.512ZM124.417 744.08C124.417 740.411 125.1 737.189 126.465 734.416C127.873 731.643 129.772 729.509 132.161 728.016C134.55 726.523 137.217 725.776 140.161 725.776C142.678 725.776 144.876 726.288 146.753 727.312C148.673 728.336 150.145 729.68 151.169 731.344V726.288H162.113V762H151.169V756.944C150.102 758.608 148.609 759.952 146.689 760.976C144.812 762 142.614 762.512 140.097 762.512C137.196 762.512 134.55 761.765 132.161 760.272C129.772 758.736 127.873 756.581 126.465 753.808C125.1 750.992 124.417 747.749 124.417 744.08ZM151.169 744.144C151.169 741.413 150.401 739.259 148.865 737.68C147.372 736.101 145.537 735.312 143.361 735.312C141.185 735.312 139.329 736.101 137.793 737.68C136.3 739.216 135.553 741.349 135.553 744.08C135.553 746.811 136.3 748.987 137.793 750.608C139.329 752.187 141.185 752.976 143.361 752.976C145.537 752.976 147.372 752.187 148.865 750.608C150.401 749.029 151.169 746.875 151.169 744.144ZM186.095 751.76L193.839 726.288H205.487L192.815 762H179.311L166.639 726.288H178.351L186.095 751.76ZM207.917 744.08C207.917 740.411 208.6 737.189 209.965 734.416C211.373 731.643 213.272 729.509 215.661 728.016C218.05 726.523 220.717 725.776 223.661 725.776C226.178 725.776 228.376 726.288 230.253 727.312C232.173 728.336 233.645 729.68 234.669 731.344V726.288H245.613V762H234.669V756.944C233.602 758.608 232.109 759.952 230.189 760.976C228.312 762 226.114 762.512 223.597 762.512C220.696 762.512 218.05 761.765 215.661 760.272C213.272 758.736 211.373 756.581 209.965 753.808C208.6 750.992 207.917 747.749 207.917 744.08ZM234.669 744.144C234.669 741.413 233.901 739.259 232.365 737.68C230.872 736.101 229.037 735.312 226.861 735.312C224.685 735.312 222.829 736.101 221.293 737.68C219.8 739.216 219.053 741.349 219.053 744.08C219.053 746.811 219.8 748.987 221.293 750.608C222.829 752.187 224.685 752.976 226.861 752.976C229.037 752.976 230.872 752.187 232.365 750.608C233.901 749.029 234.669 746.875 234.669 744.144ZM264.475 714.64V762H253.531V714.64H264.475ZM277.91 722.576C275.99 722.576 274.411 722.021 273.174 720.912C271.979 719.76 271.382 718.352 271.382 716.688C271.382 714.981 271.979 713.573 273.174 712.464C274.411 711.312 275.99 710.736 277.91 710.736C279.787 710.736 281.323 711.312 282.518 712.464C283.755 713.573 284.374 714.981 284.374 716.688C284.374 718.352 283.755 719.76 282.518 720.912C281.323 722.021 279.787 722.576 277.91 722.576ZM283.35 726.288V762H272.406V726.288H283.35ZM289.105 744.08C289.105 740.411 289.787 737.189 291.153 734.416C292.561 731.643 294.459 729.509 296.849 728.016C299.238 726.523 301.905 725.776 304.849 725.776C307.366 725.776 309.563 726.288 311.441 727.312C313.361 728.336 314.833 729.68 315.857 731.344V726.288H326.801V762H315.857V756.944C314.79 758.608 313.297 759.952 311.377 760.976C309.499 762 307.302 762.512 304.785 762.512C301.883 762.512 299.238 761.765 296.849 760.272C294.459 758.736 292.561 756.581 291.153 753.808C289.787 750.992 289.105 747.749 289.105 744.08ZM315.857 744.144C315.857 741.413 315.089 739.259 313.553 737.68C312.059 736.101 310.225 735.312 308.049 735.312C305.873 735.312 304.017 736.101 302.481 737.68C300.987 739.216 300.241 741.349 300.241 744.08C300.241 746.811 300.987 748.987 302.481 750.608C304.017 752.187 305.873 752.976 308.049 752.976C310.225 752.976 312.059 752.187 313.553 750.608C315.089 749.029 315.857 746.875 315.857 744.144ZM350.27 753.168C353.086 753.168 354.985 751.803 355.966 749.072H367.614C366.803 752.699 365.182 755.664 362.75 757.968C360.318 760.272 357.289 761.701 353.662 762.256V764.624C355.881 764.624 357.822 765.221 359.486 766.416C361.15 767.653 361.982 769.488 361.982 771.92C361.982 774.352 361.107 776.187 359.358 777.424C357.609 778.704 355.518 779.344 353.086 779.344H343.23V773.328H351.614C352.467 773.328 353.107 773.2 353.534 772.944C353.961 772.688 354.174 772.261 354.174 771.664C354.174 771.067 353.961 770.64 353.534 770.384C353.107 770.171 352.467 770.064 351.614 770.064H347.07V762.256C342.675 761.573 339.155 759.632 336.51 756.432C333.865 753.189 332.542 749.093 332.542 744.144C332.542 740.432 333.289 737.189 334.782 734.416C336.318 731.643 338.43 729.509 341.118 728.016C343.849 726.523 346.963 725.776 350.462 725.776C354.942 725.776 358.675 726.949 361.662 729.296C364.691 731.643 366.675 734.949 367.614 739.216H355.966C354.985 736.485 353.086 735.12 350.27 735.12C348.265 735.12 346.665 735.909 345.47 737.488C344.275 739.024 343.678 741.243 343.678 744.144C343.678 747.045 344.275 749.285 345.47 750.864C346.665 752.4 348.265 753.168 350.27 753.168ZM371.292 744.08C371.292 740.411 371.975 737.189 373.34 734.416C374.748 731.643 376.647 729.509 379.036 728.016C381.425 726.523 384.092 725.776 387.036 725.776C389.553 725.776 391.751 726.288 393.628 727.312C395.548 728.336 397.02 729.68 398.044 731.344V726.288H408.988V762H398.044V756.944C396.977 758.608 395.484 759.952 393.564 760.976C391.687 762 389.489 762.512 386.972 762.512C384.071 762.512 381.425 761.765 379.036 760.272C376.647 758.736 374.748 756.581 373.34 753.808C371.975 750.992 371.292 747.749 371.292 744.08ZM398.044 744.144C398.044 741.413 397.276 739.259 395.74 737.68C394.247 736.101 392.412 735.312 390.236 735.312C388.06 735.312 386.204 736.101 384.668 737.68C383.175 739.216 382.428 741.349 382.428 744.08C382.428 746.811 383.175 748.987 384.668 750.608C386.204 752.187 388.06 752.976 390.236 752.976C392.412 752.976 394.247 752.187 395.74 750.608C397.276 749.029 398.044 746.875 398.044 744.144ZM378.652 723.28C379.676 716.965 382.62 713.808 387.484 713.808C388.423 713.808 389.233 713.957 389.916 714.256C390.641 714.512 391.516 714.917 392.54 715.472C393.308 715.899 393.927 716.219 394.396 716.432C394.865 716.603 395.356 716.688 395.868 716.688C397.447 716.688 398.364 715.728 398.62 713.808H404.252C403.228 720.123 400.284 723.28 395.42 723.28C394.481 723.28 393.649 723.152 392.924 722.896C392.241 722.597 391.388 722.171 390.364 721.616C389.596 721.189 388.977 720.891 388.508 720.72C388.039 720.507 387.548 720.4 387.036 720.4C385.457 720.4 384.519 721.36 384.22 723.28H378.652ZM433.162 762.512C429.663 762.512 426.506 761.765 423.69 760.272C420.916 758.779 418.719 756.645 417.098 753.872C415.519 751.099 414.73 747.856 414.73 744.144C414.73 740.475 415.54 737.253 417.161 734.48C418.783 731.664 421.002 729.509 423.818 728.016C426.634 726.523 429.791 725.776 433.29 725.776C436.788 725.776 439.946 726.523 442.762 728.016C445.578 729.509 447.796 731.664 449.418 734.48C451.039 737.253 451.85 740.475 451.85 744.144C451.85 747.813 451.018 751.056 449.354 753.872C447.732 756.645 445.492 758.779 442.634 760.272C439.818 761.765 436.66 762.512 433.162 762.512ZM433.162 753.04C435.252 753.04 437.023 752.272 438.474 750.736C439.967 749.2 440.714 747.003 440.714 744.144C440.714 741.285 439.988 739.088 438.538 737.552C437.13 736.016 435.38 735.248 433.29 735.248C431.156 735.248 429.386 736.016 427.978 737.552C426.57 739.045 425.866 741.243 425.866 744.144C425.866 747.003 426.548 749.2 427.914 750.736C429.322 752.272 431.071 753.04 433.162 753.04ZM469.042 744.08C469.042 740.411 469.725 737.189 471.09 734.416C472.498 731.643 474.397 729.509 476.786 728.016C479.175 726.523 481.842 725.776 484.786 725.776C487.303 725.776 489.501 726.288 491.378 727.312C493.298 728.336 494.77 729.68 495.794 731.344V726.288H506.738V762H495.794V756.944C494.727 758.608 493.234 759.952 491.314 760.976C489.437 762 487.239 762.512 484.722 762.512C481.821 762.512 479.175 761.765 476.786 760.272C474.397 758.736 472.498 756.581 471.09 753.808C469.725 750.992 469.042 747.749 469.042 744.08ZM495.794 744.144C495.794 741.413 495.026 739.259 493.49 737.68C491.997 736.101 490.162 735.312 487.986 735.312C485.81 735.312 483.954 736.101 482.418 737.68C480.925 739.216 480.178 741.349 480.178 744.08C480.178 746.811 480.925 748.987 482.418 750.608C483.954 752.187 485.81 752.976 487.986 752.976C490.162 752.976 491.997 752.187 493.49 750.608C495.026 749.029 495.794 746.875 495.794 744.144ZM525.6 731.344C526.624 729.68 528.096 728.336 530.016 727.312C531.936 726.288 534.133 725.776 536.608 725.776C539.552 725.776 542.218 726.523 544.608 728.016C546.997 729.509 548.874 731.643 550.24 734.416C551.648 737.189 552.352 740.411 552.352 744.08C552.352 747.749 551.648 750.992 550.24 753.808C548.874 756.581 546.997 758.736 544.608 760.272C542.218 761.765 539.552 762.512 536.608 762.512C534.09 762.512 531.893 762.021 530.016 761.04C528.138 760.016 526.666 758.672 525.6 757.008V762H514.656V714.64H525.6V731.344ZM541.216 744.08C541.216 741.349 540.448 739.216 538.912 737.68C537.418 736.101 535.562 735.312 533.344 735.312C531.168 735.312 529.312 736.101 527.776 737.68C526.282 739.259 525.536 741.413 525.536 744.144C525.536 746.875 526.282 749.029 527.776 750.608C529.312 752.187 531.168 752.976 533.344 752.976C535.52 752.976 537.376 752.187 538.912 750.608C540.448 748.987 541.216 746.811 541.216 744.08ZM591.757 743.568C591.757 744.592 591.693 745.659 591.565 746.768H566.797C566.968 748.987 567.672 750.693 568.909 751.888C570.189 753.04 571.746 753.616 573.581 753.616C576.312 753.616 578.21 752.464 579.277 750.16H590.925C590.328 752.507 589.24 754.619 587.661 756.496C586.125 758.373 584.184 759.845 581.837 760.912C579.49 761.979 576.866 762.512 573.965 762.512C570.466 762.512 567.352 761.765 564.621 760.272C561.89 758.779 559.757 756.645 558.221 753.872C556.685 751.099 555.917 747.856 555.917 744.144C555.917 740.432 556.664 737.189 558.157 734.416C559.693 731.643 561.826 729.509 564.557 728.016C567.288 726.523 570.424 725.776 573.965 725.776C577.421 725.776 580.493 726.501 583.181 727.952C585.869 729.403 587.96 731.472 589.453 734.16C590.989 736.848 591.757 739.984 591.757 743.568ZM580.557 740.688C580.557 738.811 579.917 737.317 578.637 736.208C577.357 735.099 575.757 734.544 573.837 734.544C572.002 734.544 570.445 735.077 569.165 736.144C567.928 737.211 567.16 738.725 566.861 740.688H580.557ZM608.475 732.24C609.755 730.277 611.355 728.741 613.275 727.632C615.195 726.48 617.328 725.904 619.675 725.904V737.488H616.667C613.936 737.488 611.888 738.085 610.523 739.28C609.157 740.432 608.475 742.48 608.475 745.424V762H597.531V726.288H608.475V732.24ZM644.81 752.72V762H639.242C635.274 762 632.18 761.04 629.962 759.12C627.743 757.157 626.634 753.979 626.634 749.584V735.376H622.282V726.288H626.634V717.584H637.578V726.288H644.746V735.376H637.578V749.712C637.578 750.779 637.834 751.547 638.346 752.016C638.858 752.485 639.711 752.72 640.906 752.72H644.81ZM648.73 744.08C648.73 740.411 649.412 737.189 650.778 734.416C652.186 731.643 654.084 729.509 656.474 728.016C658.863 726.523 661.53 725.776 664.474 725.776C666.991 725.776 669.188 726.288 671.066 727.312C672.986 728.336 674.458 729.68 675.482 731.344V726.288H686.426V762H675.482V756.944C674.415 758.608 672.922 759.952 671.002 760.976C669.124 762 666.927 762.512 664.41 762.512C661.508 762.512 658.863 761.765 656.474 760.272C654.084 758.736 652.186 756.581 650.778 753.808C649.412 750.992 648.73 747.749 648.73 744.08ZM675.482 744.144C675.482 741.413 674.714 739.259 673.178 737.68C671.684 736.101 669.85 735.312 667.674 735.312C665.498 735.312 663.642 736.101 662.106 737.68C660.612 739.216 659.866 741.349 659.866 744.08C659.866 746.811 660.612 748.987 662.106 750.608C663.642 752.187 665.498 752.976 667.674 752.976C669.85 752.976 671.684 752.187 673.178 750.608C674.714 749.029 675.482 746.875 675.482 744.144Z" fill="#184655"/>
<g clip-path="url(#clip0)">
<g opacity="0.41">
<path opacity="0.41" d="M724.964 386.595C725.576 376.198 725.298 365.768 724.132 355.419C718.619 306.842 693.703 261.044 657.028 228.725C643.943 217.191 629.052 206.855 620.536 191.641C606.195 166.006 607.281 136.55 589.514 111.268C571.49 85.7075 545.95 66.3975 516.445 56.0215C429.064 25.7476 306.826 75.0008 317.839 180.205C317.839 180.586 317.924 181.136 317.966 181.827C318.298 186.994 317.58 192.175 315.853 197.056C314.127 201.938 311.428 206.418 307.921 210.228C304.414 214.037 300.171 217.095 295.448 219.218C290.725 221.34 285.621 222.483 280.444 222.577C199.888 224.495 130.541 286.608 115.693 365.289C106.161 415.882 121.785 471.34 158.799 507.141C186.422 533.862 223.492 548.54 260.591 558.622C334.957 578.856 413.201 583.087 489.88 575.359C561.652 568.126 637.372 547.483 683.791 492.265C708.551 462.809 722.737 425.09 724.964 386.595Z" fill="#E1E2FE"/>
</g>
<g opacity="0.31">
<path opacity="0.31" d="M363.08 47.0576C372.655 43.1287 377.232 32.1817 373.303 22.6069C369.374 13.032 358.427 8.455 348.852 12.3839C339.277 16.3128 334.7 27.2598 338.629 36.8347C342.558 46.4095 353.505 50.9865 363.08 47.0576Z" fill="#E1E2FE"/>
</g>
<g opacity="0.31">
<path opacity="0.31" d="M609.242 27.9756C614.584 27.9756 618.915 23.6449 618.915 18.3026C618.915 12.9604 614.584 8.62964 609.242 8.62964C603.9 8.62964 599.569 12.9604 599.569 18.3026C599.569 23.6449 603.9 27.9756 609.242 27.9756Z" fill="#E1E2FE"/>
</g>
<g opacity="0.31">
<path opacity="0.31" d="M277.527 80.3017C282.279 74.9499 281.792 66.7596 276.44 62.008C271.089 57.2565 262.898 57.7431 258.147 63.0949C253.395 68.4467 253.882 76.637 259.233 81.3886C264.585 86.1401 272.776 85.6535 277.527 80.3017Z" fill="#E1E2FE"/>
</g>
<g opacity="0.31">
<path opacity="0.31" d="M118.387 571.214C134.686 571.214 147.899 558 147.899 541.701C147.899 525.402 134.686 512.188 118.387 512.188C102.087 512.188 88.874 525.402 88.874 541.701C88.874 558 102.087 571.214 118.387 571.214Z" fill="#E1E2FE"/>
</g>
<path opacity="0.47" d="M727.305 83.8558C729.306 79.9602 730.521 75.7083 730.878 71.3431C731.236 66.9779 730.73 62.585 729.389 58.4155C728.048 54.246 725.899 50.3817 723.063 47.0433C720.228 43.705 716.763 40.9581 712.866 38.9596C696.481 30.4993 664.994 31.162 656.59 47.5469C648.186 63.9317 673.398 78.0041 683.677 93.275C698.018 114.525 718.901 100.17 727.305 83.8558Z" fill="#ECF1F7"/>
<path opacity="0.47" d="M655.659 587.386C661.351 591.061 668.27 592.326 674.894 590.9C681.518 589.475 687.305 585.477 690.981 579.786C698.638 567.927 700.556 543.872 688.697 536.216C676.839 528.559 664.218 546.735 651.852 553.404C634.452 562.739 643.815 579.729 655.659 587.386Z" fill="#E1E2FE"/>
<path opacity="0.47" d="M171.785 8.60135C165.521 2.78777 157.203 -0.299818 148.663 0.0174858C140.122 0.33479 132.057 4.03101 126.241 10.2934C114.128 23.3364 106.5 52.7784 119.515 64.8907C132.53 77.0031 152.228 57.22 169.135 51.6503C192.697 43.8809 184.814 20.7137 171.785 8.60135Z" fill="#E1E2FE"/>
<path opacity="0.47" d="M99.9008 149.367C88.2989 174.889 85.0614 203.424 90.6509 230.896C97.2076 262.877 117.118 287.454 110.208 321.563C105.978 342.333 104.949 361.594 102.82 382.195C98.4626 424.37 125.902 461.567 159.871 481.647C187.494 497.961 219.869 504.081 251.623 503.658C280.205 503.263 308.73 498.017 336.424 490.882C363.116 484.044 389.202 475.033 417.178 477.882C440.444 480.237 461.397 490.304 483.07 497.806C534.805 515.714 597.454 518.237 644.761 490.981C669.859 476.252 689.594 453.888 701.084 427.152C712.575 400.416 715.221 370.707 708.637 342.361C702.841 316.783 693.126 290.979 696.087 264.329C698.202 245.744 706.705 227.808 705.154 209.182C704.11 196.801 698.668 185.211 691.998 174.692C667.66 136.409 626.896 110.788 583.79 96.6593C543.223 83.3765 501.372 73.7459 459.141 76.9185C371.802 83.5598 353.993 69.7554 264.751 50.5928C207.136 38.2689 142.682 82.2062 108.982 133.095C105.545 138.28 102.51 143.72 99.9008 149.367Z" fill="#E1E2FE"/>
<path opacity="0.81" d="M159.983 188.708C158.193 208.857 164.989 229.599 159.306 249.58C152.51 273.48 132.826 291.374 124.788 314.837C112.93 349.496 113.508 388.343 127.905 422.114C134.842 438.4 144.994 453.53 158.841 463.993C180.175 480.124 208.193 483.649 234.462 481.604C273.606 478.559 314.92 461.61 354.317 466.235C376.046 468.787 382.673 492.292 393.883 507.803C406.636 525.152 423.497 539.063 442.953 548.286C478.134 565.206 520.366 566.786 556.322 551.458C594.718 535.116 628.235 495.183 625.979 450.033C624.963 429.136 616.602 408.394 620.465 387.864C625.33 362.102 644.747 338.625 658.805 317.643C674.492 294.094 683.73 266.843 685.596 238.609C685.596 238.299 685.596 237.975 685.666 237.651C686.972 213.963 680.415 190.508 667.015 170.932C653.615 151.356 634.122 136.756 611.568 129.401L513.047 96.9695C413.046 64.1152 313.172 65.2292 221.278 113.467C201.383 123.902 169.008 155.007 162.338 176.454C161.113 180.442 160.324 184.55 159.983 188.708Z" fill="#E1E2FE"/>
<path opacity="0.58" d="M709.172 512.626C712.676 512.626 715.517 509.785 715.517 506.28C715.517 502.776 712.676 499.935 709.172 499.935C705.667 499.935 702.826 502.776 702.826 506.28C702.826 509.785 705.667 512.626 709.172 512.626Z" fill="#184655"/>
<path opacity="0.58" d="M416.05 18.091C419.554 18.091 422.395 15.2501 422.395 11.7458C422.395 8.24138 419.554 5.40051 416.05 5.40051C412.545 5.40051 409.704 8.24138 409.704 11.7458C409.704 15.2501 412.545 18.091 416.05 18.091Z" fill="#184655"/>
<path opacity="0.58" d="M186.817 571.143C190.321 571.143 193.162 568.302 193.162 564.798C193.162 561.293 190.321 558.453 186.817 558.453C183.312 558.453 180.471 561.293 180.471 564.798C180.471 568.302 183.312 571.143 186.817 571.143Z" fill="#184655"/>
<path opacity="0.58" d="M587.315 596.411C590.041 596.411 592.251 594.201 592.251 591.476C592.251 588.75 590.041 586.541 587.315 586.541C584.59 586.541 582.38 588.75 582.38 591.476C582.38 594.201 584.59 596.411 587.315 596.411Z" fill="#A4303F"/>
<path opacity="0.58" d="M95.2334 492.25C98.7378 492.25 101.579 489.409 101.579 485.905C101.579 482.401 98.7378 479.56 95.2334 479.56C91.729 479.56 88.8882 482.401 88.8882 485.905C88.8882 489.409 91.729 492.25 95.2334 492.25Z" fill="#A4303F"/>
<path opacity="0.58" d="M552.204 34.6591C554.93 34.6591 557.14 32.4495 557.14 29.7239C557.14 26.9983 554.93 24.7887 552.204 24.7887C549.479 24.7887 547.269 26.9983 547.269 29.7239C547.269 32.4495 549.479 34.6591 552.204 34.6591Z" fill="#184655"/>
<path opacity="0.58" d="M220.122 83.2215C221.29 83.2215 222.237 82.2746 222.237 81.1064C222.237 79.9383 221.29 78.9913 220.122 78.9913C218.954 78.9913 218.007 79.9383 218.007 81.1064C218.007 82.2746 218.954 83.2215 220.122 83.2215Z" fill="#184655"/>
<path opacity="0.58" d="M725.274 144.488C724.959 145.961 724.215 147.307 723.134 148.357C722.054 149.406 720.687 150.112 719.206 150.384C717.725 150.656 716.196 150.484 714.813 149.887C713.43 149.291 712.255 148.298 711.437 147.033C710.618 145.769 710.193 144.291 710.215 142.785C710.237 141.279 710.704 139.813 711.559 138.574C712.414 137.334 713.617 136.375 715.017 135.819C716.417 135.263 717.95 135.134 719.423 135.45C721.397 135.872 723.123 137.062 724.22 138.757C725.318 140.452 725.697 142.514 725.274 144.488Z" fill="#A4303F"/>
<path opacity="0.58" d="M202.144 21.7008C202.022 22.2797 201.731 22.8095 201.308 23.2229C200.884 23.6363 200.348 23.9148 199.766 24.0232C199.184 24.1315 198.584 24.0648 198.04 23.8315C197.496 23.5982 197.034 23.2087 196.712 22.7125C196.389 22.2163 196.222 21.6356 196.23 21.0439C196.238 20.4523 196.421 19.8764 196.757 19.3891C197.092 18.9017 197.565 18.525 198.115 18.3064C198.665 18.0879 199.267 18.0375 199.845 18.1615C200.229 18.2419 200.594 18.3974 200.917 18.6191C201.241 18.8408 201.517 19.1242 201.731 19.4531C201.944 19.7821 202.091 20.15 202.162 20.5357C202.233 20.9214 202.227 21.3174 202.144 21.7008Z" fill="#A4303F"/>
<path opacity="0.58" d="M678.404 9.12286C678.298 9.61344 678.049 10.0616 677.688 10.4106C677.327 10.7596 676.871 10.9938 676.377 11.0836C675.884 11.1734 675.374 11.1148 674.914 10.9151C674.453 10.7155 674.062 10.3838 673.79 9.96196C673.518 9.54014 673.377 9.04713 673.386 8.54528C673.394 8.04342 673.55 7.55525 673.836 7.14247C674.122 6.72969 674.523 6.41085 674.99 6.22624C675.457 6.04164 675.968 5.99957 676.458 6.10534C677.115 6.25064 677.687 6.64906 678.051 7.21406C678.416 7.77906 678.542 8.46499 678.404 9.12286Z" fill="#184655"/>
<path opacity="0.58" d="M141.103 614.939C141 615.431 140.753 615.881 140.395 616.232C140.036 616.583 139.581 616.821 139.088 616.913C138.594 617.006 138.084 616.951 137.622 616.754C137.16 616.556 136.767 616.227 136.493 615.806C136.218 615.386 136.075 614.893 136.08 614.391C136.086 613.889 136.24 613.399 136.524 612.985C136.808 612.571 137.208 612.25 137.674 612.063C138.14 611.876 138.651 611.832 139.143 611.935C139.801 612.074 140.376 612.469 140.744 613.032C141.111 613.595 141.24 614.281 141.103 614.939Z" fill="#184655"/>
<path d="M504.498 235.042L700.28 276.995L674.245 398.488C673.1 403.835 669.877 408.508 665.285 411.478C660.694 414.449 655.111 415.474 649.764 414.329L494.305 381.016C488.958 379.87 484.285 376.647 481.314 372.056C478.344 367.465 477.318 361.882 478.464 356.535L504.498 235.042Z" fill="white"/>
<path d="M655.656 393.925L678.96 283.626L651.823 277.893L628.519 388.192L655.656 393.925Z" stroke="#F74158" stroke-width="2" stroke-miterlimit="10"/>
<path d="M678.967 283.708L519.333 249.98L496.029 360.279L655.663 394.006L678.967 283.708Z" stroke="#F74158" stroke-width="2" stroke-miterlimit="10"/>
<path d="M678.968 283.713L519.334 249.986L513.601 277.122L673.234 310.85L678.968 283.713Z" stroke="#F74158" stroke-width="2" stroke-miterlimit="10"/>
<path d="M667.29 338.976L507.656 305.248L501.922 332.385L661.556 366.112L667.29 338.976Z" stroke="#F74158" stroke-width="2" stroke-miterlimit="10"/>
<path d="M602.943 382.815L626.247 272.516L599.11 266.782L575.807 377.081L602.943 382.815Z" stroke="#F74158" stroke-width="2" stroke-miterlimit="10"/>
<path d="M547.74 371.441L571.415 260.962L544.233 255.138L520.559 365.617L547.74 371.441Z" stroke="#F74158" stroke-width="2.00449" stroke-miterlimit="10"/>
<path d="M522.968 200.091L696.798 236.818C698.213 237.116 699.555 237.691 700.748 238.509C701.941 239.327 702.961 240.371 703.75 241.583C704.539 242.795 705.082 244.15 705.347 245.572C705.612 246.994 705.595 248.454 705.296 249.869L700.108 274.426L504.729 233.146L509.908 208.63C510.203 207.211 510.774 205.863 511.591 204.665C512.407 203.467 513.452 202.442 514.665 201.648C515.878 200.855 517.236 200.309 518.661 200.042C520.086 199.774 521.55 199.791 522.968 200.091Z" fill="#F74158"/>
<path d="M677.996 253.923C681.843 253.923 684.962 250.804 684.962 246.957C684.962 243.11 681.843 239.991 677.996 239.991C674.149 239.991 671.031 243.11 671.031 246.957C671.031 250.804 674.149 253.923 677.996 253.923Z" fill="#A4303F"/>
<path d="M677.771 248.071C677.338 247.982 676.928 247.808 676.563 247.56C676.198 247.312 675.886 246.993 675.645 246.624C675.403 246.254 675.238 245.84 675.157 245.406C675.077 244.972 675.083 244.526 675.176 244.095L678.49 228.401C678.58 227.969 678.755 227.56 679.004 227.196C679.253 226.832 679.571 226.52 679.94 226.28C680.309 226.039 680.723 225.873 681.156 225.792C681.589 225.71 682.034 225.715 682.466 225.806C683.338 225.992 684.102 226.517 684.588 227.265C685.074 228.013 685.244 228.924 685.06 229.797L681.747 245.476C681.658 245.909 681.484 246.319 681.236 246.684C680.988 247.049 680.669 247.361 680.3 247.603C679.93 247.844 679.516 248.01 679.082 248.09C678.648 248.17 678.202 248.164 677.771 248.071Z" fill="white"/>
<path d="M535.728 223.748C539.569 223.528 542.504 220.236 542.284 216.395C542.064 212.555 538.772 209.62 534.931 209.84C531.091 210.06 528.156 213.352 528.376 217.192C528.596 221.033 531.888 223.968 535.728 223.748Z" fill="#A4303F"/>
<path d="M535.087 217.938C534.655 217.848 534.246 217.673 533.882 217.424C533.518 217.175 533.206 216.857 532.966 216.488C532.725 216.118 532.559 215.705 532.478 215.272C532.396 214.838 532.401 214.393 532.492 213.962L535.806 198.268C535.896 197.836 536.071 197.427 536.32 197.063C536.569 196.699 536.887 196.388 537.256 196.147C537.626 195.906 538.039 195.74 538.472 195.659C538.905 195.578 539.351 195.583 539.782 195.673C540.214 195.762 540.625 195.936 540.99 196.184C541.355 196.433 541.667 196.751 541.908 197.121C542.149 197.49 542.315 197.904 542.395 198.338C542.476 198.772 542.469 199.218 542.376 199.65L539.049 215.344C538.866 216.212 538.346 216.973 537.604 217.459C536.861 217.945 535.956 218.118 535.087 217.938Z" fill="white"/>
<path d="M578.347 225.905C578.064 227.253 577.387 228.487 576.403 229.451C575.418 230.415 574.17 231.065 572.816 231.319C571.463 231.574 570.064 231.421 568.796 230.88C567.529 230.34 566.451 229.435 565.698 228.282C564.945 227.128 564.55 225.777 564.565 224.4C564.579 223.022 565.002 221.68 565.779 220.543C566.557 219.405 567.654 218.524 568.932 218.01C570.21 217.496 571.612 217.373 572.961 217.656C574.767 218.039 576.348 219.122 577.358 220.668C578.367 222.214 578.723 224.097 578.347 225.905Z" fill="#A4303F"/>
<path d="M571.297 225.595C570.864 225.504 570.453 225.329 570.088 225.079C569.723 224.83 569.411 224.51 569.17 224.139C568.928 223.768 568.763 223.353 568.683 222.918C568.603 222.483 568.609 222.037 568.702 221.604L572.016 205.911C572.106 205.479 572.281 205.07 572.53 204.706C572.779 204.342 573.097 204.03 573.466 203.789C573.836 203.548 574.249 203.382 574.682 203.301C575.116 203.22 575.561 203.225 575.992 203.316C576.865 203.502 577.628 204.027 578.114 204.775C578.601 205.523 578.771 206.433 578.587 207.306L575.273 223C575.087 223.87 574.564 224.631 573.819 225.117C573.074 225.603 572.168 225.775 571.297 225.595Z" fill="white"/>
<path d="M644.398 246.332C648.153 245.493 650.516 241.77 649.678 238.015C648.839 234.261 645.116 231.897 641.361 232.736C637.607 233.574 635.243 237.298 636.081 241.052C636.92 244.807 640.643 247.17 644.398 246.332Z" fill="#A4303F"/>
<path d="M642.646 240.654C642.215 240.564 641.805 240.389 641.441 240.14C641.077 239.891 640.766 239.573 640.525 239.204C640.284 238.834 640.118 238.421 640.037 237.988C639.956 237.554 639.961 237.109 640.052 236.678L643.393 220.984C643.58 220.111 644.104 219.348 644.852 218.862C645.6 218.375 646.511 218.205 647.384 218.389C648.257 218.576 649.02 219.1 649.506 219.848C649.992 220.596 650.162 221.507 649.978 222.38L646.651 238.06C646.562 238.495 646.388 238.908 646.137 239.276C645.887 239.643 645.566 239.956 645.193 240.198C644.82 240.439 644.403 240.604 643.966 240.682C643.528 240.761 643.08 240.751 642.646 240.654Z" fill="white"/>
<path d="M633.226 346.366C632.9 347.913 632.122 349.328 630.991 350.433C629.86 351.538 628.427 352.283 626.873 352.573C625.319 352.863 623.713 352.687 622.26 352.065C620.806 351.443 619.569 350.404 618.706 349.08C617.843 347.755 617.392 346.204 617.409 344.623C617.427 343.043 617.914 341.502 618.807 340.198C619.7 338.893 620.96 337.883 622.427 337.294C623.894 336.705 625.503 336.565 627.05 336.89C628.078 337.107 629.053 337.524 629.92 338.117C630.787 338.71 631.528 339.469 632.102 340.349C632.675 341.229 633.07 342.213 633.263 343.245C633.456 344.278 633.444 345.338 633.226 346.366Z" stroke="#00B19F" stroke-miterlimit="10"/>
<path d="M616.856 284.464C616.529 286.011 615.751 287.427 614.62 288.532C613.489 289.636 612.056 290.381 610.502 290.672C608.948 290.962 607.343 290.785 605.889 290.163C604.435 289.542 603.199 288.503 602.335 287.178C601.472 285.854 601.021 284.303 601.039 282.722C601.057 281.141 601.543 279.601 602.436 278.296C603.329 276.992 604.589 275.981 606.056 275.392C607.524 274.804 609.133 274.663 610.68 274.989C611.708 275.205 612.683 275.622 613.55 276.215C614.416 276.809 615.158 277.567 615.731 278.447C616.305 279.327 616.699 280.311 616.892 281.344C617.085 282.376 617.073 283.437 616.856 284.464Z" fill="#2B809B"/>
<path d="M564.684 274.34C564.357 275.887 563.579 277.303 562.448 278.408C561.317 279.512 559.884 280.257 558.33 280.548C556.776 280.838 555.17 280.661 553.717 280.039C552.263 279.418 551.027 278.379 550.163 277.054C549.3 275.73 548.849 274.179 548.867 272.598C548.885 271.017 549.371 269.477 550.264 268.172C551.157 266.868 552.417 265.857 553.884 265.268C555.352 264.68 556.961 264.539 558.508 264.865C560.58 265.309 562.392 266.554 563.549 268.329C564.706 270.105 565.114 272.266 564.684 274.34V274.34Z" stroke="#00B19F" stroke-miterlimit="10"/>
<g opacity="0.66">
<path opacity="0.66" d="M236.197 477.699L247.04 480.688C246.28 488.977 247.324 497.333 250.1 505.181L240.314 510.75C239.104 511.403 238.035 512.291 237.173 513.362C236.31 514.434 235.67 515.667 235.291 516.989C234.912 518.311 234.8 519.695 234.964 521.061C235.127 522.427 235.561 523.746 236.242 524.942C236.922 526.137 237.835 527.184 238.926 528.022C240.016 528.86 241.264 529.471 242.594 529.82C243.925 530.169 245.311 530.248 246.673 530.054C248.035 529.859 249.344 529.394 250.523 528.686L260.309 523.131C265.633 529.526 272.275 534.696 279.782 538.289L276.778 549.174C276.417 550.481 276.316 551.846 276.483 553.191C276.649 554.536 277.079 555.835 277.748 557.014C278.418 558.193 279.313 559.228 280.383 560.061C281.453 560.893 282.676 561.506 283.984 561.865V561.865C285.29 562.227 286.655 562.327 288 562.161C289.346 561.994 290.645 561.564 291.824 560.895C293.002 560.225 294.038 559.33 294.87 558.26C295.702 557.19 296.315 555.967 296.674 554.659L299.663 543.802C307.964 544.558 316.33 543.504 324.184 540.714L329.754 550.5C330.397 551.727 331.28 552.813 332.351 553.692C333.422 554.571 334.659 555.226 335.988 555.617C337.317 556.007 338.712 556.126 340.088 555.967C341.465 555.807 342.795 555.372 343.999 554.687C345.204 554.003 346.259 553.082 347.1 551.981C347.941 550.881 348.552 549.622 348.897 548.279C349.241 546.937 349.312 545.539 349.104 544.169C348.897 542.799 348.416 541.485 347.69 540.305L342.134 530.519C348.529 525.188 353.699 518.542 357.292 511.032L368.136 514.022C369.443 514.381 370.808 514.48 372.154 514.311C373.499 514.143 374.798 513.711 375.977 513.041C377.155 512.371 378.19 511.475 379.022 510.404C379.854 509.334 380.467 508.11 380.826 506.802V506.802C381.188 505.496 381.288 504.131 381.122 502.786C380.955 501.44 380.525 500.141 379.856 498.962C379.187 497.783 378.291 496.748 377.222 495.916C376.152 495.084 374.928 494.47 373.621 494.112L362.763 491.122C363.522 482.833 362.478 474.478 359.704 466.63L369.489 461.074C370.674 460.408 371.715 459.514 372.554 458.444C373.392 457.375 374.011 456.15 374.375 454.84C374.739 453.531 374.84 452.162 374.674 450.814C374.507 449.465 374.076 448.162 373.405 446.98C372.734 445.798 371.836 444.761 370.762 443.927C369.689 443.093 368.462 442.479 367.151 442.121C365.84 441.763 364.471 441.667 363.123 441.839C361.775 442.011 360.474 442.448 359.295 443.124L349.509 448.68C344.178 442.293 337.531 437.132 330.022 433.55L333.011 422.706C333.371 421.399 333.469 420.034 333.301 418.688C333.133 417.343 332.701 416.044 332.031 414.865C331.36 413.687 330.464 412.652 329.394 411.82C328.323 410.988 327.099 410.375 325.792 410.016V410.016C324.484 409.656 323.119 409.558 321.774 409.726C320.428 409.894 319.129 410.326 317.951 410.997C316.772 411.667 315.737 412.563 314.905 413.633C314.073 414.704 313.46 415.928 313.101 417.235L310.126 428.079C301.832 427.319 293.472 428.363 285.619 431.139L280.064 421.353C279.393 420.174 278.497 419.139 277.427 418.307C276.357 417.474 275.133 416.861 273.826 416.502C272.518 416.142 271.153 416.044 269.807 416.212C268.462 416.38 267.163 416.812 265.984 417.482C264.806 418.153 263.771 419.048 262.938 420.119C262.106 421.189 261.492 422.413 261.133 423.72C260.774 425.028 260.675 426.393 260.843 427.738C261.012 429.084 261.443 430.383 262.114 431.562L267.754 441.333C261.352 446.66 256.176 453.308 252.582 460.82L241.738 457.845C240.432 457.483 239.067 457.383 237.722 457.549C236.377 457.716 235.077 458.146 233.898 458.815C232.72 459.485 231.684 460.38 230.852 461.45C230.02 462.52 229.407 463.743 229.048 465.05V465.05C228.332 467.675 228.681 470.477 230.02 472.845C231.359 475.214 233.579 476.958 236.197 477.699ZM316.062 445.352C324.079 447.559 331.262 452.094 336.702 458.383C342.142 464.672 345.595 472.432 346.625 480.684C347.655 488.935 346.215 497.307 342.488 504.74C338.76 512.173 332.913 518.334 325.684 522.444C318.456 526.554 310.171 528.428 301.877 527.83C293.583 527.232 285.653 524.189 279.089 519.084C272.525 513.979 267.621 507.043 264.999 499.152C262.377 491.261 262.153 482.77 264.356 474.752C267.314 463.997 274.424 454.857 284.121 449.344C293.817 443.831 305.307 442.395 316.062 445.352V445.352Z" stroke="white" stroke-width="2" stroke-miterlimit="10" stroke-linecap="round"/>
<path opacity="0.66" d="M454.854 99.9025L457.266 107.39C452.128 110.086 447.635 113.862 444.096 118.459L437.102 114.877C436.262 114.331 435.317 113.965 434.327 113.805C433.338 113.645 432.326 113.694 431.356 113.948C430.387 114.202 429.481 114.656 428.697 115.281C427.913 115.905 427.269 116.687 426.805 117.576C426.341 118.464 426.067 119.44 426.003 120.44C425.938 121.44 426.083 122.443 426.429 123.384C426.774 124.325 427.313 125.183 428.009 125.903C428.706 126.624 429.546 127.191 430.474 127.568L437.44 131.178C435.717 136.715 435.212 142.559 435.96 148.31L428.486 150.679C426.669 151.255 425.155 152.53 424.278 154.222C423.4 155.914 423.23 157.885 423.805 159.703C424.381 161.52 425.656 163.034 427.348 163.912C429.04 164.79 431.012 164.96 432.829 164.384L440.303 162.015C442.998 167.153 446.774 171.646 451.372 175.185L447.762 182.137C446.883 183.831 446.713 185.805 447.29 187.624C447.866 189.443 449.142 190.959 450.836 191.838C452.53 192.717 454.504 192.887 456.323 192.31C458.142 191.734 459.658 190.458 460.537 188.764L464.147 181.798C469.689 183.499 475.533 183.98 481.279 183.209L483.648 190.682C484.224 192.499 485.499 194.013 487.191 194.891C488.883 195.768 490.855 195.938 492.672 195.363C494.489 194.787 496.003 193.512 496.881 191.82C497.759 190.128 497.929 188.156 497.354 186.339L494.985 178.866C500.118 176.169 504.606 172.393 508.14 167.797L515.106 171.406C516.761 172.068 518.603 172.091 520.275 171.471C521.946 170.851 523.328 169.632 524.151 168.052C524.975 166.471 525.182 164.64 524.733 162.915C524.284 161.19 523.21 159.694 521.719 158.716L514.768 155.092C516.492 149.555 516.997 143.711 516.248 137.96L523.722 135.591C525.539 135.015 527.053 133.74 527.93 132.048C528.808 130.356 528.978 128.384 528.403 126.567V126.567C527.827 124.75 526.552 123.236 524.86 122.358C523.168 121.48 521.196 121.31 519.379 121.885L511.905 124.254C509.2 119.123 505.42 114.636 500.822 111.098L504.432 104.133C504.908 103.291 505.21 102.363 505.319 101.402C505.428 100.442 505.342 99.4691 505.067 98.5424C504.792 97.6158 504.332 96.7541 503.716 96.009C503.1 95.264 502.341 94.6507 501.482 94.2059C500.624 93.7611 499.685 93.4939 498.721 93.4203C497.757 93.3467 496.788 93.4682 495.872 93.7775C494.957 94.0869 494.112 94.5777 493.391 95.2206C492.669 95.8635 492.084 96.6454 491.671 97.5195L488.061 104.471C482.519 102.771 476.675 102.29 470.929 103.061L468.546 95.5737C468.262 94.6726 467.803 93.8364 467.196 93.1128C466.589 92.3891 465.845 91.7922 465.007 91.3562C464.169 90.9201 463.253 90.6535 462.312 90.5715C461.371 90.4894 460.423 90.5937 459.522 90.8782V90.8782C457.707 91.4576 456.197 92.7332 455.322 94.4251C454.447 96.117 454.279 98.0869 454.854 99.9025V99.9025ZM504.023 134.336C505.775 139.861 505.849 145.781 504.236 151.348C502.623 156.914 499.395 161.878 494.961 165.61C490.527 169.342 485.085 171.675 479.325 172.315C473.565 172.954 467.744 171.871 462.599 169.202C457.455 166.533 453.217 162.398 450.423 157.32C447.628 152.243 446.402 146.451 446.9 140.676C447.398 134.902 449.596 129.405 453.219 124.88C456.841 120.356 461.723 117.007 467.249 115.258C470.916 114.095 474.777 113.666 478.61 113.995C482.443 114.325 486.174 115.406 489.589 117.178C493.004 118.95 496.036 121.377 498.513 124.321C500.99 127.265 502.862 130.668 504.023 134.336Z" stroke="white" stroke-width="2" stroke-miterlimit="10" stroke-linecap="round"/>
<path opacity="0.66" d="M290.611 126.158L301.045 127.666C301.281 135.455 303.205 143.1 306.686 150.072L298.225 156.375C296.168 157.908 294.805 160.196 294.435 162.735C294.064 165.273 294.718 167.855 296.251 169.912C297.784 171.969 300.072 173.332 302.611 173.702C305.149 174.073 307.731 173.419 309.788 171.886L318.248 165.583C323.937 170.906 330.71 174.937 338.102 177.399L336.593 187.819C336.409 189.076 336.475 190.356 336.787 191.587C337.099 192.818 337.65 193.976 338.41 194.993C339.17 196.011 340.122 196.869 341.214 197.518C342.305 198.167 343.514 198.594 344.771 198.776C347.308 199.142 349.887 198.487 351.942 196.954C353.996 195.42 355.358 193.134 355.727 190.597L357.236 180.177C365.024 179.933 372.667 178.009 379.642 174.537L385.945 182.997C387.478 185.054 389.766 186.417 392.304 186.788C394.843 187.158 397.424 186.504 399.481 184.971C401.538 183.438 402.902 181.15 403.272 178.612C403.642 176.073 402.989 173.491 401.455 171.435L395.152 162.974C400.486 157.275 404.522 150.487 406.983 143.078L417.417 144.587C418.673 144.771 419.953 144.704 421.183 144.392C422.413 144.081 423.569 143.529 424.586 142.769C425.602 142.009 426.459 141.056 427.106 139.965C427.754 138.874 428.18 137.665 428.359 136.409V136.409C428.543 135.154 428.477 133.876 428.166 132.646C427.855 131.417 427.305 130.261 426.546 129.245C425.788 128.228 424.837 127.372 423.747 126.723C422.657 126.075 421.45 125.648 420.195 125.467L409.761 123.944C409.517 116.161 407.593 108.522 404.12 101.552L412.581 95.2493C414.638 93.716 416.001 91.4285 416.371 88.8899C416.742 86.3513 416.088 83.7696 414.555 81.7128C413.022 79.6559 410.734 78.2924 408.195 77.9222C405.657 77.552 403.075 78.2054 401.018 79.7387L392.558 86.0417C386.854 80.7199 380.067 76.694 372.662 74.2395L374.185 63.8192C374.368 62.5626 374.302 61.2822 373.991 60.0512C373.679 58.8202 373.127 57.6628 372.368 56.6452C371.608 55.6275 370.655 54.7697 369.564 54.1207C368.472 53.4717 367.263 53.0443 366.007 52.863V52.863C363.469 52.4962 360.89 53.1514 358.836 54.6849C356.782 56.2184 355.42 58.5046 355.05 61.0414L353.542 71.4617C345.755 71.7122 338.113 73.6359 331.136 77.1019L324.833 68.6416C324.074 67.6231 323.121 66.7642 322.03 66.1138C320.939 65.4634 319.73 65.0343 318.473 64.851C317.217 64.6677 315.936 64.7338 314.704 65.0454C313.473 65.3571 312.315 65.9083 311.296 66.6675C310.278 67.4267 309.419 68.379 308.769 69.4702C308.118 70.5614 307.689 71.7699 307.506 73.0269C307.323 74.2839 307.389 75.5647 307.7 76.7961C308.012 78.0276 308.563 79.1856 309.322 80.204L315.625 88.6644C310.3 94.3573 306.269 101.135 303.809 108.532L293.375 107.023C292.119 106.84 290.84 106.905 289.609 107.216C288.379 107.527 287.222 108.077 286.205 108.835C285.188 109.594 284.329 110.545 283.68 111.635C283.03 112.725 282.601 113.932 282.418 115.188V115.188C282.235 116.446 282.301 117.728 282.614 118.961C282.926 120.194 283.479 121.353 284.24 122.371C285.001 123.39 285.955 124.249 287.048 124.899C288.142 125.549 289.352 125.976 290.611 126.158V126.158ZM361.114 86.8313C368.819 87.9495 376.021 91.3276 381.806 96.5385C387.592 101.749 391.703 108.559 393.619 116.106C395.534 123.653 395.169 131.599 392.569 138.938C389.969 146.278 385.251 152.682 379.011 157.34C372.771 161.998 365.291 164.701 357.515 165.107C349.739 165.513 342.017 163.605 335.326 159.623C328.635 155.641 323.275 149.764 319.924 142.735C316.573 135.707 315.381 127.843 316.499 120.137C318.007 109.821 323.544 100.523 331.897 94.2847C340.251 88.0462 350.738 85.3758 361.057 86.8595L361.114 86.8313Z" stroke="white" stroke-width="2" stroke-miterlimit="10" stroke-linecap="round"/>
<g opacity="0.81">
<path opacity="0.81" d="M584.523 451.739H627.586" stroke="white" stroke-width="2" stroke-miterlimit="10" stroke-linecap="round"/>
<path opacity="0.81" d="M584.523 476.147H627.586" stroke="white" stroke-width="2" stroke-miterlimit="10" stroke-linecap="round"/>
<path opacity="0.81" d="M661.287 421.621H485.989C484.657 421.621 483.577 422.7 483.577 424.032V498.384C483.577 499.716 484.657 500.795 485.989 500.795H661.287C662.618 500.795 663.698 499.716 663.698 498.384V424.032C663.698 422.7 662.618 421.621 661.287 421.621Z" stroke="white" stroke-width="2" stroke-miterlimit="10" stroke-linecap="round"/>
<g opacity="0.66">
<path opacity="0.66" d="M661.287 421.621H485.989C484.657 421.621 483.577 422.7 483.577 424.032V498.384C483.577 499.716 484.657 500.795 485.989 500.795H661.287C662.618 500.795 663.698 499.716 663.698 498.384V424.032C663.698 422.7 662.618 421.621 661.287 421.621Z" stroke="white" stroke-width="2" stroke-miterlimit="10" stroke-linecap="round"/>
</g>
<path opacity="0.81" d="M509.128 439.895H627.586" stroke="white" stroke-width="2" stroke-miterlimit="10" stroke-linecap="round"/>
<path opacity="0.81" d="M509.128 463.584H627.586" stroke="white" stroke-width="2" stroke-miterlimit="10" stroke-linecap="round"/>
<path opacity="0.81" d="M509.128 451.739H572.989" stroke="white" stroke-width="2" stroke-miterlimit="10" stroke-linecap="round"/>
<path opacity="0.81" d="M509.128 476.147H572.989" stroke="white" stroke-width="2" stroke-miterlimit="10" stroke-linecap="round"/>
<path opacity="0.81" d="M509.128 487.456H552.204" stroke="white" stroke-width="2" stroke-miterlimit="10" stroke-linecap="round"/>
</g>
</g>
<g opacity="0.81">
<path opacity="0.81" d="M203.963 181.954H160.886" stroke="white" stroke-width="2" stroke-miterlimit="10" stroke-linecap="round"/>
<path opacity="0.81" d="M203.963 157.546H160.886" stroke="white" stroke-width="2" stroke-miterlimit="10" stroke-linecap="round"/>
<path opacity="0.81" d="M302.498 132.898H127.2C125.868 132.898 124.788 133.977 124.788 135.309V209.661C124.788 210.993 125.868 212.072 127.2 212.072H302.498C303.83 212.072 304.909 210.993 304.909 209.661V135.309C304.909 133.977 303.83 132.898 302.498 132.898Z" stroke="white" stroke-width="2" stroke-miterlimit="10" stroke-linecap="round"/>
<g opacity="0.66">
<path opacity="0.66" d="M302.498 132.898H127.2C125.868 132.898 124.788 133.977 124.788 135.309V209.661C124.788 210.993 125.868 212.072 127.2 212.072H302.498C303.83 212.072 304.909 210.993 304.909 209.661V135.309C304.909 133.977 303.83 132.898 302.498 132.898Z" stroke="white" stroke-width="2" stroke-miterlimit="10" stroke-linecap="round"/>
</g>
<path opacity="0.81" d="M279.345 193.798H160.886" stroke="white" stroke-width="2" stroke-miterlimit="10" stroke-linecap="round"/>
<path opacity="0.81" d="M279.345 170.109H160.886" stroke="white" stroke-width="2" stroke-miterlimit="10" stroke-linecap="round"/>
<path opacity="0.81" d="M279.345 181.954H215.483" stroke="white" stroke-width="2" stroke-miterlimit="10" stroke-linecap="round"/>
<path opacity="0.81" d="M279.345 157.546H215.483" stroke="white" stroke-width="2" stroke-miterlimit="10" stroke-linecap="round"/>
<path opacity="0.81" d="M279.345 146.237H236.281" stroke="white" stroke-width="2" stroke-miterlimit="10" stroke-linecap="round"/>
</g>
<path d="M566.235 198.31L558.635 202.301L511.849 188.539L507.619 181.22C499.027 166.181 493.562 149.561 491.551 132.358C489.54 115.154 491.024 97.722 495.916 81.1064L630.237 120.588C625.36 137.189 617.176 152.632 606.178 165.989C595.179 179.345 581.592 190.34 566.235 198.31Z" fill="white"/>
<path d="M504.404 192.43L512.004 188.496L558.79 202.301L563.02 209.633C571.612 224.672 577.078 241.292 579.089 258.496C581.1 275.699 579.615 293.131 574.723 309.747L440.401 270.265C445.265 253.644 453.443 238.179 464.442 224.802C475.442 211.425 489.035 200.414 504.404 192.43Z" fill="white"/>
<path opacity="0.4" d="M630.279 120.602L495.958 81.1205C491.066 97.7361 489.582 115.168 491.593 132.372C493.604 149.575 499.069 166.195 507.661 181.234L511.891 188.553H512.046L504.404 192.43C489.035 200.396 475.436 211.39 464.427 224.75C453.419 238.109 445.227 253.558 440.345 270.167L574.667 309.648C579.559 293.033 581.044 275.6 579.032 258.397C577.021 241.193 571.556 224.573 562.963 209.534L558.733 202.202H558.578L566.178 198.268C581.548 190.314 595.15 179.333 606.166 165.986C617.182 152.639 625.384 137.201 630.279 120.602Z" fill="#F74158"/>
<path opacity="0.62" d="M622.327 118.261L504.686 83.6727C494.815 117.218 497.339 152.85 511.736 182.377L515.191 189.427H515.332L508.465 193.572C480.433 210.493 459 239.117 449.129 272.662L566.77 307.265C576.641 273.706 574.103 238.074 559.72 208.561L556.265 201.511H556.124L562.977 197.365C591.023 180.374 612.456 151.807 622.327 118.261Z" fill="white"/>
<path d="M542.081 197.38L528.558 193.403C524.832 188.497 521.761 183.126 519.421 177.427C509.551 153.315 502.712 124.127 510.369 98.1257L608.959 127.131C601.303 153.16 578.587 173.662 556.985 188.524C552.208 191.786 547.23 194.744 542.081 197.38Z" fill="#A4303F"/>
<path opacity="0.5" d="M521.367 101.369L608.96 127.131C602.22 150.016 580.561 170.631 562.611 184.647C541.235 201.328 506.618 141.922 521.367 101.369Z" fill="#F74158"/>
<path d="M560.087 112.762L608.959 127.131C605.195 139.821 598.144 153.485 588.133 161.296C576.218 170.603 551.894 135.379 560.087 112.762Z" fill="#F74158"/>
<path d="M542.064 197.399L528.537 193.42L507.612 264.561L521.14 268.54L542.064 197.399Z" fill="#A4303F"/>
<path d="M550.33 279.628L524.314 254.064L511.75 250.369L476.428 258.308C472.135 259.274 468.178 261.37 464.967 264.38C461.756 267.39 459.409 271.204 458.168 275.426L556.759 304.417C558.033 300.09 558.108 295.498 556.975 291.133C555.843 286.767 553.546 282.79 550.33 279.628Z" fill="#A4303F"/>
<path d="M640.94 123.732L485.298 77.962C484.838 77.8277 484.409 77.6039 484.036 77.3035C483.663 77.0031 483.353 76.6319 483.124 76.2114C482.895 75.7909 482.751 75.3292 482.7 74.8529C482.65 74.3765 482.694 73.8949 482.83 73.4357L487.511 57.5162C487.786 56.5898 488.417 55.8099 489.265 55.3474C490.113 54.8849 491.11 54.7775 492.038 55.0486L647.623 100.777C648.084 100.91 648.515 101.132 648.889 101.432C649.264 101.732 649.575 102.103 649.806 102.523C650.037 102.944 650.182 103.406 650.233 103.883C650.285 104.36 650.241 104.843 650.105 105.303L645.424 121.223C645.161 122.149 644.541 122.934 643.701 123.405C642.86 123.875 641.867 123.993 640.94 123.732Z" fill="#2B809B"/>
<path opacity="0.41" d="M640.94 123.732L485.298 77.962C484.838 77.8277 484.409 77.6039 484.036 77.3034C483.663 77.003 483.353 76.6319 483.124 76.2114C482.895 75.7908 482.751 75.3291 482.7 74.8528C482.65 74.3765 482.694 73.8949 482.83 73.4357L484.141 68.9799C484.276 68.5202 484.5 68.0914 484.8 67.7184C485.1 67.3453 485.471 67.0353 485.892 66.806C486.313 66.5767 486.774 66.4328 487.251 66.3824C487.727 66.332 488.208 66.3761 488.668 66.5123L644.31 112.283C644.771 112.416 645.201 112.638 645.576 112.938C645.95 113.238 646.262 113.609 646.492 114.029C646.723 114.45 646.868 114.912 646.92 115.389C646.971 115.866 646.927 116.349 646.791 116.809L645.48 121.265C645.346 121.726 645.122 122.156 644.82 122.53C644.519 122.905 644.146 123.215 643.724 123.445C643.302 123.674 642.839 123.818 642.361 123.867C641.883 123.917 641.4 123.871 640.94 123.732Z" fill="#184655"/>
<path d="M422.976 289.926L578.625 335.706C580.56 336.275 582.59 335.168 583.159 333.233L587.838 317.324C588.407 315.389 587.3 313.359 585.365 312.79L429.717 267.01C427.782 266.441 425.752 267.548 425.182 269.483L420.503 285.392C419.934 287.327 421.041 289.357 422.976 289.926Z" fill="#2B809B"/>
<path opacity="0.41" d="M426.342 278.474L581.99 324.254C583.925 324.823 585.955 323.716 586.524 321.781L587.833 317.33C588.402 315.395 587.295 313.365 585.36 312.796L429.712 267.016C427.777 266.447 425.747 267.554 425.177 269.489L423.868 273.94C423.299 275.875 424.407 277.905 426.342 278.474Z" fill="#184655"/>
<path d="M381.151 420.056L380.121 420.309L309.774 437.653L308.744 437.907L304.895 494.281L307.785 493.576L407.857 468.914L410.748 468.209L381.151 420.056Z" fill="#184655"/>
<path opacity="0.35" d="M384.041 424.765L308.364 443.406L307.024 463.217L394.448 441.686L394.659 441.629L384.041 424.765Z" fill="#2B809B"/>
<path d="M506.745 371.507L175.001 453.291C172 454.027 168.829 453.542 166.185 451.943C163.541 450.343 161.64 447.76 160.9 444.76L112.958 250.172C112.219 247.181 112.695 244.019 114.28 241.377C115.865 238.735 118.431 236.827 121.418 236.072L453.162 154.288C456.154 153.542 459.32 154.014 461.964 155.6C464.608 157.186 466.514 159.758 467.263 162.749L515.205 357.336C515.585 358.822 515.667 360.369 515.448 361.887C515.228 363.405 514.709 364.865 513.923 366.182C513.137 367.499 512.098 368.648 510.866 369.562C509.634 370.476 508.233 371.137 506.745 371.507Z" fill="#184655"/>
<path d="M494.477 349.384L175.564 427.91C174.92 428.063 174.24 427.957 173.673 427.614C173.106 427.271 172.696 426.719 172.533 426.077L129.766 252.527C129.686 252.208 129.67 251.877 129.719 251.552C129.768 251.228 129.882 250.916 130.052 250.635C130.223 250.355 130.447 250.111 130.713 249.917C130.978 249.724 131.279 249.585 131.599 249.509L450.511 170.927C451.156 170.773 451.836 170.879 452.403 171.222C452.97 171.565 453.38 172.118 453.543 172.76L496.31 346.366C496.39 346.685 496.406 347.016 496.356 347.341C496.307 347.665 496.194 347.977 496.024 348.258C495.853 348.538 495.629 348.782 495.363 348.976C495.098 349.169 494.796 349.308 494.477 349.384Z" fill="white"/>
<path d="M435.875 471.48L284.181 508.847C283.686 506.838 283.592 504.751 283.903 502.705C284.215 500.659 284.927 498.695 285.998 496.925C287.069 495.154 288.479 493.612 290.146 492.387C291.813 491.161 293.706 490.277 295.715 489.783L416.811 459.946C420.868 458.95 425.155 459.605 428.73 461.768C432.305 463.931 434.874 467.424 435.875 471.48Z" fill="#2B809B"/>
<path d="M450.525 170.932L131.588 249.506C130.25 249.836 129.432 251.188 129.762 252.526L133.068 265.944C133.397 267.282 134.75 268.1 136.088 267.77L455.024 189.196C456.363 188.866 457.18 187.514 456.851 186.175L453.545 172.758C453.215 171.42 451.863 170.602 450.525 170.932Z" fill="#00B19F"/>
<path d="M420.111 187.467C420.235 187.974 420.207 188.506 420.029 188.996C419.851 189.486 419.531 189.913 419.111 190.222C418.691 190.531 418.188 190.708 417.667 190.731C417.146 190.754 416.629 190.622 416.183 190.351C415.737 190.081 415.381 189.684 415.161 189.212C414.94 188.739 414.865 188.211 414.944 187.696C415.023 187.18 415.254 186.7 415.606 186.315C415.959 185.93 416.417 185.659 416.924 185.535C417.603 185.369 418.32 185.479 418.917 185.842C419.515 186.204 419.944 186.788 420.111 187.467V187.467Z" stroke="#ECF1F7" stroke-miterlimit="10"/>
<path d="M447.395 180.727C447.522 181.233 447.496 181.765 447.32 182.255C447.144 182.746 446.827 183.174 446.408 183.485C445.989 183.795 445.488 183.975 444.967 184C444.446 184.026 443.93 183.896 443.482 183.628C443.035 183.36 442.677 182.966 442.454 182.495C442.231 182.023 442.153 181.497 442.229 180.981C442.305 180.465 442.533 179.983 442.883 179.597C443.232 179.21 443.689 178.936 444.195 178.809C444.873 178.642 445.59 178.75 446.19 179.109C446.789 179.469 447.222 180.05 447.395 180.727Z" stroke="#ECF1F7" stroke-miterlimit="10"/>
<path d="M433.76 184.097C433.884 184.603 433.856 185.136 433.678 185.626C433.5 186.116 433.181 186.543 432.76 186.852C432.34 187.161 431.837 187.338 431.316 187.361C430.795 187.384 430.279 187.252 429.833 186.981C429.387 186.711 429.031 186.314 428.81 185.842C428.589 185.369 428.514 184.841 428.593 184.326C428.673 183.81 428.903 183.33 429.256 182.945C429.608 182.56 430.067 182.289 430.573 182.165C431.252 182.003 431.967 182.115 432.563 182.477C433.16 182.838 433.59 183.42 433.76 184.097V184.097Z" stroke="#ECF1F7" stroke-miterlimit="10"/>
<path d="M512.864 393.025L179.555 475.132C173.746 476.542 167.457 471.353 165.454 463.485L156.36 426.57L510.848 339.259L519.943 376.174C521.818 384.043 518.674 391.586 512.864 393.025Z" fill="#2B809B"/>
<path d="M352.047 404.249C352.653 406.707 352.517 409.289 351.655 411.67C350.794 414.05 349.246 416.122 347.208 417.623C345.169 419.124 342.731 419.988 340.202 420.103C337.673 420.219 335.167 419.583 332.999 418.275C330.832 416.966 329.101 415.045 328.026 412.753C326.95 410.461 326.578 407.902 326.957 405.399C327.335 402.896 328.447 400.561 330.153 398.69C331.858 396.819 334.079 395.495 336.537 394.886C339.835 394.073 343.321 394.602 346.229 396.357C349.138 398.113 351.23 400.951 352.047 404.249Z" stroke="white" stroke-miterlimit="10"/>
<path d="M253.188 384.339L249.48 381.293C251.218 378.193 252.266 374.754 252.554 371.211L257.32 370.746C258.483 370.634 259.554 370.064 260.297 369.162C261.04 368.261 261.394 367.101 261.282 365.938C261.17 364.775 260.6 363.704 259.698 362.961C258.797 362.218 257.637 361.863 256.474 361.975L251.694 362.455C250.733 359.034 249.039 355.863 246.73 353.162L249.79 349.454C250.531 348.55 250.883 347.39 250.77 346.227C250.656 345.064 250.086 343.993 249.184 343.25V343.25C248.278 342.512 247.119 342.162 245.957 342.276C244.795 342.39 243.725 342.958 242.979 343.856L239.934 347.536C236.841 345.795 233.405 344.751 229.866 344.477L229.401 339.696C229.288 338.533 228.719 337.463 227.817 336.72C226.915 335.976 225.755 335.622 224.592 335.734C223.429 335.846 222.358 336.416 221.615 337.318C220.872 338.219 220.518 339.379 220.63 340.543L221.095 345.323C217.676 346.286 214.505 347.979 211.803 350.286L208.095 347.24C207.65 346.871 207.137 346.594 206.584 346.424C206.032 346.254 205.452 346.194 204.876 346.249C204.301 346.305 203.742 346.473 203.232 346.744C202.722 347.016 202.271 347.386 201.904 347.832V347.832C201.536 348.279 201.259 348.794 201.09 349.348C200.921 349.902 200.863 350.484 200.919 351.061C200.975 351.637 201.145 352.197 201.418 352.707C201.691 353.218 202.063 353.67 202.511 354.037L206.219 357.082C204.478 360.181 203.429 363.621 203.145 367.164L198.365 367.63C197.788 367.683 197.226 367.85 196.714 368.121C196.201 368.392 195.747 368.761 195.377 369.208C195.008 369.656 194.731 370.171 194.561 370.726C194.392 371.281 194.334 371.863 194.391 372.441C194.447 373.018 194.618 373.578 194.892 374.089C195.166 374.6 195.538 375.052 195.987 375.419C196.437 375.785 196.954 376.06 197.51 376.226C198.065 376.392 198.649 376.446 199.225 376.386L204.005 375.921C204.97 379.337 206.658 382.506 208.955 385.213L205.909 388.921C205.172 389.827 204.822 390.986 204.935 392.148C205.049 393.31 205.617 394.38 206.515 395.126V395.126C207.417 395.866 208.575 396.218 209.736 396.104C210.897 395.99 211.965 395.42 212.705 394.519L215.765 390.811C218.863 392.54 222.297 393.583 225.833 393.871L226.298 398.651C226.412 399.814 226.984 400.884 227.887 401.626C228.79 402.367 229.951 402.72 231.114 402.606C232.277 402.492 233.347 401.921 234.089 401.018C234.83 400.114 235.183 398.954 235.069 397.791L234.604 393.011C238.02 392.046 241.189 390.358 243.896 388.061L247.604 391.107C248.05 391.475 248.564 391.752 249.117 391.921C249.67 392.09 250.25 392.148 250.826 392.091C251.401 392.035 251.959 391.865 252.469 391.592C252.978 391.319 253.429 390.948 253.795 390.501C254.529 389.602 254.878 388.449 254.765 387.294C254.651 386.139 254.084 385.077 253.188 384.339V384.339ZM216.456 383.056C213.717 380.802 211.707 377.788 210.681 374.393C209.655 370.997 209.659 367.374 210.692 363.981C211.725 360.588 213.74 357.577 216.484 355.33C219.228 353.082 222.576 351.698 226.106 351.353C229.636 351.008 233.189 351.718 236.316 353.392C239.443 355.066 242.003 357.629 243.673 360.758C245.344 363.887 246.048 367.441 245.699 370.971C245.35 374.5 243.962 377.847 241.71 380.588C238.688 384.262 234.329 386.586 229.594 387.049C224.859 387.512 220.133 386.075 216.456 383.056V383.056Z" stroke="#00B19F" stroke-miterlimit="10"/>
<path d="M182.967 355.856L183.799 352.387C186.437 352.539 189.076 352.125 191.54 351.174L193.402 354.22C193.626 354.59 193.921 354.913 194.269 355.169C194.618 355.426 195.014 355.611 195.434 355.714C195.854 355.818 196.291 355.837 196.719 355.772C197.147 355.707 197.558 355.558 197.928 355.334C198.298 355.11 198.621 354.815 198.877 354.466C199.134 354.118 199.319 353.722 199.422 353.301C199.526 352.881 199.545 352.445 199.48 352.017C199.415 351.589 199.266 351.178 199.042 350.808L197.181 347.748C199.158 345.997 200.732 343.836 201.792 341.417L205.274 342.263C206.117 342.463 207.005 342.321 207.745 341.87C208.484 341.418 209.015 340.693 209.223 339.851C209.427 339.006 209.287 338.115 208.836 337.372C208.384 336.63 207.656 336.096 206.811 335.889L203.328 335.057C203.494 332.419 203.08 329.777 202.116 327.316L205.176 325.455C205.924 325 206.46 324.268 206.668 323.417C206.876 322.567 206.737 321.669 206.283 320.922C205.828 320.174 205.095 319.637 204.245 319.429C203.395 319.222 202.497 319.36 201.749 319.815L198.703 321.676C196.948 319.702 194.789 318.13 192.372 317.065L193.218 313.596C193.422 312.749 193.281 311.856 192.826 311.113C192.371 310.37 191.64 309.838 190.793 309.634C189.948 309.435 189.058 309.578 188.319 310.032C187.579 310.487 187.049 311.215 186.845 312.059L186.013 315.528C183.375 315.362 180.733 315.776 178.272 316.741L176.368 313.695C176.144 313.325 175.849 313.002 175.501 312.746C175.152 312.489 174.756 312.304 174.336 312.201C173.915 312.097 173.479 312.078 173.051 312.143C172.623 312.208 172.212 312.357 171.842 312.581C171.472 312.805 171.149 313.1 170.893 313.449C170.636 313.797 170.451 314.193 170.348 314.613C170.244 315.034 170.224 315.47 170.29 315.898C170.355 316.326 170.504 316.737 170.728 317.107L172.589 320.153C170.611 321.904 169.038 324.064 167.978 326.484L164.496 325.652C164.078 325.549 163.644 325.53 163.219 325.596C162.794 325.662 162.386 325.811 162.019 326.035C161.652 326.259 161.333 326.554 161.08 326.902C160.828 327.25 160.647 327.645 160.547 328.063C160.344 328.907 160.483 329.796 160.935 330.537C161.387 331.277 162.115 331.808 162.959 332.012L166.441 332.858C166.277 335.496 166.69 338.138 167.654 340.599L164.594 342.46C164.224 342.685 163.901 342.981 163.645 343.33C163.389 343.68 163.205 344.077 163.102 344.498C162.999 344.918 162.98 345.356 163.046 345.784C163.112 346.212 163.262 346.623 163.487 346.993C163.712 347.364 164.008 347.686 164.358 347.942C164.707 348.198 165.104 348.383 165.525 348.486C165.946 348.589 166.383 348.607 166.811 348.541C167.239 348.475 167.65 348.325 168.021 348.1L171.066 346.239C172.818 348.219 174.978 349.797 177.398 350.864L176.551 354.333C176.352 355.178 176.495 356.067 176.95 356.807C177.404 357.547 178.133 358.077 178.977 358.281C179.398 358.388 179.837 358.41 180.267 358.345C180.697 358.281 181.109 358.132 181.481 357.906C181.853 357.68 182.175 357.382 182.431 357.03C182.686 356.678 182.868 356.279 182.967 355.856ZM171.912 330.841C172.529 328.273 173.893 325.946 175.832 324.153C177.772 322.361 180.199 321.183 182.807 320.77C185.415 320.357 188.088 320.726 190.486 321.832C192.884 322.937 194.901 324.729 196.281 326.981C197.661 329.232 198.343 331.842 198.24 334.481C198.136 337.12 197.253 339.669 195.701 341.806C194.149 343.943 191.999 345.571 189.521 346.486C187.044 347.4 184.351 347.56 181.783 346.944C180.076 346.537 178.467 345.797 177.047 344.767C175.627 343.736 174.424 342.436 173.507 340.94C172.59 339.445 171.977 337.783 171.704 336.05C171.43 334.317 171.501 332.547 171.912 330.841Z" fill="#F74158"/>
<path d="M466.361 287.468C466.685 287.184 466.949 286.839 467.139 286.453C467.33 286.067 467.442 285.647 467.469 285.217C467.497 284.787 467.439 284.356 467.3 283.949C467.16 283.542 466.942 283.166 466.657 282.843L464.302 280.164C465.954 278.092 467.138 275.687 467.771 273.114L471.338 273.339C472.206 273.395 473.06 273.105 473.714 272.531C474.367 271.957 474.765 271.147 474.821 270.279C474.877 269.412 474.587 268.557 474.013 267.904C473.439 267.251 472.629 266.853 471.761 266.797L468.194 266.571C467.897 263.946 467.036 261.416 465.67 259.154L468.363 256.799C469.014 256.224 469.41 255.415 469.466 254.548C469.521 253.681 469.231 252.828 468.659 252.174V252.174C468.375 251.851 468.031 251.586 467.644 251.396C467.258 251.206 466.838 251.094 466.408 251.066C465.979 251.039 465.548 251.096 465.14 251.236C464.733 251.375 464.357 251.593 464.034 251.878L461.355 254.233C459.286 252.577 456.88 251.393 454.305 250.764L454.545 247.197C454.601 246.329 454.31 245.475 453.736 244.822C453.162 244.169 452.352 243.77 451.485 243.714C450.617 243.658 449.763 243.949 449.11 244.523C448.456 245.097 448.058 245.906 448.002 246.774L447.776 250.341C445.149 250.63 442.617 251.492 440.359 252.865L438.004 250.243C437.722 249.919 437.378 249.655 436.993 249.465C436.608 249.275 436.189 249.163 435.761 249.136C435.332 249.108 434.902 249.166 434.496 249.305C434.09 249.444 433.715 249.662 433.394 249.947V249.947C432.741 250.52 432.342 251.328 432.284 252.195C432.226 253.062 432.513 253.916 433.083 254.572L435.438 257.251C433.791 259.324 432.612 261.729 431.983 264.301L428.416 264.061C427.986 264.033 427.555 264.09 427.148 264.229C426.74 264.368 426.364 264.586 426.041 264.87C425.717 265.154 425.453 265.499 425.263 265.885C425.073 266.271 424.961 266.691 424.933 267.121C424.905 267.551 424.962 267.981 425.101 268.389C425.24 268.796 425.458 269.173 425.742 269.496C426.026 269.819 426.371 270.084 426.757 270.274C427.143 270.464 427.563 270.576 427.993 270.604L431.546 270.829C431.849 273.454 432.709 275.983 434.07 278.246L431.391 280.601C431.067 280.885 430.803 281.23 430.613 281.616C430.422 282.002 430.31 282.422 430.283 282.852C430.255 283.282 430.313 283.713 430.452 284.12C430.592 284.527 430.81 284.903 431.095 285.226V285.226C431.377 285.55 431.72 285.816 432.104 286.007C432.489 286.198 432.907 286.312 433.336 286.34C433.765 286.369 434.195 286.313 434.601 286.175C435.008 286.037 435.383 285.82 435.706 285.536L438.399 283.181C440.472 284.829 442.878 286.007 445.45 286.636L445.224 290.203C445.191 290.635 445.244 291.069 445.38 291.479C445.516 291.89 445.732 292.27 446.016 292.597C446.3 292.923 446.645 293.19 447.033 293.383C447.421 293.575 447.843 293.688 448.274 293.716C448.706 293.744 449.139 293.686 449.548 293.545C449.958 293.405 450.335 293.185 450.658 292.897C450.982 292.61 451.245 292.261 451.433 291.872C451.621 291.482 451.729 291.059 451.753 290.626L451.992 287.059C454.617 286.766 457.147 285.91 459.409 284.549L461.764 287.228C462.346 287.862 463.154 288.243 464.013 288.288C464.873 288.333 465.716 288.038 466.361 287.468ZM458.676 278.712C456.693 280.452 454.239 281.565 451.623 281.91C449.008 282.256 446.348 281.818 443.982 280.652C441.615 279.486 439.647 277.644 438.327 275.36C437.007 273.076 436.394 270.451 436.566 267.819C436.738 265.186 437.686 262.663 439.291 260.57C440.897 258.476 443.087 256.905 445.585 256.057C448.083 255.208 450.776 255.118 453.325 255.8C455.873 256.482 458.163 257.904 459.903 259.887C462.233 262.548 463.412 266.024 463.182 269.553C462.952 273.082 461.332 276.376 458.676 278.712Z" stroke="#F74158" stroke-miterlimit="10"/>
<path d="M415.119 350.78C415.651 351.005 416.223 351.123 416.801 351.127C417.379 351.131 417.952 351.022 418.488 350.804C419.023 350.587 419.511 350.266 419.922 349.86C420.334 349.454 420.661 348.971 420.886 348.439L422.762 344.011C426.225 344.8 429.819 344.829 433.295 344.096L435.1 348.538C435.312 349.08 435.63 349.575 436.035 349.994C436.44 350.412 436.924 350.746 437.46 350.976C437.995 351.206 438.571 351.328 439.153 351.333C439.736 351.339 440.314 351.229 440.853 351.01C441.393 350.79 441.884 350.466 442.297 350.055C442.71 349.645 443.038 349.156 443.261 348.618C443.484 348.079 443.598 347.502 443.596 346.92C443.594 346.337 443.476 345.761 443.25 345.224L441.445 340.782C444.446 338.903 447.005 336.397 448.946 333.436L453.374 335.311C454.451 335.761 455.663 335.766 456.744 335.325C457.825 334.884 458.687 334.032 459.141 332.956C459.592 331.881 459.599 330.671 459.16 329.59C458.722 328.509 457.873 327.646 456.8 327.189L452.373 325.328C453.157 321.863 453.181 318.27 452.443 314.795L456.899 312.99C457.982 312.551 458.845 311.699 459.3 310.623C459.755 309.547 459.764 308.334 459.324 307.251C458.885 306.168 458.033 305.305 456.957 304.85C455.881 304.395 454.668 304.386 453.585 304.826L449.13 306.645C447.236 303.641 444.715 301.082 441.741 299.143L443.602 294.716C443.827 294.183 443.945 293.612 443.95 293.034C443.954 292.456 443.844 291.883 443.627 291.347C443.41 290.812 443.089 290.324 442.683 289.912C442.277 289.501 441.794 289.173 441.261 288.949C440.729 288.723 440.158 288.605 439.58 288.601C439.002 288.597 438.428 288.707 437.893 288.924C437.357 289.141 436.87 289.462 436.458 289.868C436.047 290.274 435.719 290.757 435.494 291.289L433.619 295.717C430.159 294.933 426.57 294.909 423.1 295.646L421.281 291.134C420.831 290.068 419.98 289.223 418.911 288.78C417.843 288.337 416.642 288.333 415.571 288.769C414.499 289.205 413.642 290.045 413.186 291.108C412.729 292.171 412.709 293.371 413.131 294.448L414.936 298.904C411.932 300.797 409.374 303.318 407.434 306.292L403.021 304.431C402.489 304.206 401.917 304.088 401.339 304.083C400.761 304.079 400.188 304.189 399.652 304.406C399.117 304.624 398.629 304.944 398.218 305.35C397.806 305.756 397.479 306.239 397.254 306.772C397.027 307.304 396.907 307.876 396.902 308.454C396.897 309.033 397.006 309.606 397.224 310.143C397.441 310.679 397.763 311.166 398.17 311.578C398.577 311.989 399.061 312.316 399.595 312.539L404.008 314.4C403.254 317.871 403.254 321.463 404.008 324.933L399.454 326.738C398.917 326.956 398.429 327.277 398.017 327.683C397.605 328.089 397.278 328.572 397.052 329.105C396.827 329.638 396.709 330.21 396.705 330.789C396.701 331.367 396.811 331.941 397.028 332.477C397.246 333.013 397.567 333.501 397.973 333.913C398.379 334.325 398.862 334.653 399.395 334.878C399.928 335.103 400.5 335.222 401.079 335.226C401.657 335.23 402.231 335.12 402.767 334.902L407.209 333.097C409.108 336.102 411.633 338.66 414.612 340.599L412.736 345.012C412.288 346.093 412.287 347.308 412.734 348.389C413.181 349.471 414.039 350.331 415.119 350.78ZM421.211 336.369C417.943 334.988 415.159 332.67 413.209 329.706C411.259 326.743 410.232 323.268 410.257 319.721C410.282 316.174 411.358 312.714 413.349 309.779C415.34 306.844 418.157 304.564 421.443 303.23C424.73 301.895 428.338 301.565 431.812 302.281C435.286 302.997 438.47 304.727 440.961 307.252C443.452 309.777 445.138 312.984 445.807 316.468C446.475 319.951 446.096 323.555 444.716 326.823C442.863 331.204 439.346 334.67 434.939 336.46C430.531 338.25 425.594 338.217 421.211 336.369Z" fill="#00B19F"/>
<path d="M392.959 336.835C444.787 285.007 444.787 200.977 392.959 149.149C341.131 97.3205 257.101 97.3205 205.272 149.149C153.444 200.977 153.444 285.007 205.272 336.835C257.101 388.663 341.131 388.663 392.959 336.835Z" fill="#2B809B"/>
<path d="M299.128 351.301C358.944 351.301 407.434 302.811 407.434 242.995C407.434 183.179 358.944 134.688 299.128 134.688C239.312 134.688 190.821 183.179 190.821 242.995C190.821 302.811 239.312 351.301 299.128 351.301Z" fill="white"/>
<path d="M278.893 161.621C278.14 161.804 277.345 161.681 276.681 161.279C276.018 160.878 275.541 160.23 275.354 159.477L272.041 145.997C271.948 145.625 271.929 145.238 271.986 144.859C272.043 144.479 272.174 144.115 272.372 143.786C272.569 143.458 272.83 143.171 273.138 142.943C273.447 142.715 273.797 142.55 274.17 142.458C274.923 142.275 275.719 142.398 276.382 142.799C277.045 143.201 277.522 143.849 277.709 144.601L281.037 158.081C281.22 158.835 281.097 159.63 280.696 160.293C280.294 160.957 279.646 161.434 278.893 161.621Z" fill="#184655"/>
<path d="M324.086 343.504C323.714 343.596 323.327 343.615 322.947 343.558C322.568 343.501 322.204 343.37 321.875 343.173C321.546 342.975 321.26 342.714 321.032 342.406C320.804 342.097 320.639 341.747 320.547 341.374L317.219 327.894C317.126 327.521 317.108 327.133 317.166 326.753C317.224 326.373 317.356 326.008 317.555 325.679C317.754 325.35 318.016 325.064 318.326 324.837C318.637 324.609 318.988 324.446 319.362 324.355C319.734 324.262 320.121 324.243 320.501 324.3C320.88 324.357 321.244 324.488 321.573 324.686C321.902 324.884 322.188 325.144 322.416 325.453C322.644 325.761 322.809 326.112 322.901 326.484L326.215 339.964C326.31 340.337 326.33 340.724 326.274 341.104C326.218 341.484 326.087 341.849 325.889 342.178C325.691 342.508 325.43 342.794 325.12 343.022C324.811 343.249 324.459 343.413 324.086 343.504Z" fill="#184655"/>
<path d="M380.488 222.747C380.305 221.993 380.428 221.198 380.829 220.535C381.231 219.871 381.879 219.394 382.632 219.207L396.112 215.894C396.865 215.711 397.66 215.833 398.323 216.235C398.987 216.636 399.464 217.284 399.651 218.037C399.834 218.789 399.711 219.582 399.309 220.243C398.907 220.904 398.259 221.378 397.507 221.562L384.027 224.862C383.278 225.046 382.486 224.927 381.823 224.531C381.161 224.135 380.681 223.494 380.488 222.747Z" fill="#184655"/>
<path d="M198.605 267.939C198.422 267.185 198.544 266.39 198.946 265.727C199.348 265.063 199.995 264.586 200.748 264.399L214.228 261.086C214.6 260.993 214.987 260.974 215.367 261.031C215.746 261.088 216.11 261.219 216.439 261.417C216.768 261.614 217.054 261.875 217.282 262.184C217.51 262.492 217.675 262.843 217.767 263.215C217.86 263.588 217.878 263.976 217.82 264.356C217.763 264.736 217.63 265.101 217.431 265.43C217.232 265.759 216.97 266.045 216.66 266.272C216.35 266.5 215.998 266.663 215.624 266.754L202.144 270.082C201.391 270.265 200.595 270.142 199.932 269.741C199.269 269.339 198.792 268.691 198.605 267.939Z" fill="#184655"/>
<path d="M344.278 167.952C343.615 167.548 343.14 166.899 342.955 166.146C342.77 165.393 342.891 164.597 343.291 163.933L346.957 157.884C347.358 157.222 348.004 156.747 348.755 156.562C349.506 156.377 350.299 156.497 350.961 156.897C351.291 157.095 351.578 157.357 351.806 157.666C352.034 157.976 352.199 158.328 352.29 158.701C352.382 159.074 352.399 159.462 352.34 159.842C352.282 160.222 352.149 160.587 351.949 160.915L348.296 166.965C347.893 167.627 347.244 168.103 346.491 168.288C345.738 168.473 344.942 168.352 344.278 167.952Z" fill="#184655"/>
<path d="M247.167 329.205C246.505 328.802 246.029 328.153 245.844 327.4C245.659 326.647 245.78 325.851 246.18 325.187L250.706 317.714C250.903 317.385 251.164 317.098 251.472 316.87C251.78 316.642 252.131 316.478 252.503 316.386C252.875 316.294 253.262 316.277 253.641 316.335C254.02 316.394 254.384 316.527 254.711 316.726C255.375 317.125 255.853 317.77 256.041 318.521C256.229 319.272 256.11 320.067 255.712 320.731L251.186 328.218C250.782 328.881 250.133 329.356 249.38 329.541C248.627 329.726 247.831 329.606 247.167 329.205Z" fill="#184655"/>
<path d="M374.185 288.229C374.382 287.9 374.643 287.614 374.951 287.386C375.259 287.158 375.61 286.994 375.982 286.902C376.354 286.81 376.741 286.793 377.12 286.851C377.499 286.91 377.862 287.043 378.19 287.242L384.253 290.894C384.915 291.298 385.391 291.947 385.576 292.7C385.761 293.453 385.64 294.249 385.24 294.913C384.837 295.575 384.187 296.051 383.434 296.236C382.681 296.421 381.886 296.3 381.221 295.9L375.172 292.234C374.511 291.833 374.035 291.187 373.85 290.436C373.665 289.685 373.786 288.891 374.185 288.229Z" fill="#184655"/>
<path d="M212.959 191.161C213.36 190.5 214.007 190.024 214.757 189.839C215.508 189.654 216.302 189.775 216.964 190.174L224.451 194.7C225.114 195.104 225.589 195.753 225.774 196.506C225.959 197.259 225.838 198.055 225.438 198.719C225.038 199.381 224.391 199.856 223.64 200.041C222.889 200.226 222.096 200.106 221.434 199.706L213.946 195.25C213.609 195.051 213.315 194.785 213.081 194.47C212.848 194.155 212.681 193.796 212.589 193.414C212.497 193.033 212.482 192.637 212.546 192.25C212.609 191.863 212.75 191.493 212.959 191.161Z" fill="#184655"/>
<path d="M299.41 242.219C299.19 242.583 298.9 242.899 298.558 243.15C298.216 243.402 297.827 243.583 297.414 243.684C297.002 243.785 296.573 243.803 296.153 243.738C295.734 243.673 295.331 243.526 294.968 243.305L247.167 214.23C246.804 214.011 246.488 213.723 246.237 213.382C245.986 213.041 245.805 212.653 245.704 212.242C245.603 211.83 245.584 211.403 245.649 210.984C245.714 210.566 245.861 210.164 246.081 209.802C246.3 209.439 246.588 209.123 246.929 208.872C247.271 208.621 247.658 208.44 248.069 208.339C248.481 208.238 248.908 208.219 249.327 208.284C249.746 208.349 250.147 208.496 250.509 208.716L298.381 237.792C299.101 238.245 299.613 238.965 299.806 239.794C299.999 240.623 299.857 241.495 299.41 242.219Z" fill="#184655"/>
<path d="M299.805 246.238C299.441 246.018 299.125 245.729 298.874 245.386C298.622 245.044 298.441 244.655 298.34 244.242C298.239 243.83 298.221 243.401 298.286 242.982C298.351 242.562 298.498 242.159 298.719 241.796L323.014 201.807C323.458 201.077 324.174 200.553 325.004 200.35C325.834 200.146 326.71 200.28 327.442 200.721C328.173 201.168 328.697 201.886 328.901 202.718C329.104 203.551 328.97 204.429 328.527 205.163L304.232 245.152C304.014 245.515 303.725 245.831 303.384 246.082C303.043 246.333 302.656 246.515 302.244 246.616C301.833 246.717 301.405 246.735 300.987 246.67C300.568 246.605 300.166 246.459 299.805 246.238Z" fill="#184655"/>
<path d="M310.493 240.189C311.051 242.439 310.929 244.804 310.141 246.984C309.354 249.164 307.936 251.061 306.069 252.435C304.202 253.809 301.969 254.597 299.653 254.7C297.337 254.802 295.043 254.215 293.061 253.012C291.079 251.809 289.5 250.045 288.522 247.943C287.544 245.841 287.213 243.497 287.57 241.206C287.927 238.916 288.956 236.783 290.526 235.078C292.097 233.373 294.139 232.173 296.392 231.63C299.396 230.91 302.563 231.405 305.204 233.008C307.844 234.611 309.745 237.192 310.493 240.189Z" fill="#2B809B"/>
<path d="M556.852 369.656L522.568 352.875L512.866 372.696L547.15 389.477L556.852 369.656Z" fill="#2B809B"/>
<path opacity="0.35" d="M556.85 369.664L522.566 352.883L517.713 362.8L551.996 379.58L556.85 369.664Z" fill="#184655"/>
<path d="M563.503 363.696L523.204 343.971C521.819 343.293 520.147 343.866 519.469 345.251L515.253 353.863C514.575 355.248 515.149 356.92 516.534 357.598L556.833 377.323C558.218 378.001 559.89 377.428 560.568 376.043L564.784 367.431C565.461 366.046 564.888 364.374 563.503 363.696Z" fill="#184655"/>
<path d="M579.541 403.347L579.006 402.552C577.246 399.935 573.698 399.24 571.081 401L534.761 425.424C532.144 427.184 531.449 430.732 533.209 433.349L533.744 434.145C535.504 436.762 539.053 437.457 541.67 435.697L577.989 411.273C580.607 409.513 581.301 405.965 579.541 403.347Z" fill="#184655"/>
<path d="M485.955 410.813L486.912 410.747C490.059 410.531 492.434 407.805 492.218 404.658L489.218 360.993C489.002 357.846 486.276 355.471 483.129 355.687L482.173 355.753C479.026 355.969 476.651 358.695 476.867 361.841L479.867 405.507C480.083 408.653 482.809 411.029 485.955 410.813Z" fill="#184655"/>
<path d="M573.495 500.176C595.937 454.327 577.392 399.176 532.074 376.995C486.755 354.814 431.825 374 409.384 419.85C386.942 465.7 405.487 520.85 450.805 543.031C496.123 565.213 551.053 546.026 573.495 500.176Z" fill="#00B19F"/>
<path d="M560.004 493.537C578.756 455.228 563.263 409.149 525.401 390.617C487.54 372.085 441.646 388.118 422.895 426.427C404.144 464.737 419.636 510.816 457.498 529.348C495.36 547.88 541.253 531.847 560.004 493.537Z" fill="white"/>
<path d="M515.091 412.186L514.622 411.956C513.063 411.192 511.179 411.838 510.415 413.397L491.967 451.072C491.203 452.632 491.849 454.515 493.408 455.279L493.877 455.508C495.436 456.272 497.32 455.627 498.084 454.067L516.532 416.392C517.296 414.833 516.651 412.949 515.091 412.186Z" fill="#2B809B"/>
<path d="M500.611 464.458C499.704 466.26 498.285 467.754 496.532 468.751C494.778 469.748 492.769 470.204 490.757 470.062C488.745 469.919 486.82 469.185 485.224 467.951C483.629 466.717 482.434 465.038 481.79 463.127C481.146 461.215 481.082 459.156 481.607 457.208C482.131 455.26 483.219 453.511 484.735 452.18C486.252 450.85 488.127 449.998 490.127 449.731C492.126 449.465 494.16 449.795 495.972 450.682C498.414 451.894 500.274 454.026 501.144 456.609C502.014 459.193 501.822 462.016 500.611 464.458Z" fill="#00B19F"/>
<path d="M523.605 394.619L523.112 394.378C522.237 393.95 521.182 394.312 520.754 395.186L516.261 404.369C515.833 405.243 516.195 406.299 517.07 406.727L517.564 406.969C518.438 407.396 519.494 407.034 519.922 406.16L524.414 396.977C524.842 396.103 524.48 395.047 523.605 394.619Z" stroke="#184655" stroke-miterlimit="10"/>
<path d="M466.365 512.063L465.871 511.822C464.997 511.393 463.941 511.755 463.513 512.629L459.017 521.811C458.589 522.685 458.951 523.741 459.825 524.169L460.319 524.411C461.193 524.839 462.249 524.477 462.677 523.603L467.173 514.422C467.601 513.547 467.239 512.491 466.365 512.063Z" stroke="#184655" stroke-miterlimit="10"/>
<path d="M556.464 491.231L556.706 490.737C557.134 489.863 556.772 488.807 555.897 488.379L546.715 483.886C545.84 483.459 544.785 483.821 544.357 484.695L544.115 485.189C543.687 486.063 544.049 487.119 544.924 487.547L554.107 492.04C554.981 492.467 556.037 492.105 556.464 491.231Z" stroke="#184655" stroke-miterlimit="10"/>
<path d="M439.051 434.097L439.292 433.603C439.72 432.729 439.358 431.673 438.484 431.245L429.302 426.751C428.428 426.323 427.372 426.685 426.944 427.559L426.702 428.053C426.274 428.927 426.636 429.983 427.511 430.411L436.693 434.905C437.567 435.333 438.623 434.971 439.051 434.097Z" stroke="#184655" stroke-miterlimit="10"/>
<path d="M557.99 436.818L557.812 436.297C557.496 435.377 556.494 434.886 555.573 435.202L550.397 436.976C549.477 437.291 548.986 438.294 549.302 439.214L549.48 439.735C549.796 440.656 550.798 441.146 551.719 440.83L556.894 439.057C557.815 438.741 558.306 437.739 557.99 436.818Z" stroke="#184655" stroke-miterlimit="10"/>
<path d="M435.106 479.215L434.927 478.695C434.612 477.774 433.609 477.283 432.688 477.599L426.406 479.752C425.485 480.068 424.994 481.07 425.31 481.991L425.488 482.512C425.804 483.432 426.806 483.923 427.727 483.607L434.01 481.454C434.931 481.138 435.421 480.136 435.106 479.215Z" stroke="#184655" stroke-miterlimit="10"/>
<path d="M514.266 525.714L514.786 525.536C515.707 525.22 516.198 524.218 515.882 523.297L514.108 518.122C513.792 517.201 512.79 516.71 511.869 517.026L511.349 517.204C510.428 517.52 509.937 518.522 510.253 519.443L512.027 524.619C512.343 525.539 513.345 526.03 514.266 525.714Z" stroke="#184655" stroke-miterlimit="10"/>
<path d="M471.883 402.851L472.403 402.673C473.324 402.357 473.815 401.355 473.499 400.434L471.346 394.152C471.03 393.231 470.028 392.74 469.107 393.056L468.587 393.234C467.666 393.55 467.175 394.552 467.491 395.473L469.645 401.756C469.96 402.676 470.962 403.167 471.883 402.851Z" stroke="#184655" stroke-miterlimit="10"/>
</g>
<defs>
<clipPath id="clip0">
<rect width="643" height="639.996" fill="white" transform="translate(88)"/>
</clipPath>
</defs>
</svg>
